<?xml version="1.0" encoding="utf-8"?>
<!-- Generator: Adobe Illustrator 27.5.0, SVG Export Plug-In . SVG Version: 6.00 Build 0)  -->
<svg version="1.1" xmlns="http://www.w3.org/2000/svg" xmlns:xlink="http://www.w3.org/1999/xlink" x="0px" y="0px"
	 viewBox="0 0 500 500" style="enable-background:new 0 0 500 500;" xml:space="preserve">
<g id="Background_Complete">
	<g>
		<rect y="382.398" style="fill:#EBEBEB;" width="500" height="0.25"/>
		<rect x="416.779" y="398.494" style="fill:#EBEBEB;" width="33.122" height="0.25"/>
		<rect x="322.527" y="401.208" style="fill:#EBEBEB;" width="8.693" height="0.25"/>
		<rect x="396.586" y="389.208" style="fill:#EBEBEB;" width="19.192" height="0.25"/>
		<rect x="52.459" y="390.888" style="fill:#EBEBEB;" width="43.193" height="0.25"/>
		<rect x="104.556" y="390.888" style="fill:#EBEBEB;" width="6.333" height="0.25"/>
		<rect x="131.471" y="395.111" style="fill:#EBEBEB;" width="93.676" height="0.25"/>
		<path style="fill:#EBEBEB;" d="M237.014,337.8H43.915c-3.147,0-5.708-2.561-5.708-5.708V60.66c0-3.147,2.561-5.708,5.708-5.708
			h193.099c3.146,0,5.707,2.561,5.707,5.708v271.432C242.721,335.239,240.16,337.8,237.014,337.8z M43.915,55.203
			c-3.01,0-5.458,2.448-5.458,5.458v271.432c0,3.01,2.448,5.458,5.458,5.458h193.099c3.009,0,5.457-2.448,5.457-5.458V60.66
			c0-3.009-2.448-5.458-5.457-5.458H43.915z"/>
		<path style="fill:#EBEBEB;" d="M453.31,337.8H260.212c-3.147,0-5.707-2.561-5.707-5.708V60.66c0-3.147,2.561-5.708,5.707-5.708
			H453.31c3.148,0,5.708,2.561,5.708,5.708v271.432C459.019,335.239,456.458,337.8,453.31,337.8z M260.212,55.203
			c-3.009,0-5.457,2.448-5.457,5.458v271.432c0,3.01,2.448,5.458,5.457,5.458H453.31c3.01,0,5.458-2.448,5.458-5.458V60.66
			c0-3.009-2.448-5.458-5.458-5.458H260.212z"/>
	</g>
	<g>
		<polygon style="fill:#F5F5F5;" points="443.105,381.445 443.105,282.101 420.345,282.101 420.345,236.367 417.135,236.367 
			417.135,262.58 408.382,262.58 408.382,255.33 392.625,255.33 392.625,230.232 389.707,230.232 389.707,199.557 387.372,199.557 
			387.372,229.675 381.828,229.675 381.828,274.293 371.324,274.293 371.324,229.675 352.357,229.675 352.357,267.407 
			332.445,267.407 332.445,221.674 329.236,221.674 329.236,247.887 320.482,247.887 320.482,240.637 304.725,240.637 
			304.725,215.539 301.807,215.539 301.807,184.864 299.472,184.864 299.472,214.981 293.928,214.981 293.928,259.599 
			283.424,259.599 283.424,214.981 264.457,214.981 264.457,258.14 251.667,258.14 251.667,233.042 248.749,233.042 
			248.749,202.367 246.414,202.367 246.414,232.485 240.87,232.485 240.87,277.102 230.366,277.102 230.366,232.485 
			211.399,232.485 211.399,277.102 202.062,277.102 202.062,282.101 185.704,282.101 185.704,236.367 182.495,236.367 
			182.495,262.58 173.741,262.58 173.741,255.33 157.984,255.33 157.984,230.232 155.066,230.232 155.066,199.557 152.731,199.557 
			152.731,229.675 147.643,229.675 147.643,227.163 128.676,227.163 128.676,229.675 118.172,229.675 118.172,227.163 
			112.628,227.163 112.628,197.046 110.293,197.046 110.293,227.721 107.375,227.721 107.375,252.818 91.619,252.818 
			91.619,260.069 82.864,260.069 82.864,233.856 79.655,233.856 79.655,279.589 56.895,279.589 56.895,381.445 		"/>
		
			<ellipse transform="matrix(0.9239 -0.3827 0.3827 0.9239 -18.7128 151.816)" style="fill:#FAFAFA;" cx="372.259" cy="122.946" rx="27.787" ry="27.787"/>
		<path style="fill:#F0F0F0;" d="M357.844,122.633c0-2.668-2.163-4.83-4.83-4.83c-0.482,0-0.947,0.073-1.387,0.205
			c0.07-0.484,0.108-0.979,0.108-1.483c0-5.649-4.58-10.229-10.229-10.229c-0.644,0-1.273,0.063-1.884,0.176
			c-1.572-2.573-4.398-4.296-7.634-4.296c-4.898,0-8.871,3.935-8.944,8.816c-0.05-0.001-0.099-0.007-0.149-0.007
			c-4.551,0-8.24,3.689-8.24,8.24c0,4.551,3.689,8.24,8.24,8.24h30.261l-0.006-0.007
			C355.754,127.384,357.844,125.255,357.844,122.633z"/>
		<path style="fill:#F0F0F0;" d="M61.338,174.041c0-2.668,2.163-4.83,4.83-4.83c0.482,0,0.947,0.073,1.387,0.204
			c-0.07-0.484-0.108-0.979-0.108-1.483c0-5.649,4.58-10.229,10.229-10.229c0.644,0,1.273,0.062,1.884,0.176
			c1.572-2.573,4.398-4.296,7.634-4.296c4.898,0,8.871,3.935,8.943,8.816c0.05-0.001,0.099-0.008,0.149-0.008
			c4.551,0,8.24,3.689,8.24,8.24c0,4.551-3.689,8.24-8.24,8.24h-30.26l0.006-0.007C63.428,178.792,61.338,176.663,61.338,174.041z"
			/>
		<path style="fill:#F0F0F0;" d="M177.892,118.419c0-4.221-3.422-7.643-7.643-7.643c-0.763,0-1.499,0.115-2.195,0.324
			c0.111-0.767,0.172-1.549,0.172-2.347c0-8.938-7.246-16.184-16.184-16.184c-1.019,0-2.015,0.099-2.981,0.279
			c-2.488-4.071-6.959-6.798-12.079-6.798c-7.749,0-14.035,6.227-14.151,13.949c-0.079-0.002-0.156-0.012-0.236-0.012
			c-7.2,0-13.037,5.837-13.037,13.037c0,7.201,5.837,13.038,13.037,13.038h47.879l-0.01-0.011
			C174.585,125.936,177.892,122.567,177.892,118.419z"/>
		<path style="fill:#F0F0F0;" d="M288.62,158.35c0-5.079-4.118-9.197-9.197-9.197c-0.919,0-1.804,0.139-2.641,0.389
			c0.134-0.922,0.206-1.864,0.206-2.824c0-10.757-8.72-19.477-19.477-19.477c-1.226,0-2.424,0.119-3.588,0.336
			c-2.994-4.899-8.375-8.18-14.536-8.18c-9.326,0-16.891,7.493-17.029,16.786c-0.095-0.002-0.188-0.014-0.284-0.014
			c-8.665,0-15.689,7.024-15.689,15.689c0,8.665,7.024,15.689,15.689,15.689l57.619,0l-0.012-0.013
			C284.641,167.396,288.62,163.342,288.62,158.35z"/>
		<path style="fill:#F0F0F0;" d="M418.453,137.104c0-1.659-1.345-3.003-3.003-3.003c-0.3,0-0.589,0.045-0.862,0.127
			c0.044-0.301,0.067-0.609,0.067-0.922c0-3.512-2.847-6.36-6.359-6.36c-0.4,0-0.792,0.039-1.172,0.11
			c-0.977-1.6-2.734-2.671-4.746-2.671c-3.045,0-5.515,2.447-5.56,5.481c-0.031,0-0.061-0.005-0.093-0.005
			c-2.829,0-5.123,2.294-5.123,5.123c0,2.829,2.294,5.123,5.123,5.123h18.813l-0.004-0.004
			C417.154,140.058,418.453,138.734,418.453,137.104z"/>
		<path style="fill:#F0F0F0;" d="M426.648,223.35c0-1.658-1.345-3.003-3.003-3.003c-0.3,0-0.589,0.045-0.862,0.127
			c0.044-0.301,0.067-0.609,0.067-0.922c0-3.512-2.847-6.359-6.359-6.359c-0.4,0-0.792,0.039-1.172,0.109
			c-0.977-1.6-2.734-2.671-4.746-2.671c-3.045,0-5.515,2.447-5.56,5.481c-0.031-0.001-0.061-0.005-0.093-0.005
			c-2.829,0-5.123,2.294-5.123,5.123c0,2.829,2.294,5.123,5.123,5.123h18.813l-0.004-0.004
			C425.348,226.304,426.648,224.98,426.648,223.35z"/>
		<path style="fill:#F0F0F0;" d="M142.542,241.467c0-1.658-1.345-3.003-3.003-3.003c-0.3,0-0.589,0.045-0.862,0.127
			c0.044-0.301,0.067-0.609,0.067-0.922c0-3.512-2.847-6.359-6.359-6.359c-0.4,0-0.792,0.039-1.171,0.109
			c-0.977-1.6-2.734-2.671-4.746-2.671c-3.045,0-5.515,2.447-5.56,5.481c-0.031-0.001-0.061-0.005-0.093-0.005
			c-2.829,0-5.123,2.294-5.123,5.123c0,2.829,2.293,5.123,5.123,5.123l18.813,0l-0.004-0.004
			C141.242,244.42,142.542,243.097,142.542,241.467z"/>
	</g>
</g>
<g id="Background_Simple" style="display:none;">
	<g style="display:inline;">
		<path style="fill:#407BFF;" d="M250.953,80.448c-82.924,37.309-7.647,103.804-55.527,140.018s-178.06-5.652-128.434,88.388
			c58.293,110.463,313.563,95.124,368.602-40.366S333.876,43.139,250.953,80.448z"/>
		<path style="opacity:0.9;fill:#FFFFFF;" d="M250.953,80.448c-82.924,37.309-7.647,103.804-55.527,140.018
			s-178.06-5.652-128.434,88.388c58.293,110.463,313.563,95.124,368.602-40.366S333.876,43.139,250.953,80.448z"/>
	</g>
</g>
<g id="Shadow_1_">
	<ellipse id="_x3C_Path_x3E__359_" style="fill:#F5F5F5;" cx="250" cy="416.238" rx="193.889" ry="11.323"/>
</g>
<g id="Trees">
	<g>
		<g>
			<path style="fill:#407BFF;" d="M411.28,398.939c-0.12-0.986-0.067-2.424,1.156-2.827c1.911-0.63,3.045-2.111,2.981-3.785
				c-0.064-1.674,1.948-3.304,3.457-1.734c1.509,1.569,1.308-1.207,3.32-1.881c2.012-0.674,3.718,0.962,3.167,2.458
				c-0.551,1.496,1.434,2.43,3.812,1.158c2.377-1.272,4.993,1.042,4.49,2.853c-0.503,1.811-0.091,2.012,1.413,1.408
				c1.275-0.512,3.394,0.641,3.439,2.351H411.28z"/>
			<g>
				<path style="fill:#407BFF;" d="M439.483,338.415c0.066-0.24,0.106-0.515,0.124-0.818c0.101-1.697,1.72-1.428,3.098-1.658
					c1.076-0.18-1.774-2.899,0.397-3.777c0.403-0.163,0.841-0.347,1.047-0.73c0.273-0.506-0.003-1.173-0.473-1.505
					c-0.47-0.332-1.073-0.402-1.648-0.413c-0.354-0.431-0.066-1.078,0.277-1.518c0.342-0.44,0.762-0.94,0.632-1.482
					c-0.196-0.818-1.34-0.848-2.166-0.689c-0.305-0.494-0.299-1.113-0.447-1.675c-0.148-0.562-0.595-1.152-1.172-1.082
					c-0.544,0.066-0.876,0.68-1.409,0.805c-0.619,0.146-1.155-0.401-1.64-0.812c-0.486-0.411-1.335-0.667-1.669-0.126
					c-0.2,0.324-0.08,0.775-0.288,1.094c-0.361,0.553-1.216,0.21-1.746-0.182c-0.531-0.392-1.377-0.747-1.75-0.203
					c-0.115,0.167-0.14,0.377-0.206,0.568c-0.251,0.725-1.035,1.086-1.645,1.551c-0.61,0.465-1.094,1.389-0.577,1.956
					c0.255,0.28,0.703,0.393,0.829,0.75c0.158,0.445-0.297,0.845-0.658,1.151c-0.6,0.51-0.708,2.037,0.085,2.454
					c0.333,0.175,0.821,0.229,0.903,0.596c0.073,0.328-0.26,0.584-0.481,0.837c-0.608,0.695-0.351,1.947,0.482,2.346
					c0.19,0.091,0.424,0.166,0.495,0.365c0.051,0.142-0.005,0.298-0.045,0.443c-0.077,0.275-0.103,0.565-0.076,0.85
					c0.009,0.098,0.029,0.203,0.103,0.267c0.067,0.058,0.163,0.067,0.251,0.071c1.145,0.051,1.698-0.354,2.396,0.642
					c0.067,0.096,0.138,0.194,0.239,0.253c0.095,0.055,0.207,0.07,0.316,0.079c0.787,0.065,1.302-0.426,2.021-0.518
					c0.998-0.127,1.21,0.387,2.089,0.801C438.553,339.758,439.223,339.357,439.483,338.415z"/>
				<path style="fill:#407BFF;" d="M426.295,336.99c0.066-0.24,0.106-0.515,0.124-0.818c0.101-1.697,1.72-1.428,3.098-1.658
					c1.077-0.18-1.774-2.899,0.397-3.777c0.403-0.163,0.841-0.347,1.047-0.73c0.273-0.506-0.003-1.173-0.473-1.505
					c-0.47-0.332-1.073-0.402-1.648-0.413c-0.354-0.431-0.066-1.078,0.277-1.518c0.343-0.439,0.762-0.94,0.632-1.482
					c-0.196-0.818-1.34-0.848-2.166-0.689c-0.305-0.494-0.299-1.113-0.448-1.675c-0.148-0.562-0.595-1.152-1.172-1.081
					c-0.544,0.066-0.876,0.68-1.409,0.805c-0.619,0.146-1.155-0.401-1.64-0.812c-0.486-0.411-1.335-0.667-1.669-0.126
					c-0.2,0.324-0.08,0.775-0.288,1.094c-0.361,0.553-1.216,0.21-1.747-0.182c-0.531-0.392-1.377-0.747-1.75-0.203
					c-0.114,0.167-0.14,0.376-0.206,0.568c-0.251,0.725-1.035,1.086-1.645,1.551c-0.61,0.465-1.094,1.389-0.577,1.956
					c0.255,0.28,0.703,0.393,0.829,0.75c0.158,0.446-0.297,0.845-0.658,1.151c-0.6,0.51-0.708,2.036,0.084,2.454
					c0.333,0.175,0.821,0.229,0.903,0.596c0.073,0.328-0.26,0.584-0.482,0.837c-0.608,0.695-0.351,1.947,0.482,2.346
					c0.19,0.091,0.424,0.166,0.495,0.365c0.051,0.142-0.005,0.298-0.045,0.443c-0.077,0.275-0.103,0.565-0.076,0.85
					c0.009,0.097,0.029,0.203,0.103,0.267c0.067,0.058,0.163,0.067,0.251,0.071c1.145,0.051,1.698-0.354,2.396,0.642
					c0.067,0.096,0.137,0.194,0.238,0.253c0.095,0.055,0.207,0.07,0.316,0.079c0.787,0.065,1.302-0.427,2.021-0.518
					c0.998-0.127,1.21,0.387,2.089,0.801C425.365,338.333,426.036,337.932,426.295,336.99z"/>
				<path style="fill:#407BFF;" d="M425.025,328.591c0.066-0.24,0.106-0.515,0.124-0.818c0.101-1.697,1.72-1.428,3.098-1.658
					c1.077-0.18-1.774-2.899,0.397-3.777c0.403-0.163,0.841-0.347,1.047-0.73c0.273-0.506-0.003-1.173-0.473-1.505
					c-0.47-0.332-1.073-0.402-1.648-0.413c-0.354-0.431-0.066-1.078,0.277-1.518s0.762-0.94,0.632-1.482
					c-0.196-0.818-1.34-0.848-2.166-0.689c-0.305-0.494-0.299-1.113-0.447-1.675c-0.148-0.562-0.595-1.152-1.172-1.082
					c-0.544,0.066-0.876,0.68-1.408,0.806c-0.619,0.146-1.155-0.402-1.64-0.812c-0.486-0.411-1.335-0.667-1.669-0.126
					c-0.2,0.324-0.08,0.775-0.288,1.094c-0.361,0.553-1.216,0.21-1.747-0.182c-0.531-0.392-1.377-0.747-1.75-0.203
					c-0.114,0.167-0.14,0.376-0.206,0.568c-0.251,0.725-1.035,1.086-1.645,1.551c-0.61,0.465-1.094,1.389-0.577,1.957
					c0.255,0.28,0.703,0.393,0.829,0.75c0.158,0.445-0.297,0.845-0.658,1.151c-0.6,0.51-0.708,2.037,0.084,2.454
					c0.333,0.175,0.821,0.229,0.903,0.596c0.073,0.328-0.26,0.584-0.482,0.837c-0.608,0.695-0.351,1.947,0.482,2.346
					c0.19,0.091,0.424,0.166,0.495,0.365c0.05,0.142-0.005,0.298-0.046,0.443c-0.077,0.275-0.103,0.565-0.076,0.85
					c0.009,0.097,0.029,0.203,0.104,0.267c0.067,0.058,0.163,0.067,0.251,0.071c1.145,0.051,1.697-0.354,2.396,0.642
					c0.067,0.096,0.137,0.194,0.238,0.253c0.095,0.055,0.207,0.07,0.316,0.079c0.787,0.065,1.302-0.427,2.021-0.518
					c0.998-0.127,1.21,0.387,2.089,0.801C424.094,329.934,424.765,329.534,425.025,328.591z"/>
				<path style="fill:#407BFF;" d="M416.337,332.775c0.066-0.24,0.106-0.515,0.124-0.818c0.101-1.697,1.72-1.428,3.098-1.658
					c1.077-0.18-1.774-2.899,0.397-3.777c0.403-0.163,0.841-0.347,1.047-0.73c0.273-0.506-0.003-1.173-0.473-1.505
					c-0.47-0.332-1.073-0.402-1.648-0.413c-0.354-0.431-0.066-1.078,0.276-1.518c0.343-0.44,0.762-0.94,0.632-1.482
					c-0.196-0.818-1.34-0.848-2.166-0.689c-0.305-0.494-0.299-1.113-0.447-1.675c-0.148-0.562-0.595-1.152-1.172-1.081
					c-0.544,0.066-0.876,0.68-1.409,0.805c-0.619,0.146-1.155-0.401-1.64-0.812c-0.486-0.411-1.335-0.667-1.669-0.126
					c-0.2,0.324-0.08,0.775-0.288,1.094c-0.361,0.552-1.216,0.21-1.747-0.182c-0.531-0.392-1.377-0.747-1.75-0.203
					c-0.114,0.167-0.139,0.376-0.206,0.567c-0.251,0.725-1.035,1.086-1.645,1.551c-0.61,0.465-1.094,1.389-0.577,1.956
					c0.255,0.28,0.703,0.393,0.829,0.75c0.158,0.446-0.297,0.845-0.657,1.151c-0.6,0.51-0.708,2.037,0.084,2.454
					c0.333,0.175,0.821,0.229,0.903,0.596c0.073,0.328-0.26,0.584-0.481,0.837c-0.608,0.695-0.351,1.947,0.482,2.346
					c0.19,0.091,0.424,0.166,0.495,0.365c0.051,0.142-0.005,0.298-0.045,0.443c-0.077,0.275-0.103,0.565-0.076,0.85
					c0.009,0.097,0.029,0.203,0.103,0.267c0.067,0.058,0.163,0.067,0.251,0.071c1.145,0.051,1.697-0.354,2.396,0.642
					c0.067,0.096,0.138,0.194,0.239,0.253c0.095,0.055,0.207,0.07,0.316,0.079c0.787,0.065,1.302-0.426,2.021-0.518
					c0.998-0.127,1.21,0.387,2.089,0.801C415.407,334.117,416.078,333.717,416.337,332.775z"/>
				<path style="fill:#407BFF;" d="M407.558,330.842c0.066-0.24,0.106-0.515,0.124-0.818c0.101-1.697,1.72-1.428,3.098-1.658
					c1.077-0.18-1.774-2.899,0.397-3.777c0.403-0.163,0.841-0.347,1.047-0.73c0.273-0.506-0.003-1.173-0.473-1.505
					c-0.469-0.332-1.073-0.402-1.648-0.413c-0.354-0.431-0.066-1.078,0.276-1.518c0.343-0.44,0.762-0.94,0.632-1.482
					c-0.196-0.818-1.34-0.848-2.166-0.689c-0.305-0.495-0.299-1.113-0.448-1.675c-0.148-0.562-0.595-1.152-1.172-1.081
					c-0.543,0.066-0.876,0.68-1.408,0.805c-0.619,0.146-1.155-0.401-1.64-0.812c-0.486-0.411-1.335-0.667-1.669-0.126
					c-0.2,0.324-0.08,0.775-0.288,1.094c-0.361,0.552-1.216,0.21-1.747-0.182c-0.531-0.392-1.377-0.747-1.75-0.203
					c-0.114,0.167-0.139,0.376-0.206,0.567c-0.251,0.725-1.035,1.086-1.645,1.551c-0.61,0.465-1.094,1.389-0.577,1.956
					c0.255,0.28,0.703,0.393,0.83,0.75c0.158,0.446-0.297,0.845-0.658,1.151c-0.6,0.51-0.709,2.037,0.084,2.454
					c0.333,0.175,0.821,0.229,0.903,0.596c0.073,0.328-0.26,0.584-0.482,0.837c-0.608,0.695-0.351,1.947,0.482,2.346
					c0.19,0.091,0.424,0.166,0.495,0.365c0.051,0.142-0.005,0.298-0.046,0.443c-0.077,0.275-0.103,0.565-0.076,0.85
					c0.009,0.097,0.029,0.203,0.103,0.267c0.067,0.058,0.163,0.067,0.251,0.071c1.145,0.051,1.697-0.354,2.396,0.642
					c0.067,0.096,0.137,0.194,0.238,0.253c0.095,0.055,0.207,0.07,0.316,0.079c0.787,0.065,1.302-0.426,2.021-0.518
					c0.998-0.127,1.21,0.387,2.089,0.801C406.627,332.185,407.298,331.785,407.558,330.842z"/>
				<path style="fill:#407BFF;" d="M407.443,340.234c0.052-0.189,0.083-0.405,0.097-0.644c0.079-1.336,1.355-1.124,2.44-1.305
					c0.848-0.142-1.397-2.283,0.312-2.974c0.318-0.128,0.663-0.273,0.825-0.575c0.215-0.399-0.003-0.924-0.372-1.185
					c-0.37-0.261-0.845-0.317-1.298-0.325c-0.279-0.339-0.052-0.849,0.218-1.195c0.27-0.346,0.6-0.74,0.498-1.167
					c-0.154-0.644-1.055-0.668-1.706-0.542c-0.24-0.389-0.236-0.876-0.352-1.319c-0.117-0.443-0.468-0.907-0.923-0.852
					c-0.428,0.052-0.689,0.535-1.109,0.634c-0.487,0.115-0.909-0.316-1.292-0.639c-0.382-0.323-1.051-0.525-1.314-0.099
					c-0.158,0.255-0.063,0.61-0.227,0.861c-0.284,0.435-0.957,0.165-1.375-0.143c-0.418-0.309-1.084-0.588-1.378-0.16
					c-0.09,0.131-0.11,0.297-0.162,0.447c-0.198,0.571-0.815,0.855-1.295,1.221c-0.48,0.366-0.861,1.094-0.454,1.54
					c0.201,0.22,0.553,0.31,0.653,0.59c0.125,0.351-0.234,0.665-0.518,0.907c-0.472,0.402-0.558,1.604,0.066,1.932
					c0.262,0.138,0.647,0.18,0.711,0.47c0.057,0.258-0.205,0.46-0.379,0.659c-0.479,0.548-0.276,1.533,0.38,1.847
					c0.15,0.072,0.334,0.131,0.39,0.287c0.04,0.112-0.004,0.234-0.036,0.349c-0.061,0.217-0.081,0.445-0.06,0.669
					c0.007,0.077,0.023,0.16,0.081,0.21c0.053,0.046,0.128,0.053,0.198,0.056c0.902,0.04,1.337-0.279,1.887,0.506
					c0.053,0.075,0.108,0.153,0.188,0.199c0.074,0.043,0.163,0.055,0.249,0.062c0.62,0.051,1.025-0.336,1.591-0.408
					c0.786-0.1,0.952,0.305,1.645,0.631C406.711,341.292,407.238,340.976,407.443,340.234z"/>
				<path style="fill:#407BFF;" d="M402.523,336.99c0.066-0.24,0.106-0.515,0.124-0.818c0.101-1.697,1.721-1.428,3.098-1.658
					c1.076-0.18-1.774-2.899,0.397-3.777c0.403-0.163,0.841-0.347,1.047-0.73c0.273-0.506-0.003-1.173-0.473-1.505
					c-0.469-0.332-1.073-0.402-1.648-0.413c-0.354-0.431-0.066-1.078,0.276-1.518c0.343-0.439,0.762-0.94,0.632-1.482
					c-0.196-0.818-1.34-0.848-2.166-0.689c-0.305-0.494-0.299-1.113-0.448-1.675c-0.148-0.562-0.595-1.152-1.172-1.081
					c-0.543,0.066-0.875,0.68-1.408,0.805c-0.619,0.146-1.155-0.401-1.64-0.812c-0.485-0.411-1.335-0.667-1.669-0.126
					c-0.2,0.324-0.08,0.775-0.288,1.094c-0.361,0.553-1.216,0.21-1.746-0.182c-0.531-0.392-1.377-0.747-1.75-0.203
					c-0.115,0.167-0.14,0.376-0.206,0.568c-0.251,0.725-1.035,1.086-1.645,1.551c-0.61,0.465-1.094,1.389-0.577,1.956
					c0.255,0.28,0.703,0.393,0.829,0.75c0.158,0.446-0.297,0.845-0.658,1.151c-0.6,0.51-0.708,2.036,0.085,2.454
					c0.333,0.175,0.821,0.229,0.903,0.596c0.073,0.328-0.26,0.584-0.482,0.837c-0.608,0.695-0.351,1.947,0.482,2.346
					c0.19,0.091,0.424,0.166,0.495,0.365c0.05,0.142-0.005,0.298-0.046,0.443c-0.077,0.275-0.103,0.565-0.076,0.85
					c0.009,0.097,0.029,0.203,0.104,0.267c0.067,0.058,0.163,0.067,0.251,0.071c1.145,0.051,1.697-0.354,2.396,0.642
					c0.067,0.096,0.137,0.194,0.238,0.253c0.095,0.055,0.207,0.07,0.316,0.079c0.787,0.065,1.302-0.427,2.021-0.518
					c0.998-0.127,1.21,0.387,2.089,0.801C401.593,338.333,402.264,337.932,402.523,336.99z"/>
				<path style="fill:#407BFF;" d="M416.337,322.444c0.066-0.24,0.106-0.515,0.124-0.818c0.101-1.697,1.72-1.428,3.098-1.658
					c1.077-0.18-1.774-2.899,0.397-3.777c0.403-0.163,0.841-0.347,1.047-0.73c0.273-0.506-0.003-1.173-0.473-1.505
					c-0.47-0.332-1.073-0.402-1.648-0.413c-0.354-0.43-0.066-1.078,0.276-1.518c0.343-0.44,0.762-0.94,0.632-1.482
					c-0.196-0.818-1.34-0.848-2.166-0.689c-0.305-0.494-0.299-1.113-0.447-1.675c-0.148-0.562-0.595-1.152-1.172-1.082
					c-0.544,0.066-0.876,0.68-1.409,0.806c-0.619,0.146-1.155-0.402-1.64-0.812c-0.486-0.411-1.335-0.667-1.669-0.126
					c-0.2,0.324-0.08,0.775-0.288,1.094c-0.361,0.552-1.216,0.21-1.747-0.182c-0.531-0.392-1.377-0.747-1.75-0.203
					c-0.114,0.167-0.139,0.376-0.206,0.567c-0.251,0.725-1.035,1.086-1.645,1.551c-0.61,0.465-1.094,1.389-0.577,1.956
					c0.255,0.28,0.703,0.393,0.829,0.75c0.158,0.446-0.297,0.845-0.657,1.151c-0.6,0.51-0.708,2.037,0.084,2.454
					c0.333,0.175,0.821,0.229,0.903,0.596c0.073,0.328-0.26,0.584-0.481,0.837c-0.608,0.695-0.351,1.947,0.482,2.346
					c0.19,0.091,0.424,0.166,0.495,0.365c0.051,0.142-0.005,0.298-0.045,0.443c-0.077,0.275-0.103,0.565-0.076,0.85
					c0.009,0.097,0.029,0.203,0.103,0.267c0.067,0.058,0.163,0.067,0.251,0.071c1.145,0.051,1.697-0.354,2.396,0.642
					c0.067,0.096,0.138,0.194,0.239,0.253c0.095,0.055,0.207,0.07,0.316,0.079c0.787,0.065,1.302-0.426,2.021-0.518
					c0.998-0.127,1.21,0.387,2.089,0.801C415.407,323.787,416.078,323.386,416.337,322.444z"/>
				<path style="fill:#407BFF;" d="M427.616,323.021c0.066-0.24,0.106-0.515,0.124-0.818c0.101-1.697,1.72-1.428,3.099-1.658
					c1.076-0.18-1.774-2.899,0.397-3.777c0.403-0.163,0.841-0.347,1.047-0.73c0.272-0.506-0.003-1.173-0.473-1.505
					c-0.47-0.332-1.073-0.402-1.648-0.413c-0.354-0.43-0.066-1.078,0.276-1.518c0.343-0.44,0.762-0.94,0.632-1.482
					c-0.196-0.818-1.34-0.848-2.166-0.689c-0.305-0.495-0.299-1.113-0.448-1.675c-0.148-0.562-0.595-1.152-1.172-1.081
					c-0.543,0.066-0.876,0.68-1.409,0.805c-0.619,0.146-1.155-0.401-1.64-0.812c-0.486-0.411-1.335-0.667-1.669-0.126
					c-0.2,0.324-0.08,0.775-0.288,1.094c-0.361,0.553-1.216,0.21-1.746-0.182c-0.531-0.392-1.377-0.747-1.75-0.203
					c-0.115,0.167-0.14,0.376-0.206,0.568c-0.251,0.725-1.035,1.086-1.645,1.551c-0.61,0.465-1.094,1.389-0.577,1.956
					c0.255,0.28,0.703,0.393,0.829,0.75c0.158,0.446-0.297,0.845-0.658,1.151c-0.6,0.51-0.708,2.037,0.085,2.454
					c0.333,0.175,0.821,0.229,0.903,0.596c0.073,0.328-0.26,0.584-0.482,0.837c-0.608,0.695-0.351,1.947,0.482,2.346
					c0.19,0.091,0.424,0.166,0.495,0.365c0.051,0.143-0.005,0.298-0.046,0.443c-0.077,0.275-0.103,0.565-0.076,0.85
					c0.009,0.097,0.029,0.203,0.103,0.267c0.067,0.058,0.163,0.067,0.251,0.071c1.145,0.051,1.698-0.354,2.396,0.642
					c0.067,0.096,0.137,0.194,0.238,0.253c0.095,0.055,0.207,0.07,0.316,0.079c0.787,0.065,1.302-0.426,2.021-0.518
					c0.998-0.127,1.21,0.388,2.089,0.801C426.686,324.364,427.357,323.963,427.616,323.021z"/>
				<path style="fill:#407BFF;" d="M434.467,327.637c0.066-0.24,0.106-0.515,0.124-0.818c0.101-1.697,1.72-1.428,3.098-1.658
					c1.077-0.18-1.774-2.899,0.397-3.777c0.403-0.163,0.841-0.347,1.047-0.73c0.273-0.506-0.003-1.173-0.473-1.505
					c-0.469-0.332-1.073-0.402-1.648-0.413c-0.354-0.431-0.066-1.078,0.277-1.518c0.343-0.44,0.762-0.94,0.632-1.482
					c-0.196-0.818-1.34-0.848-2.166-0.689c-0.305-0.494-0.299-1.113-0.448-1.675c-0.148-0.562-0.595-1.152-1.172-1.082
					c-0.543,0.066-0.876,0.68-1.408,0.805c-0.619,0.146-1.155-0.401-1.64-0.812c-0.486-0.411-1.335-0.667-1.669-0.126
					c-0.2,0.324-0.08,0.775-0.288,1.094c-0.361,0.553-1.216,0.21-1.747-0.182c-0.531-0.392-1.377-0.747-1.75-0.203
					c-0.114,0.167-0.139,0.376-0.206,0.568c-0.251,0.725-1.035,1.086-1.645,1.551c-0.61,0.465-1.094,1.389-0.577,1.956
					c0.255,0.28,0.703,0.393,0.829,0.75c0.158,0.445-0.297,0.845-0.658,1.151c-0.6,0.51-0.708,2.036,0.084,2.454
					c0.333,0.175,0.821,0.229,0.903,0.596c0.073,0.328-0.26,0.584-0.482,0.837c-0.608,0.695-0.351,1.947,0.482,2.346
					c0.19,0.091,0.424,0.166,0.495,0.365c0.051,0.142-0.005,0.298-0.046,0.443c-0.077,0.275-0.103,0.565-0.076,0.85
					c0.009,0.097,0.029,0.203,0.103,0.267c0.067,0.058,0.163,0.067,0.251,0.071c1.145,0.051,1.697-0.354,2.396,0.642
					c0.067,0.096,0.137,0.194,0.238,0.253c0.095,0.055,0.207,0.07,0.316,0.079c0.787,0.065,1.302-0.426,2.021-0.518
					c0.998-0.127,1.21,0.388,2.089,0.801C433.537,328.98,434.207,328.579,434.467,327.637z"/>
				<path style="fill:#263238;" d="M432.39,333.47c0,0-2.865,4.051-3.853,5.335c-0.988,1.284-5.928,9.287-6.6,14.58
					c-0.072,0.565-0.142,1.051-0.211,1.476c2.125,14.025,1.791,39.684,1.716,44.077h-6.731c-0.062-4.953-0.634-50.235-0.845-51.618
					c-0.223-1.463-3.037-7.034-7.384-9.323c-4.347-2.289-8.104-9.863-8.104-9.863h1.385c0,0,2.569,4.643,6.224,7.212
					c0.531,0.373,1.081,0.684,1.645,0.975c-0.131-4.184,1.454-8.187,1.454-8.187l0.748,0.691c-1.01,4.136-0.877,6.785-0.571,8.306
					c1.227,0.615,2.5,1.327,3.78,2.53c3.792-4.931,5.924-16.207,5.924-16.207l0.971,0.53c0,0-0.316,3.063-1.254,6.916
					c-0.711,2.919-2.801,8.414-3.774,10.909c0.967,1.343,1.927,3.079,2.864,5.377c0.106-0.163,0.226-0.312,0.366-0.439
					c2.47-2.233,7.113-12.784,7.113-12.784c1.123-2.453-0.593-8.892-0.593-8.892h1.296l0.581,5.631l3.26-3.557l0.593,0.494
					l-3.458,4.446l-1.778,5.633l4.643-5.139L432.39,333.47z"/>
			</g>
			<path style="fill:#407BFF;" d="M425.596,398.939h-22.148c-0.312-1.039,0.494-2.286,1.371-2.461
				c1.078-0.216,2.162-2.113,2.213-3.321c0.051-1.208,1.992-4.923,5.011-2.629c3.019,2.294,2.101,0.338,4.285-0.307
				c2.184-0.645,3.561,1.21,2.603,2.601c0,0,2.194-0.55,3.098,1.499c0.904,2.049,0,3.321,0,3.321S424.802,397.561,425.596,398.939z"
				/>
		</g>
		<g>
			<path style="fill:#407BFF;" d="M369.373,399.516c0.096-0.786,0.053-1.932-0.921-2.254c-1.523-0.503-2.427-1.682-2.376-3.017
				c0.051-1.335-1.553-2.633-2.755-1.383s-1.042-0.962-2.646-1.499c-1.604-0.538-2.963,0.767-2.524,1.959
				c0.439,1.192-1.143,1.937-3.038,0.923c-1.895-1.014-3.98,0.83-3.579,2.274c0.401,1.443,0.073,1.604-1.126,1.123
				c-1.016-0.408-2.705,0.511-2.741,1.874H369.373z"/>
			<g>
				<path style="fill:#407BFF;" d="M346.894,351.275c-0.053-0.191-0.084-0.411-0.099-0.652c-0.08-1.352-1.371-1.138-2.47-1.322
					c-0.858-0.143,1.414-2.311-0.316-3.01c-0.321-0.13-0.671-0.277-0.835-0.582c-0.217-0.404,0.003-0.935,0.377-1.199
					c0.374-0.265,0.855-0.321,1.313-0.329c0.282-0.343,0.053-0.859-0.22-1.21c-0.273-0.35-0.607-0.749-0.504-1.181
					c0.156-0.652,1.068-0.676,1.727-0.549c0.243-0.394,0.239-0.887,0.357-1.335c0.118-0.448,0.474-0.918,0.934-0.862
					c0.433,0.053,0.698,0.542,1.123,0.642c0.493,0.116,0.92-0.32,1.307-0.647c0.387-0.327,1.064-0.531,1.33-0.1
					c0.16,0.258,0.064,0.618,0.23,0.872c0.287,0.44,0.969,0.167,1.392-0.145c0.423-0.312,1.097-0.595,1.395-0.162
					c0.091,0.133,0.111,0.3,0.164,0.452c0.2,0.578,0.825,0.865,1.311,1.236c0.486,0.371,0.872,1.107,0.46,1.559
					c-0.203,0.223-0.56,0.313-0.661,0.598c-0.126,0.355,0.237,0.673,0.524,0.918c0.478,0.407,0.565,1.623-0.067,1.956
					c-0.265,0.14-0.654,0.182-0.719,0.475c-0.058,0.262,0.207,0.465,0.384,0.667c0.485,0.554,0.28,1.552-0.384,1.87
					c-0.152,0.073-0.338,0.132-0.394,0.291c-0.04,0.114,0.004,0.237,0.036,0.353c0.062,0.22,0.082,0.45,0.061,0.677
					c-0.007,0.078-0.023,0.162-0.082,0.213c-0.054,0.046-0.13,0.053-0.2,0.056c-0.913,0.041-1.353-0.282-1.91,0.512
					c-0.054,0.076-0.11,0.155-0.19,0.202c-0.075,0.044-0.165,0.056-0.252,0.063c-0.627,0.052-1.038-0.34-1.611-0.413
					c-0.796-0.101-0.964,0.309-1.665,0.638C347.636,352.346,347.101,352.026,346.894,351.275z"/>
				<path style="fill:#407BFF;" d="M357.405,350.14c-0.053-0.191-0.084-0.41-0.099-0.652c-0.08-1.352-1.371-1.138-2.47-1.321
					c-0.858-0.143,1.414-2.311-0.316-3.01c-0.321-0.13-0.671-0.277-0.835-0.582c-0.217-0.404,0.003-0.935,0.377-1.2
					c0.374-0.265,0.855-0.321,1.314-0.329c0.282-0.343,0.053-0.859-0.22-1.21s-0.607-0.749-0.504-1.181
					c0.156-0.652,1.068-0.676,1.727-0.549c0.243-0.394,0.239-0.887,0.357-1.335c0.118-0.448,0.474-0.918,0.934-0.862
					c0.433,0.053,0.698,0.542,1.123,0.642c0.493,0.116,0.92-0.32,1.307-0.647c0.387-0.327,1.064-0.531,1.33-0.1
					c0.16,0.258,0.064,0.618,0.23,0.872c0.287,0.44,0.969,0.167,1.392-0.145c0.423-0.312,1.097-0.595,1.395-0.162
					c0.091,0.133,0.111,0.3,0.164,0.452c0.2,0.578,0.825,0.865,1.311,1.236c0.486,0.371,0.872,1.107,0.46,1.559
					c-0.203,0.223-0.56,0.313-0.661,0.598c-0.126,0.355,0.237,0.673,0.524,0.918c0.478,0.407,0.565,1.623-0.067,1.956
					c-0.265,0.14-0.654,0.183-0.719,0.475c-0.058,0.262,0.207,0.465,0.384,0.667c0.485,0.554,0.279,1.552-0.384,1.87
					c-0.152,0.073-0.338,0.132-0.394,0.291c-0.04,0.113,0.004,0.237,0.036,0.353c0.062,0.219,0.082,0.45,0.061,0.677
					c-0.007,0.078-0.023,0.162-0.082,0.213c-0.054,0.046-0.13,0.053-0.2,0.056c-0.913,0.041-1.353-0.282-1.91,0.512
					c-0.053,0.076-0.109,0.155-0.19,0.202c-0.075,0.044-0.165,0.056-0.252,0.063c-0.627,0.052-1.038-0.34-1.611-0.413
					c-0.796-0.101-0.964,0.309-1.665,0.638C358.147,351.21,357.612,350.891,357.405,350.14z"/>
				<path style="fill:#407BFF;" d="M358.418,343.446c-0.053-0.191-0.084-0.411-0.099-0.652c-0.08-1.352-1.371-1.138-2.47-1.322
					c-0.858-0.143,1.414-2.311-0.316-3.01c-0.321-0.13-0.671-0.277-0.835-0.582c-0.217-0.404,0.003-0.935,0.377-1.2
					c0.374-0.265,0.855-0.321,1.313-0.329c0.282-0.343,0.053-0.859-0.22-1.21c-0.273-0.35-0.608-0.749-0.504-1.181
					c0.156-0.652,1.068-0.676,1.727-0.549c0.243-0.394,0.239-0.887,0.357-1.335c0.118-0.448,0.474-0.918,0.934-0.862
					c0.433,0.053,0.698,0.542,1.122,0.642c0.493,0.116,0.92-0.32,1.307-0.647c0.387-0.327,1.064-0.531,1.33-0.1
					c0.16,0.258,0.064,0.618,0.23,0.872c0.287,0.44,0.969,0.167,1.392-0.145c0.423-0.312,1.097-0.595,1.395-0.162
					c0.091,0.133,0.111,0.3,0.164,0.452c0.2,0.578,0.825,0.865,1.311,1.236c0.486,0.37,0.872,1.107,0.46,1.559
					c-0.203,0.223-0.56,0.313-0.661,0.598c-0.126,0.355,0.237,0.674,0.524,0.918c0.478,0.407,0.565,1.623-0.067,1.956
					c-0.265,0.14-0.654,0.182-0.72,0.475c-0.058,0.262,0.207,0.465,0.384,0.667c0.485,0.554,0.279,1.552-0.384,1.87
					c-0.152,0.073-0.338,0.132-0.395,0.291c-0.04,0.114,0.004,0.237,0.036,0.353c0.062,0.219,0.082,0.45,0.061,0.677
					c-0.007,0.078-0.023,0.162-0.082,0.212c-0.054,0.046-0.13,0.053-0.2,0.056c-0.913,0.041-1.353-0.282-1.91,0.512
					c-0.054,0.076-0.11,0.155-0.19,0.202c-0.075,0.044-0.165,0.056-0.252,0.063c-0.627,0.052-1.038-0.34-1.611-0.413
					c-0.796-0.101-0.964,0.309-1.665,0.638C359.16,344.516,358.625,344.197,358.418,343.446z"/>
				<path style="fill:#407BFF;" d="M365.342,346.78c-0.053-0.191-0.084-0.41-0.098-0.652c-0.08-1.352-1.371-1.138-2.47-1.321
					c-0.858-0.143,1.414-2.311-0.316-3.01c-0.321-0.13-0.671-0.277-0.835-0.582c-0.217-0.404,0.003-0.935,0.377-1.199
					c0.374-0.265,0.855-0.321,1.314-0.329c0.282-0.343,0.053-0.859-0.22-1.21s-0.608-0.749-0.504-1.181
					c0.156-0.652,1.068-0.676,1.727-0.549c0.243-0.394,0.239-0.887,0.357-1.335s0.474-0.918,0.934-0.862
					c0.433,0.053,0.698,0.542,1.123,0.642c0.493,0.116,0.92-0.32,1.307-0.647c0.387-0.327,1.064-0.531,1.33-0.1
					c0.16,0.258,0.064,0.618,0.23,0.872c0.287,0.44,0.969,0.167,1.392-0.145c0.423-0.312,1.097-0.595,1.395-0.161
					c0.091,0.133,0.111,0.3,0.164,0.452c0.2,0.578,0.825,0.865,1.311,1.236c0.486,0.37,0.872,1.107,0.46,1.559
					c-0.203,0.223-0.56,0.313-0.661,0.598c-0.126,0.355,0.237,0.674,0.524,0.918c0.478,0.407,0.565,1.623-0.067,1.956
					c-0.265,0.14-0.655,0.183-0.72,0.475c-0.058,0.262,0.207,0.465,0.384,0.667c0.485,0.554,0.28,1.552-0.384,1.87
					c-0.152,0.073-0.338,0.132-0.394,0.291c-0.04,0.113,0.004,0.237,0.036,0.353c0.062,0.219,0.082,0.45,0.061,0.677
					c-0.007,0.078-0.023,0.162-0.082,0.213c-0.054,0.046-0.13,0.053-0.2,0.056c-0.913,0.041-1.353-0.282-1.91,0.512
					c-0.053,0.076-0.11,0.155-0.19,0.202c-0.075,0.044-0.165,0.056-0.252,0.063c-0.628,0.052-1.038-0.34-1.611-0.413
					c-0.796-0.101-0.964,0.309-1.665,0.638C366.084,347.85,365.549,347.531,365.342,346.78z"/>
				<path style="fill:#407BFF;" d="M372.34,345.24c-0.053-0.191-0.084-0.41-0.098-0.652c-0.08-1.352-1.371-1.138-2.47-1.321
					c-0.858-0.143,1.414-2.311-0.316-3.01c-0.321-0.13-0.671-0.277-0.835-0.582c-0.217-0.404,0.003-0.935,0.377-1.199
					c0.374-0.265,0.855-0.321,1.313-0.329c0.282-0.343,0.053-0.859-0.22-1.21c-0.273-0.35-0.608-0.749-0.504-1.181
					c0.156-0.652,1.068-0.676,1.726-0.549c0.243-0.394,0.239-0.887,0.357-1.335c0.118-0.448,0.474-0.918,0.934-0.862
					c0.433,0.053,0.698,0.542,1.123,0.642c0.493,0.116,0.92-0.32,1.307-0.647c0.387-0.327,1.064-0.531,1.33-0.1
					c0.16,0.258,0.064,0.618,0.23,0.872c0.287,0.44,0.969,0.167,1.392-0.145c0.423-0.312,1.097-0.595,1.395-0.162
					c0.091,0.133,0.111,0.3,0.164,0.452c0.2,0.578,0.825,0.865,1.311,1.236s0.872,1.107,0.46,1.559
					c-0.203,0.223-0.56,0.314-0.661,0.598c-0.126,0.355,0.237,0.673,0.524,0.918c0.478,0.407,0.565,1.623-0.067,1.956
					c-0.265,0.14-0.654,0.182-0.72,0.475c-0.058,0.262,0.207,0.465,0.384,0.667c0.485,0.554,0.279,1.552-0.385,1.87
					c-0.152,0.073-0.338,0.132-0.394,0.291c-0.04,0.114,0.004,0.237,0.036,0.353c0.062,0.219,0.082,0.45,0.061,0.677
					c-0.007,0.078-0.023,0.162-0.082,0.213c-0.054,0.046-0.13,0.053-0.2,0.056c-0.913,0.041-1.353-0.282-1.91,0.512
					c-0.054,0.076-0.11,0.155-0.19,0.202c-0.075,0.044-0.165,0.056-0.252,0.063c-0.627,0.052-1.037-0.34-1.611-0.413
					c-0.796-0.101-0.964,0.309-1.665,0.638C373.082,346.31,372.547,345.991,372.34,345.24z"/>
				<path style="fill:#407BFF;" d="M372.431,352.725c-0.042-0.151-0.066-0.323-0.077-0.513c-0.063-1.065-1.08-0.896-1.945-1.04
					c-0.676-0.113,1.113-1.82-0.249-2.37c-0.253-0.102-0.528-0.218-0.657-0.458c-0.171-0.318,0.002-0.736,0.297-0.945
					c0.295-0.208,0.673-0.253,1.034-0.259c0.222-0.27,0.041-0.677-0.174-0.953c-0.215-0.276-0.478-0.59-0.397-0.93
					c0.123-0.514,0.841-0.532,1.359-0.432c0.192-0.31,0.188-0.698,0.281-1.051c0.093-0.353,0.374-0.723,0.736-0.679
					c0.341,0.042,0.549,0.427,0.884,0.505c0.388,0.092,0.725-0.252,1.029-0.51c0.305-0.258,0.838-0.418,1.047-0.079
					c0.126,0.203,0.05,0.486,0.181,0.686c0.226,0.347,0.763,0.132,1.096-0.114c0.333-0.246,0.864-0.469,1.098-0.127
					c0.072,0.105,0.088,0.236,0.129,0.356c0.158,0.455,0.649,0.681,1.032,0.973c0.383,0.292,0.686,0.872,0.362,1.228
					c-0.16,0.176-0.441,0.247-0.521,0.471c-0.099,0.28,0.186,0.53,0.413,0.723c0.376,0.32,0.445,1.278-0.053,1.54
					c-0.209,0.11-0.515,0.144-0.566,0.374c-0.046,0.206,0.163,0.366,0.302,0.525c0.382,0.436,0.22,1.222-0.303,1.473
					c-0.12,0.057-0.266,0.104-0.311,0.229c-0.032,0.089,0.003,0.187,0.029,0.278c0.049,0.173,0.065,0.355,0.048,0.533
					c-0.006,0.061-0.018,0.127-0.065,0.167c-0.042,0.036-0.102,0.042-0.158,0.044c-0.719,0.032-1.065-0.222-1.504,0.403
					c-0.042,0.06-0.086,0.122-0.15,0.159c-0.059,0.035-0.13,0.044-0.198,0.049c-0.494,0.041-0.817-0.268-1.268-0.325
					c-0.626-0.08-0.759,0.243-1.311,0.503C373.015,353.568,372.594,353.317,372.431,352.725z"/>
				<path style="fill:#407BFF;" d="M376.353,350.14c-0.053-0.191-0.084-0.41-0.099-0.652c-0.08-1.352-1.371-1.138-2.47-1.321
					c-0.858-0.143,1.414-2.311-0.316-3.01c-0.321-0.13-0.671-0.277-0.835-0.582c-0.217-0.404,0.002-0.935,0.377-1.2
					c0.374-0.265,0.855-0.321,1.314-0.329c0.282-0.343,0.053-0.859-0.22-1.21s-0.608-0.749-0.504-1.181
					c0.156-0.652,1.068-0.676,1.727-0.549c0.243-0.394,0.239-0.887,0.357-1.335c0.118-0.448,0.474-0.918,0.934-0.862
					c0.433,0.053,0.698,0.542,1.123,0.642c0.493,0.116,0.92-0.32,1.307-0.647c0.387-0.327,1.064-0.531,1.33-0.1
					c0.16,0.258,0.064,0.618,0.23,0.872c0.287,0.44,0.969,0.167,1.392-0.145c0.423-0.312,1.097-0.595,1.395-0.162
					c0.091,0.133,0.111,0.3,0.164,0.452c0.2,0.578,0.825,0.865,1.311,1.236c0.486,0.371,0.872,1.107,0.46,1.559
					c-0.203,0.223-0.56,0.313-0.661,0.598c-0.126,0.355,0.237,0.673,0.524,0.918c0.478,0.407,0.565,1.623-0.067,1.956
					c-0.265,0.14-0.654,0.183-0.72,0.475c-0.058,0.262,0.207,0.465,0.384,0.667c0.485,0.554,0.28,1.552-0.384,1.87
					c-0.152,0.073-0.338,0.132-0.394,0.291c-0.04,0.113,0.004,0.237,0.036,0.353c0.062,0.219,0.082,0.45,0.061,0.677
					c-0.007,0.078-0.023,0.162-0.082,0.213c-0.054,0.046-0.13,0.053-0.2,0.056c-0.913,0.041-1.353-0.282-1.91,0.512
					c-0.053,0.076-0.109,0.155-0.19,0.202c-0.075,0.044-0.165,0.056-0.252,0.063c-0.627,0.052-1.038-0.34-1.611-0.413
					c-0.796-0.101-0.964,0.309-1.665,0.638C377.094,351.21,376.56,350.891,376.353,350.14z"/>
				<path style="fill:#407BFF;" d="M365.342,338.546c-0.053-0.191-0.084-0.41-0.098-0.652c-0.08-1.352-1.371-1.138-2.47-1.322
					c-0.858-0.143,1.414-2.311-0.316-3.01c-0.321-0.13-0.671-0.277-0.835-0.582c-0.217-0.404,0.003-0.935,0.377-1.199
					c0.374-0.265,0.855-0.321,1.314-0.329c0.282-0.343,0.053-0.859-0.22-1.21c-0.273-0.35-0.608-0.749-0.504-1.181
					c0.156-0.652,1.068-0.676,1.727-0.549c0.243-0.394,0.239-0.887,0.357-1.335c0.118-0.448,0.474-0.918,0.934-0.862
					c0.433,0.053,0.698,0.542,1.123,0.642c0.493,0.116,0.92-0.32,1.307-0.647c0.387-0.327,1.064-0.531,1.33-0.1
					c0.16,0.258,0.064,0.618,0.23,0.872c0.287,0.44,0.969,0.167,1.392-0.145c0.423-0.312,1.097-0.595,1.395-0.162
					c0.091,0.133,0.111,0.3,0.164,0.452c0.2,0.578,0.825,0.865,1.311,1.236c0.486,0.371,0.872,1.107,0.46,1.559
					c-0.203,0.223-0.56,0.313-0.661,0.598c-0.126,0.355,0.237,0.673,0.524,0.918c0.478,0.407,0.565,1.623-0.067,1.956
					c-0.265,0.14-0.655,0.183-0.72,0.475c-0.058,0.262,0.207,0.465,0.384,0.667c0.485,0.554,0.28,1.552-0.384,1.87
					c-0.152,0.073-0.338,0.132-0.394,0.291c-0.04,0.114,0.004,0.237,0.036,0.353c0.062,0.22,0.082,0.45,0.061,0.677
					c-0.007,0.078-0.023,0.162-0.082,0.212c-0.054,0.046-0.13,0.053-0.2,0.057c-0.913,0.041-1.353-0.282-1.91,0.512
					c-0.053,0.076-0.11,0.155-0.19,0.202c-0.075,0.044-0.165,0.056-0.252,0.063c-0.628,0.052-1.038-0.34-1.611-0.413
					c-0.796-0.101-0.964,0.309-1.665,0.638C366.084,339.616,365.549,339.297,365.342,338.546z"/>
				<path style="fill:#407BFF;" d="M356.352,339.006c-0.053-0.191-0.084-0.41-0.098-0.652c-0.08-1.352-1.371-1.138-2.47-1.322
					c-0.858-0.143,1.414-2.311-0.316-3.01c-0.321-0.13-0.671-0.277-0.835-0.582c-0.217-0.404,0.003-0.935,0.377-1.199
					c0.374-0.265,0.855-0.321,1.313-0.329c0.282-0.343,0.053-0.859-0.22-1.21c-0.273-0.35-0.608-0.749-0.504-1.181
					c0.156-0.652,1.068-0.676,1.727-0.549c0.243-0.394,0.239-0.887,0.357-1.335c0.118-0.448,0.474-0.918,0.934-0.862
					c0.433,0.053,0.698,0.542,1.123,0.642c0.493,0.116,0.92-0.32,1.307-0.647c0.387-0.327,1.064-0.531,1.33-0.1
					c0.16,0.258,0.064,0.618,0.23,0.872c0.287,0.44,0.969,0.167,1.392-0.145c0.423-0.312,1.097-0.595,1.395-0.162
					c0.091,0.133,0.111,0.3,0.164,0.452c0.2,0.578,0.825,0.865,1.311,1.236c0.486,0.37,0.872,1.107,0.46,1.559
					c-0.203,0.223-0.56,0.313-0.661,0.598c-0.126,0.355,0.237,0.673,0.524,0.918c0.478,0.407,0.565,1.623-0.067,1.956
					c-0.265,0.14-0.654,0.183-0.72,0.475c-0.058,0.262,0.207,0.465,0.384,0.667c0.485,0.554,0.279,1.552-0.385,1.87
					c-0.152,0.073-0.338,0.132-0.394,0.291c-0.04,0.114,0.004,0.237,0.036,0.353c0.062,0.22,0.082,0.45,0.061,0.677
					c-0.007,0.078-0.023,0.162-0.082,0.212c-0.054,0.046-0.13,0.053-0.2,0.056c-0.913,0.041-1.353-0.282-1.91,0.512
					c-0.054,0.076-0.11,0.155-0.19,0.202c-0.075,0.044-0.165,0.056-0.252,0.063c-0.627,0.052-1.037-0.34-1.611-0.413
					c-0.796-0.101-0.964,0.309-1.665,0.638C357.094,340.076,356.56,339.757,356.352,339.006z"/>
				<path style="fill:#407BFF;" d="M350.892,342.685c-0.053-0.191-0.084-0.41-0.099-0.652c-0.08-1.352-1.371-1.138-2.47-1.321
					c-0.858-0.143,1.414-2.311-0.316-3.01c-0.321-0.13-0.671-0.277-0.835-0.582c-0.217-0.404,0.003-0.935,0.377-1.199
					c0.374-0.265,0.855-0.321,1.313-0.329c0.282-0.343,0.053-0.859-0.22-1.21c-0.273-0.35-0.608-0.749-0.504-1.181
					c0.156-0.652,1.068-0.676,1.727-0.549c0.243-0.394,0.239-0.887,0.357-1.335c0.118-0.448,0.474-0.918,0.934-0.862
					c0.433,0.053,0.698,0.542,1.122,0.642c0.493,0.116,0.92-0.32,1.307-0.647c0.387-0.327,1.064-0.531,1.33-0.1
					c0.16,0.258,0.064,0.618,0.23,0.872c0.287,0.44,0.969,0.167,1.392-0.145c0.423-0.312,1.097-0.595,1.395-0.162
					c0.091,0.133,0.111,0.3,0.164,0.452c0.2,0.578,0.825,0.865,1.311,1.236c0.486,0.371,0.872,1.107,0.46,1.559
					c-0.203,0.223-0.56,0.313-0.661,0.598c-0.126,0.355,0.237,0.673,0.524,0.918c0.478,0.407,0.565,1.623-0.067,1.956
					c-0.265,0.14-0.654,0.183-0.719,0.475c-0.058,0.262,0.207,0.465,0.384,0.667c0.485,0.554,0.28,1.552-0.384,1.87
					c-0.152,0.073-0.338,0.132-0.394,0.291c-0.04,0.113,0.004,0.237,0.036,0.353c0.062,0.22,0.082,0.45,0.061,0.677
					c-0.007,0.078-0.023,0.162-0.082,0.212c-0.054,0.046-0.13,0.053-0.2,0.056c-0.913,0.041-1.353-0.282-1.91,0.512
					c-0.054,0.076-0.11,0.155-0.19,0.202c-0.075,0.044-0.165,0.056-0.252,0.063c-0.627,0.052-1.038-0.34-1.611-0.413
					c-0.796-0.101-0.964,0.309-1.665,0.638C351.633,343.755,351.099,343.436,350.892,342.685z"/>
				<path style="fill:#263238;" d="M352.547,347.335c0,0,2.284,3.229,3.071,4.252c0.787,1.024,4.725,7.402,5.26,11.621
					c0.057,0.45,0.114,0.838,0.169,1.177c-1.694,11.178-1.428,31.63-1.368,35.131h5.365c0.049-3.948,0.505-40.039,0.674-41.142
					c0.178-1.166,2.421-5.606,5.886-7.431c3.465-1.824,6.459-7.861,6.459-7.861h-1.104c0,0-2.047,3.701-4.961,5.748
					c-0.423,0.297-0.861,0.545-1.311,0.777c0.104-3.335-1.159-6.526-1.159-6.526l-0.596,0.551c0.805,3.296,0.699,5.407,0.456,6.62
					c-0.978,0.49-1.992,1.057-3.013,2.016c-3.022-3.93-4.722-12.918-4.722-12.918l-0.774,0.423c0,0,0.252,2.441,0.999,5.512
					c0.566,2.326,2.233,6.706,3.008,8.695c-0.771,1.07-1.536,2.454-2.283,4.285c-0.085-0.13-0.18-0.249-0.292-0.35
					c-1.969-1.78-5.67-10.189-5.67-10.189c-0.895-1.955,0.472-7.087,0.472-7.087h-1.033l-0.463,4.488l-2.599-2.835l-0.473,0.394
					l2.756,3.544l1.417,4.49l-3.701-4.096L352.547,347.335z"/>
			</g>
			<path style="fill:#407BFF;" d="M357.963,399.516h17.653c0.248-0.828-0.394-1.822-1.093-1.962
				c-0.859-0.172-1.723-1.684-1.764-2.647c-0.041-0.963-1.588-3.924-3.994-2.095c-2.406,1.829-1.675,0.269-3.416-0.244
				c-1.741-0.514-2.839,0.964-2.075,2.073c0,0-1.749-0.438-2.469,1.194c-0.72,1.633,0,2.647,0,2.647
				S358.595,398.418,357.963,399.516z"/>
		</g>
		<g>
			<path style="fill:#407BFF;" d="M93.723,401.931c0.12-0.986,0.067-2.424-1.156-2.827c-1.912-0.63-3.045-2.111-2.981-3.785
				c0.064-1.674-1.948-3.304-3.457-1.734c-1.509,1.569-1.308-1.207-3.32-1.881c-2.012-0.674-3.718,0.962-3.167,2.458
				c0.551,1.496-1.434,2.43-3.812,1.158c-2.377-1.272-4.993,1.042-4.49,2.853c0.503,1.811,0.091,2.012-1.413,1.409
				c-1.275-0.512-3.394,0.641-3.439,2.351H93.723z"/>
			<g>
				<path style="fill:#407BFF;" d="M104.273,341.407c0.066-0.24,0.106-0.515,0.124-0.818c0.101-1.697,1.72-1.428,3.098-1.658
					c1.076-0.18-1.774-2.899,0.397-3.777c0.403-0.163,0.841-0.347,1.047-0.73c0.273-0.506-0.003-1.173-0.473-1.505
					c-0.47-0.332-1.073-0.402-1.648-0.413c-0.354-0.43-0.066-1.078,0.276-1.518c0.343-0.44,0.762-0.94,0.632-1.482
					c-0.196-0.818-1.34-0.848-2.166-0.689c-0.305-0.494-0.299-1.113-0.448-1.675c-0.148-0.562-0.595-1.152-1.172-1.081
					c-0.544,0.066-0.876,0.68-1.409,0.805c-0.619,0.146-1.155-0.401-1.64-0.812c-0.486-0.411-1.335-0.667-1.669-0.126
					c-0.2,0.324-0.08,0.775-0.288,1.094c-0.361,0.552-1.216,0.21-1.747-0.182c-0.531-0.392-1.377-0.747-1.75-0.203
					c-0.114,0.167-0.14,0.376-0.206,0.568c-0.251,0.725-1.035,1.086-1.645,1.551c-0.61,0.465-1.094,1.389-0.577,1.956
					c0.255,0.28,0.703,0.393,0.83,0.75c0.158,0.445-0.297,0.845-0.658,1.151c-0.6,0.51-0.709,2.036,0.084,2.454
					c0.333,0.175,0.821,0.229,0.903,0.596c0.073,0.328-0.26,0.584-0.482,0.837c-0.608,0.695-0.351,1.947,0.482,2.346
					c0.19,0.091,0.424,0.166,0.495,0.365c0.051,0.142-0.005,0.298-0.045,0.443c-0.077,0.275-0.103,0.565-0.076,0.85
					c0.009,0.097,0.029,0.203,0.103,0.267c0.067,0.058,0.163,0.067,0.251,0.071c1.145,0.051,1.698-0.354,2.396,0.642
					c0.067,0.096,0.137,0.194,0.239,0.253c0.095,0.055,0.207,0.07,0.316,0.079c0.787,0.065,1.302-0.426,2.021-0.518
					c0.998-0.127,1.21,0.387,2.089,0.801C103.342,342.75,104.013,342.349,104.273,341.407z"/>
				<path style="fill:#407BFF;" d="M91.085,339.982c0.066-0.24,0.106-0.515,0.124-0.818c0.101-1.697,1.72-1.428,3.098-1.658
					c1.076-0.18-1.774-2.899,0.397-3.777c0.403-0.163,0.841-0.347,1.047-0.73c0.273-0.506-0.003-1.173-0.473-1.505
					c-0.47-0.332-1.073-0.402-1.648-0.413c-0.354-0.43-0.066-1.078,0.276-1.518c0.343-0.44,0.762-0.94,0.632-1.482
					c-0.196-0.818-1.34-0.848-2.166-0.689c-0.305-0.494-0.299-1.113-0.448-1.675c-0.148-0.562-0.595-1.152-1.172-1.081
					c-0.544,0.066-0.876,0.68-1.409,0.805c-0.619,0.146-1.155-0.401-1.64-0.812c-0.486-0.411-1.335-0.667-1.669-0.126
					c-0.2,0.324-0.08,0.775-0.288,1.094c-0.361,0.552-1.216,0.21-1.747-0.182c-0.531-0.392-1.377-0.747-1.75-0.203
					c-0.114,0.167-0.14,0.377-0.206,0.568c-0.251,0.725-1.035,1.086-1.645,1.551c-0.61,0.465-1.094,1.389-0.577,1.956
					c0.255,0.28,0.703,0.393,0.83,0.75c0.158,0.445-0.297,0.845-0.658,1.151c-0.6,0.51-0.709,2.036,0.084,2.454
					c0.333,0.175,0.821,0.229,0.903,0.596c0.073,0.328-0.26,0.584-0.481,0.837c-0.608,0.695-0.351,1.947,0.482,2.346
					c0.19,0.091,0.424,0.166,0.495,0.365c0.05,0.142-0.005,0.298-0.045,0.443c-0.077,0.275-0.103,0.565-0.076,0.85
					c0.009,0.097,0.029,0.203,0.103,0.267c0.067,0.058,0.163,0.067,0.251,0.071c1.145,0.051,1.697-0.354,2.396,0.642
					c0.067,0.096,0.137,0.194,0.239,0.253c0.094,0.055,0.207,0.07,0.316,0.079c0.787,0.065,1.302-0.427,2.021-0.518
					c0.998-0.127,1.21,0.387,2.089,0.801C90.155,341.325,90.825,340.924,91.085,339.982z"/>
				<path style="fill:#407BFF;" d="M89.814,331.583c0.066-0.24,0.106-0.515,0.124-0.818c0.101-1.697,1.721-1.428,3.099-1.658
					c1.076-0.18-1.774-2.899,0.397-3.777c0.403-0.163,0.841-0.347,1.047-0.73c0.273-0.506-0.003-1.173-0.473-1.505
					c-0.469-0.332-1.073-0.402-1.648-0.413c-0.354-0.43-0.066-1.078,0.277-1.518c0.343-0.44,0.762-0.94,0.632-1.482
					c-0.196-0.818-1.34-0.848-2.166-0.689c-0.305-0.494-0.299-1.113-0.448-1.675c-0.148-0.562-0.595-1.152-1.172-1.081
					c-0.543,0.066-0.876,0.68-1.408,0.805c-0.619,0.146-1.155-0.402-1.64-0.812c-0.485-0.411-1.334-0.667-1.669-0.126
					c-0.2,0.324-0.08,0.775-0.288,1.094c-0.361,0.553-1.216,0.21-1.747-0.182c-0.531-0.392-1.377-0.747-1.75-0.203
					c-0.114,0.167-0.14,0.377-0.206,0.568c-0.251,0.725-1.035,1.086-1.645,1.551c-0.61,0.465-1.094,1.389-0.577,1.957
					c0.255,0.28,0.703,0.393,0.829,0.75c0.158,0.446-0.297,0.845-0.658,1.151c-0.6,0.51-0.708,2.037,0.084,2.454
					c0.333,0.175,0.821,0.229,0.903,0.596c0.073,0.328-0.26,0.584-0.482,0.837c-0.608,0.695-0.351,1.947,0.482,2.346
					c0.191,0.091,0.424,0.166,0.495,0.365c0.05,0.142-0.005,0.298-0.046,0.443c-0.077,0.275-0.103,0.565-0.076,0.85
					c0.009,0.097,0.029,0.203,0.103,0.267c0.067,0.058,0.163,0.067,0.251,0.071c1.145,0.051,1.697-0.354,2.396,0.642
					c0.067,0.096,0.137,0.194,0.238,0.253c0.095,0.055,0.207,0.07,0.316,0.079c0.787,0.065,1.302-0.427,2.021-0.518
					c0.998-0.127,1.21,0.387,2.089,0.801C88.884,332.926,89.554,332.526,89.814,331.583z"/>
				<path style="fill:#407BFF;" d="M81.127,335.767c0.066-0.24,0.106-0.515,0.124-0.818c0.101-1.697,1.72-1.428,3.098-1.658
					c1.076-0.18-1.774-2.899,0.397-3.777c0.403-0.163,0.841-0.347,1.047-0.73c0.273-0.506-0.003-1.173-0.473-1.505
					c-0.469-0.332-1.073-0.403-1.648-0.413c-0.354-0.431-0.066-1.078,0.276-1.518c0.343-0.44,0.762-0.94,0.632-1.482
					c-0.196-0.818-1.34-0.848-2.166-0.689c-0.305-0.495-0.299-1.113-0.448-1.675c-0.148-0.562-0.595-1.152-1.172-1.082
					c-0.544,0.066-0.876,0.68-1.408,0.805c-0.619,0.146-1.155-0.401-1.64-0.812c-0.486-0.411-1.335-0.667-1.669-0.126
					c-0.2,0.324-0.08,0.775-0.288,1.094c-0.361,0.553-1.216,0.21-1.747-0.182c-0.531-0.392-1.377-0.747-1.75-0.203
					c-0.114,0.167-0.14,0.376-0.206,0.568c-0.251,0.725-1.035,1.086-1.645,1.551c-0.61,0.465-1.094,1.389-0.577,1.956
					c0.255,0.28,0.703,0.393,0.829,0.75c0.158,0.446-0.297,0.845-0.658,1.151c-0.6,0.51-0.709,2.037,0.084,2.454
					c0.333,0.175,0.821,0.229,0.903,0.596c0.073,0.328-0.26,0.584-0.482,0.837c-0.608,0.695-0.351,1.947,0.482,2.346
					c0.19,0.091,0.424,0.166,0.495,0.365c0.05,0.142-0.005,0.298-0.045,0.443c-0.077,0.275-0.103,0.565-0.076,0.85
					c0.009,0.097,0.029,0.203,0.104,0.267c0.067,0.058,0.163,0.067,0.251,0.071c1.145,0.051,1.697-0.354,2.396,0.642
					c0.067,0.096,0.137,0.194,0.238,0.253c0.095,0.055,0.207,0.07,0.316,0.079c0.787,0.065,1.302-0.426,2.021-0.518
					c0.998-0.127,1.21,0.387,2.089,0.801C80.197,337.11,80.867,336.709,81.127,335.767z"/>
				<path style="fill:#407BFF;" d="M72.347,333.835c0.066-0.24,0.106-0.515,0.124-0.818c0.101-1.697,1.72-1.428,3.098-1.658
					c1.076-0.18-1.774-2.899,0.397-3.777c0.403-0.163,0.841-0.347,1.047-0.73c0.273-0.506-0.003-1.173-0.473-1.505
					c-0.469-0.332-1.073-0.402-1.648-0.413c-0.354-0.431-0.066-1.078,0.276-1.518c0.343-0.44,0.762-0.94,0.632-1.482
					c-0.196-0.818-1.34-0.848-2.166-0.689c-0.305-0.495-0.299-1.113-0.448-1.675c-0.148-0.562-0.595-1.152-1.172-1.082
					c-0.543,0.066-0.875,0.68-1.408,0.805c-0.619,0.146-1.155-0.401-1.64-0.812c-0.486-0.41-1.335-0.667-1.669-0.126
					c-0.2,0.324-0.08,0.775-0.288,1.094c-0.361,0.553-1.216,0.21-1.747-0.182c-0.531-0.392-1.377-0.747-1.75-0.203
					c-0.114,0.167-0.14,0.376-0.206,0.568c-0.251,0.725-1.035,1.086-1.645,1.551c-0.61,0.465-1.094,1.389-0.577,1.956
					c0.255,0.28,0.703,0.393,0.829,0.75c0.158,0.446-0.297,0.845-0.657,1.151c-0.6,0.51-0.708,2.036,0.084,2.454
					c0.333,0.175,0.821,0.229,0.903,0.596c0.073,0.328-0.26,0.584-0.482,0.837c-0.608,0.695-0.351,1.947,0.482,2.346
					c0.19,0.091,0.424,0.166,0.495,0.365c0.05,0.142-0.005,0.297-0.046,0.443c-0.077,0.275-0.103,0.565-0.076,0.85
					c0.009,0.098,0.029,0.203,0.104,0.267c0.067,0.058,0.163,0.067,0.251,0.071c1.145,0.051,1.698-0.354,2.396,0.642
					c0.067,0.096,0.137,0.194,0.239,0.253c0.095,0.055,0.207,0.07,0.316,0.079c0.787,0.065,1.302-0.426,2.021-0.518
					c0.998-0.127,1.21,0.387,2.089,0.801C71.417,335.177,72.087,334.777,72.347,333.835z"/>
				<path style="fill:#407BFF;" d="M72.233,343.226c0.052-0.189,0.083-0.406,0.097-0.644c0.079-1.336,1.355-1.124,2.44-1.305
					c0.848-0.142-1.397-2.283,0.312-2.974c0.317-0.128,0.662-0.273,0.825-0.575c0.215-0.399-0.003-0.923-0.372-1.185
					c-0.37-0.262-0.845-0.317-1.298-0.325c-0.279-0.339-0.052-0.849,0.218-1.195c0.27-0.346,0.6-0.74,0.498-1.167
					c-0.154-0.644-1.055-0.667-1.706-0.542c-0.241-0.389-0.236-0.876-0.352-1.319c-0.117-0.443-0.469-0.907-0.923-0.852
					c-0.428,0.052-0.689,0.535-1.109,0.634c-0.487,0.115-0.909-0.316-1.292-0.639c-0.382-0.323-1.051-0.525-1.314-0.099
					c-0.158,0.255-0.063,0.61-0.227,0.861c-0.284,0.435-0.957,0.165-1.375-0.143s-1.084-0.588-1.378-0.16
					c-0.09,0.131-0.11,0.297-0.162,0.447c-0.198,0.571-0.815,0.855-1.295,1.221c-0.48,0.366-0.861,1.094-0.454,1.54
					c0.201,0.22,0.553,0.31,0.653,0.59c0.124,0.351-0.234,0.665-0.518,0.907c-0.472,0.402-0.558,1.604,0.067,1.932
					c0.262,0.138,0.646,0.18,0.711,0.47c0.057,0.258-0.205,0.46-0.379,0.659c-0.479,0.547-0.276,1.533,0.38,1.848
					c0.15,0.072,0.334,0.131,0.39,0.287c0.04,0.112-0.004,0.234-0.036,0.349c-0.061,0.217-0.081,0.445-0.06,0.669
					c0.007,0.077,0.023,0.16,0.082,0.21c0.053,0.046,0.128,0.053,0.198,0.056c0.902,0.04,1.337-0.279,1.887,0.506
					c0.053,0.075,0.108,0.153,0.188,0.199c0.075,0.043,0.163,0.055,0.249,0.062c0.62,0.051,1.025-0.336,1.591-0.408
					c0.786-0.1,0.952,0.305,1.645,0.631C71.5,344.284,72.028,343.968,72.233,343.226z"/>
				<path style="fill:#407BFF;" d="M67.313,339.982c0.066-0.24,0.106-0.515,0.124-0.818c0.101-1.697,1.721-1.428,3.099-1.658
					c1.076-0.18-1.774-2.899,0.397-3.777c0.403-0.163,0.841-0.347,1.047-0.73c0.273-0.506-0.003-1.173-0.473-1.505
					c-0.469-0.332-1.073-0.402-1.648-0.413c-0.354-0.43-0.066-1.078,0.277-1.518c0.343-0.44,0.762-0.94,0.632-1.482
					c-0.196-0.818-1.34-0.848-2.166-0.689c-0.305-0.494-0.299-1.113-0.448-1.675c-0.148-0.562-0.595-1.152-1.172-1.081
					c-0.544,0.066-0.876,0.68-1.409,0.805c-0.619,0.146-1.155-0.401-1.64-0.812c-0.486-0.411-1.335-0.667-1.669-0.126
					c-0.2,0.324-0.08,0.775-0.288,1.094c-0.361,0.552-1.216,0.21-1.746-0.182c-0.531-0.392-1.377-0.747-1.75-0.203
					c-0.114,0.167-0.14,0.377-0.206,0.568c-0.251,0.725-1.035,1.086-1.645,1.551c-0.61,0.465-1.094,1.389-0.577,1.956
					c0.255,0.28,0.703,0.393,0.829,0.75c0.158,0.445-0.297,0.845-0.657,1.151c-0.6,0.51-0.708,2.036,0.084,2.454
					c0.333,0.175,0.821,0.229,0.903,0.596c0.073,0.328-0.26,0.584-0.481,0.837c-0.608,0.695-0.351,1.947,0.482,2.346
					c0.19,0.091,0.424,0.166,0.495,0.365c0.05,0.142-0.005,0.298-0.046,0.443c-0.077,0.275-0.103,0.565-0.076,0.85
					c0.009,0.097,0.029,0.203,0.103,0.267c0.067,0.058,0.163,0.067,0.251,0.071c1.145,0.051,1.698-0.354,2.396,0.642
					c0.067,0.096,0.138,0.194,0.238,0.253c0.095,0.055,0.207,0.07,0.316,0.079c0.787,0.065,1.302-0.427,2.021-0.518
					c0.998-0.127,1.21,0.387,2.089,0.801C66.383,341.325,67.053,340.924,67.313,339.982z"/>
				<path style="fill:#407BFF;" d="M81.127,325.436c0.066-0.24,0.106-0.515,0.124-0.818c0.101-1.697,1.72-1.428,3.098-1.658
					c1.076-0.18-1.774-2.899,0.397-3.777c0.403-0.163,0.841-0.347,1.047-0.73c0.273-0.506-0.003-1.173-0.473-1.505
					c-0.469-0.332-1.073-0.402-1.648-0.413c-0.354-0.431-0.066-1.078,0.276-1.518c0.343-0.44,0.762-0.94,0.632-1.482
					c-0.196-0.818-1.34-0.848-2.166-0.689c-0.305-0.494-0.299-1.113-0.448-1.675c-0.148-0.562-0.595-1.152-1.172-1.082
					c-0.544,0.066-0.876,0.68-1.408,0.805c-0.619,0.146-1.155-0.401-1.64-0.812c-0.486-0.411-1.335-0.667-1.669-0.126
					c-0.2,0.324-0.08,0.775-0.288,1.094c-0.361,0.553-1.216,0.21-1.747-0.182c-0.531-0.392-1.377-0.747-1.75-0.203
					c-0.114,0.167-0.14,0.377-0.206,0.568c-0.251,0.725-1.035,1.086-1.645,1.551c-0.61,0.465-1.094,1.389-0.577,1.956
					c0.255,0.28,0.703,0.393,0.829,0.75c0.158,0.445-0.297,0.845-0.658,1.151c-0.6,0.51-0.709,2.037,0.084,2.454
					c0.333,0.175,0.821,0.229,0.903,0.596c0.073,0.328-0.26,0.584-0.482,0.837c-0.608,0.695-0.351,1.947,0.482,2.346
					c0.19,0.091,0.424,0.166,0.495,0.365c0.05,0.142-0.005,0.298-0.045,0.443c-0.077,0.275-0.103,0.565-0.076,0.85
					c0.009,0.097,0.029,0.203,0.104,0.267c0.067,0.058,0.163,0.067,0.251,0.071c1.145,0.051,1.697-0.354,2.396,0.642
					c0.067,0.096,0.137,0.194,0.238,0.253c0.095,0.055,0.207,0.07,0.316,0.079c0.787,0.065,1.302-0.427,2.021-0.518
					c0.998-0.127,1.21,0.387,2.089,0.801C80.197,326.779,80.867,326.378,81.127,325.436z"/>
				<path style="fill:#407BFF;" d="M92.406,326.013c0.066-0.24,0.106-0.515,0.124-0.818c0.101-1.697,1.72-1.428,3.098-1.658
					c1.076-0.18-1.774-2.899,0.397-3.777c0.403-0.163,0.841-0.347,1.047-0.73c0.273-0.506-0.003-1.173-0.473-1.505
					c-0.47-0.332-1.073-0.402-1.648-0.413c-0.354-0.431-0.066-1.078,0.276-1.518c0.343-0.439,0.762-0.94,0.632-1.482
					c-0.196-0.818-1.34-0.848-2.166-0.689c-0.305-0.495-0.299-1.113-0.448-1.675c-0.148-0.562-0.595-1.152-1.172-1.081
					c-0.544,0.066-0.876,0.68-1.409,0.805c-0.619,0.146-1.155-0.401-1.64-0.812c-0.486-0.411-1.335-0.667-1.669-0.126
					c-0.2,0.324-0.08,0.775-0.288,1.094c-0.361,0.553-1.216,0.21-1.747-0.182c-0.531-0.392-1.377-0.747-1.75-0.203
					c-0.114,0.167-0.14,0.376-0.206,0.568c-0.251,0.725-1.035,1.086-1.645,1.551c-0.61,0.465-1.094,1.389-0.577,1.956
					c0.255,0.28,0.703,0.393,0.83,0.75c0.158,0.445-0.297,0.845-0.658,1.151c-0.6,0.51-0.709,2.037,0.084,2.454
					c0.333,0.175,0.821,0.229,0.903,0.596c0.073,0.328-0.26,0.584-0.482,0.837c-0.608,0.695-0.351,1.947,0.482,2.346
					c0.19,0.091,0.424,0.166,0.495,0.365c0.051,0.143-0.005,0.298-0.045,0.443c-0.077,0.275-0.103,0.565-0.076,0.85
					c0.009,0.097,0.029,0.203,0.103,0.267c0.067,0.058,0.163,0.067,0.251,0.071c1.145,0.051,1.698-0.354,2.396,0.642
					c0.067,0.096,0.137,0.194,0.239,0.253c0.095,0.055,0.207,0.07,0.316,0.079c0.787,0.065,1.302-0.426,2.021-0.518
					c0.998-0.127,1.21,0.387,2.089,0.801C91.476,327.356,92.146,326.955,92.406,326.013z"/>
				<path style="fill:#407BFF;" d="M99.257,330.629c0.066-0.24,0.106-0.515,0.124-0.818c0.101-1.697,1.72-1.428,3.098-1.658
					c1.076-0.18-1.774-2.899,0.397-3.777c0.403-0.163,0.841-0.347,1.047-0.73c0.273-0.506-0.003-1.173-0.473-1.505
					c-0.47-0.332-1.073-0.403-1.648-0.413c-0.354-0.431-0.066-1.078,0.276-1.518c0.343-0.44,0.762-0.94,0.632-1.482
					c-0.196-0.818-1.34-0.848-2.166-0.689c-0.305-0.494-0.299-1.113-0.448-1.675c-0.148-0.562-0.595-1.152-1.172-1.082
					c-0.543,0.066-0.875,0.68-1.408,0.806c-0.619,0.146-1.155-0.402-1.64-0.812c-0.485-0.411-1.335-0.667-1.669-0.126
					c-0.2,0.324-0.08,0.775-0.288,1.094c-0.361,0.552-1.216,0.21-1.746-0.182c-0.531-0.392-1.377-0.747-1.75-0.203
					c-0.114,0.167-0.14,0.377-0.206,0.568c-0.251,0.725-1.035,1.086-1.645,1.551c-0.61,0.465-1.094,1.389-0.577,1.957
					c0.255,0.28,0.703,0.393,0.829,0.75c0.158,0.446-0.297,0.845-0.658,1.151c-0.6,0.51-0.708,2.037,0.085,2.454
					c0.333,0.175,0.821,0.229,0.903,0.596c0.073,0.328-0.26,0.584-0.482,0.837c-0.608,0.695-0.351,1.947,0.482,2.346
					c0.19,0.091,0.424,0.166,0.495,0.365c0.05,0.142-0.005,0.298-0.046,0.443c-0.077,0.275-0.103,0.565-0.076,0.85
					c0.009,0.097,0.029,0.203,0.104,0.267c0.067,0.058,0.163,0.067,0.251,0.071c1.145,0.051,1.697-0.354,2.396,0.642
					c0.067,0.096,0.137,0.194,0.239,0.253c0.095,0.055,0.207,0.07,0.316,0.079c0.787,0.065,1.302-0.426,2.021-0.518
					c0.998-0.127,1.21,0.387,2.089,0.801C98.327,331.972,98.997,331.571,99.257,330.629z"/>
				<path style="fill:#263238;" d="M97.18,336.463c0,0-2.865,4.051-3.853,5.335c-0.988,1.284-5.928,9.287-6.6,14.58
					c-0.072,0.565-0.143,1.051-0.212,1.476c2.125,14.025,1.791,39.684,1.716,44.077H81.5c-0.062-4.953-0.634-50.235-0.845-51.618
					c-0.223-1.463-3.037-7.034-7.384-9.323c-4.347-2.289-8.104-9.863-8.104-9.863h1.385c0,0,2.569,4.643,6.224,7.212
					c0.531,0.373,1.081,0.684,1.645,0.975c-0.131-4.184,1.454-8.187,1.454-8.187l0.748,0.692c-1.01,4.136-0.877,6.784-0.571,8.306
					c1.227,0.615,2.5,1.326,3.78,2.529c3.792-4.931,5.924-16.207,5.924-16.207l0.971,0.53c0,0-0.316,3.063-1.254,6.916
					c-0.711,2.919-2.801,8.414-3.774,10.909c0.967,1.343,1.927,3.079,2.864,5.377c0.106-0.163,0.226-0.312,0.366-0.439
					c2.47-2.233,7.113-12.784,7.113-12.784c1.123-2.453-0.593-8.892-0.593-8.892h1.296l0.581,5.631l3.26-3.557l0.593,0.494
					l-3.458,4.446l-1.778,5.633l4.643-5.139L97.18,336.463z"/>
			</g>
			<path style="fill:#407BFF;" d="M79.407,401.931h22.148c0.312-1.039-0.494-2.286-1.372-2.461
				c-1.078-0.216-2.162-2.113-2.213-3.321c-0.051-1.208-1.992-4.923-5.011-2.629c-3.019,2.294-2.101,0.338-4.285-0.307
				c-2.184-0.645-3.561,1.21-2.603,2.601c0,0-2.194-0.55-3.098,1.499c-0.904,2.049,0,3.321,0,3.321S80.201,400.553,79.407,401.931z"
				/>
		</g>
	</g>
</g>
<g id="Building">
	<g>
		<g>
			
				<polyline style="fill:none;stroke:#263238;stroke-width:0.75;stroke-linecap:round;stroke-linejoin:round;stroke-miterlimit:10;" points="
				203.116,193.717 210.567,186.267 210.567,193.717 			"/>
			
				<polyline style="fill:none;stroke:#263238;stroke-width:0.75;stroke-linecap:round;stroke-linejoin:round;stroke-miterlimit:10;" points="
				211.754,193.717 219.204,186.267 219.204,193.717 			"/>
			
				<polyline style="fill:none;stroke:#263238;stroke-width:0.75;stroke-linecap:round;stroke-linejoin:round;stroke-miterlimit:10;" points="
				220.391,193.717 227.842,186.267 227.842,193.717 			"/>
			
				<polyline style="fill:none;stroke:#263238;stroke-width:0.75;stroke-linecap:round;stroke-linejoin:round;stroke-miterlimit:10;" points="
				226.026,193.717 233.477,186.267 233.477,193.717 			"/>
			
				<polyline style="fill:none;stroke:#263238;stroke-width:0.75;stroke-linecap:round;stroke-linejoin:round;stroke-miterlimit:10;" points="
				237.666,193.717 245.116,186.267 245.116,193.717 			"/>
			
				<polyline style="fill:none;stroke:#263238;stroke-width:0.75;stroke-linecap:round;stroke-linejoin:round;stroke-miterlimit:10;" points="
				246.303,193.717 253.754,186.267 253.754,193.717 			"/>
			
				<polyline style="fill:none;stroke:#263238;stroke-width:0.75;stroke-linecap:round;stroke-linejoin:round;stroke-miterlimit:10;" points="
				259.944,193.717 267.394,186.267 267.394,193.717 			"/>
			
				<polyline style="fill:none;stroke:#263238;stroke-width:0.75;stroke-linecap:round;stroke-linejoin:round;stroke-miterlimit:10;" points="
				268.581,193.717 276.031,186.267 276.031,193.717 			"/>
			
				<polyline style="fill:none;stroke:#263238;stroke-width:0.75;stroke-linecap:round;stroke-linejoin:round;stroke-miterlimit:10;" points="
				275.217,193.717 282.668,186.267 282.668,193.717 			"/>
			
				<polyline style="fill:none;stroke:#263238;stroke-width:0.75;stroke-linecap:round;stroke-linejoin:round;stroke-miterlimit:10;" points="
				286.856,193.717 294.307,186.267 294.307,193.717 			"/>
			
				<polyline style="fill:none;stroke:#263238;stroke-width:0.75;stroke-linecap:round;stroke-linejoin:round;stroke-miterlimit:10;" points="
				291.491,193.717 298.942,186.267 298.942,193.717 			"/>
			
				<polyline style="fill:none;stroke:#263238;stroke-width:0.75;stroke-linecap:round;stroke-linejoin:round;stroke-miterlimit:10;" points="
				298.496,193.717 305.946,186.267 305.946,193.717 			"/>
		</g>
		<g>
			<rect x="328.024" y="182.163" style="fill:#263238;" width="24.287" height="14.094"/>
			<rect x="328.024" y="182.163" style="opacity:0.4;fill:#FFFFFF;enable-background:new    ;" width="24.287" height="14.094"/>
			<rect x="338.95" y="182.163" style="opacity:0.4;fill:#FFFFFF;enable-background:new    ;" width="13.361" height="14.094"/>
		</g>
		<g>
			<rect x="302.188" y="182.163" style="fill:#263238;" width="24.287" height="14.094"/>
			<rect x="302.188" y="182.163" style="opacity:0.4;fill:#FFFFFF;enable-background:new    ;" width="24.287" height="14.094"/>
			<rect x="313.114" y="182.163" style="opacity:0.4;fill:#FFFFFF;enable-background:new    ;" width="13.361" height="14.094"/>
		</g>
		<g>
			<rect x="97.622" y="182.163" style="fill:#263238;" width="102.593" height="14.094"/>
			<rect x="97.622" y="182.163" style="opacity:0.4;fill:#FFFFFF;enable-background:new    ;" width="102.593" height="14.094"/>
			<rect x="143.775" y="182.163" style="opacity:0.4;fill:#FFFFFF;enable-background:new    ;" width="56.44" height="14.094"/>
		</g>
		<g>
			<rect x="90.765" y="367.49" style="fill:#263238;" width="267.429" height="44.842"/>
			<rect x="90.765" y="367.49" style="opacity:0.3;fill:#FFFFFF;enable-background:new    ;" width="267.429" height="44.842"/>
			<rect x="146.545" y="367.49" style="opacity:0.3;fill:#FFFFFF;enable-background:new    ;" width="211.648" height="44.842"/>
			<rect x="221.495" y="374.141" style="opacity:0.2;" width="66.426" height="38.191"/>
			<g>
				<rect x="202.907" y="378.573" style="fill:#407BFF;" width="12.132" height="30.898"/>
				<rect x="186.906" y="378.573" style="fill:#407BFF;" width="12.132" height="30.898"/>
				<rect x="170.906" y="378.573" style="fill:#407BFF;" width="12.132" height="30.898"/>
				<rect x="154.906" y="378.573" style="fill:#407BFF;" width="12.132" height="30.898"/>
			</g>
			<g>
				<rect x="340.994" y="378.573" style="fill:#407BFF;" width="12.132" height="30.898"/>
				<rect x="324.993" y="378.573" style="fill:#407BFF;" width="12.132" height="30.898"/>
				<rect x="308.993" y="378.573" style="fill:#407BFF;" width="12.132" height="30.898"/>
				<rect x="292.992" y="378.573" style="fill:#407BFF;" width="12.132" height="30.898"/>
			</g>
			<g>
				<rect x="133.225" y="378.573" style="fill:#407BFF;" width="9.768" height="30.898"/>
				<rect x="120.342" y="378.573" style="fill:#407BFF;" width="9.768" height="30.898"/>
				<rect x="107.459" y="378.573" style="fill:#407BFF;" width="9.768" height="30.898"/>
				<rect x="94.576" y="378.573" style="fill:#407BFF;" width="9.768" height="30.898"/>
			</g>
			<g style="opacity:0.5;enable-background:new    ;">
				<rect x="202.907" y="378.573" style="fill:#FFFFFF;" width="12.132" height="30.898"/>
				<rect x="186.906" y="378.573" style="fill:#FFFFFF;" width="12.132" height="30.898"/>
				<rect x="170.906" y="378.573" style="fill:#FFFFFF;" width="12.132" height="30.898"/>
				<rect x="154.906" y="378.573" style="fill:#FFFFFF;" width="12.132" height="30.898"/>
			</g>
			<g style="opacity:0.5;enable-background:new    ;">
				<rect x="340.994" y="378.573" style="fill:#FFFFFF;" width="12.132" height="30.898"/>
				<rect x="324.993" y="378.573" style="fill:#FFFFFF;" width="12.132" height="30.898"/>
				<rect x="308.993" y="378.573" style="fill:#FFFFFF;" width="12.132" height="30.898"/>
				<rect x="292.992" y="378.573" style="fill:#FFFFFF;" width="12.132" height="30.898"/>
			</g>
			<g style="opacity:0.5;enable-background:new    ;">
				<rect x="133.225" y="378.573" style="fill:#FFFFFF;" width="9.768" height="30.898"/>
				<rect x="120.342" y="378.573" style="fill:#FFFFFF;" width="9.768" height="30.898"/>
				<rect x="107.459" y="378.573" style="fill:#FFFFFF;" width="9.768" height="30.898"/>
				<rect x="94.576" y="378.573" style="fill:#FFFFFF;" width="9.768" height="30.898"/>
			</g>
			<g style="opacity:0.5;enable-background:new    ;">
				<rect x="272.01" y="378.573" style="fill:#FFFFFF;" width="12.072" height="30.898"/>
				<rect x="256.089" y="378.573" style="fill:#FFFFFF;" width="12.072" height="30.898"/>
				<rect x="221.495" y="378.573" style="fill:#FFFFFF;" width="30.745" height="30.898"/>
			</g>
			<polygon style="opacity:0.1;" points="287.921,374.141 264.761,412.332 221.495,412.332 221.495,374.141 			"/>
		</g>
		<g>
			<rect x="87.551" y="196.257" style="fill:#407BFF;" width="57.279" height="170.01"/>
			<rect x="87.551" y="196.257" style="opacity:0.4;fill:#FFFFFF;enable-background:new    ;" width="57.279" height="170.01"/>
			<line style="opacity:0.1;fill:none;stroke:#000000;stroke-miterlimit:10;" x1="94.721" y1="196.257" x2="94.721" y2="366.267"/>
			
				<line style="opacity:0.1;fill:none;stroke:#000000;stroke-miterlimit:10;" x1="103.019" y1="196.257" x2="103.019" y2="366.267"/>
			
				<line style="opacity:0.1;fill:none;stroke:#000000;stroke-miterlimit:10;" x1="111.317" y1="196.257" x2="111.317" y2="366.267"/>
			
				<line style="opacity:0.1;fill:none;stroke:#000000;stroke-miterlimit:10;" x1="119.616" y1="196.257" x2="119.616" y2="366.267"/>
			
				<line style="opacity:0.1;fill:none;stroke:#000000;stroke-miterlimit:10;" x1="127.914" y1="196.257" x2="127.914" y2="366.267"/>
			
				<line style="opacity:0.1;fill:none;stroke:#000000;stroke-miterlimit:10;" x1="136.213" y1="196.257" x2="136.213" y2="366.267"/>
			<g style="opacity:0.1;">
				<polygon style="fill:#FFFFFF;" points="113.956,196.253 87.546,238.843 87.546,218.223 101.166,196.253 				"/>
				<polygon style="fill:#FFFFFF;" points="129.096,196.253 87.546,263.253 87.546,257.243 125.366,196.253 				"/>
			</g>
			<g style="opacity:0.1;">
				<polygon style="fill:#FFFFFF;" points="144.826,246.203 144.826,266.823 87.546,359.203 87.546,338.583 				"/>
				<polygon style="fill:#FFFFFF;" points="144.826,285.233 144.826,291.253 98.316,366.263 94.576,366.263 				"/>
			</g>
		</g>
		<rect x="141.478" y="189.606" style="fill:#407BFF;" width="220.921" height="184.535"/>
		<g>
			
				<rect x="80.979" y="360.84" transform="matrix(-1 -1.224647e-16 1.224647e-16 -1 222.4565 734.9808)" style="fill:#407BFF;" width="60.499" height="13.302"/>
			
				<rect x="80.979" y="189.606" transform="matrix(-1 -1.224647e-16 1.224647e-16 -1 222.4565 392.5132)" style="fill:#407BFF;" width="60.499" height="13.302"/>
			
				<rect x="80.979" y="223.853" transform="matrix(-1 -1.224647e-16 1.224647e-16 -1 222.4565 461.0067)" style="fill:#407BFF;" width="60.499" height="13.302"/>
			
				<rect x="80.979" y="258.099" transform="matrix(-1 -1.224647e-16 1.224647e-16 -1 222.4565 529.5002)" style="fill:#407BFF;" width="60.499" height="13.302"/>
			
				<rect x="80.979" y="292.346" transform="matrix(-1 -1.224647e-16 1.224647e-16 -1 222.4565 597.9938)" style="fill:#407BFF;" width="60.499" height="13.302"/>
			
				<rect x="80.979" y="326.593" transform="matrix(-1 -1.224647e-16 1.224647e-16 -1 222.4565 666.4873)" style="fill:#407BFF;" width="60.499" height="13.302"/>
			<g style="opacity:0.6;enable-background:new    ;">
				
					<rect x="80.979" y="360.84" transform="matrix(-1 -1.224647e-16 1.224647e-16 -1 222.4565 734.9808)" style="fill:#FFFFFF;" width="60.499" height="13.302"/>
				
					<rect x="80.979" y="189.606" transform="matrix(-1 -1.224647e-16 1.224647e-16 -1 222.4565 392.5132)" style="fill:#FFFFFF;" width="60.499" height="13.302"/>
				
					<rect x="80.979" y="223.853" transform="matrix(-1 -1.224647e-16 1.224647e-16 -1 222.4565 461.0067)" style="fill:#FFFFFF;" width="60.499" height="13.302"/>
				
					<rect x="80.979" y="258.099" transform="matrix(-1 -1.224647e-16 1.224647e-16 -1 222.4565 529.5002)" style="fill:#FFFFFF;" width="60.499" height="13.302"/>
				
					<rect x="80.979" y="292.346" transform="matrix(-1 -1.224647e-16 1.224647e-16 -1 222.4565 597.9938)" style="fill:#FFFFFF;" width="60.499" height="13.302"/>
				
					<rect x="80.979" y="326.593" transform="matrix(-1 -1.224647e-16 1.224647e-16 -1 222.4565 666.4873)" style="fill:#FFFFFF;" width="60.499" height="13.302"/>
			</g>
		</g>
		<rect x="141.478" y="189.606" style="opacity:0.6;fill:#FFFFFF;enable-background:new    ;" width="220.921" height="184.535"/>
		<rect x="148.589" y="189.606" style="opacity:0.4;fill:#FFFFFF;enable-background:new    ;" width="213.809" height="184.535"/>
		<rect x="221.495" y="189.606" style="fill:#407BFF;" width="68.044" height="184.535"/>
		<g>
			<g>
				<rect x="294.996" y="202.903" style="fill:#407BFF;" width="60.13" height="157.94"/>
				<rect x="294.996" y="202.903" style="opacity:0.5;fill:#FFFFFF;enable-background:new    ;" width="60.13" height="157.94"/>
				<g style="opacity:0.1;enable-background:new    ;">
					<line style="fill:none;stroke:#000000;stroke-miterlimit:10;" x1="304.043" y1="202.907" x2="304.043" y2="360.84"/>
					<line style="fill:none;stroke:#000000;stroke-miterlimit:10;" x1="314.552" y1="202.907" x2="314.552" y2="360.84"/>
					<line style="fill:none;stroke:#000000;stroke-miterlimit:10;" x1="325.061" y1="202.907" x2="325.061" y2="360.84"/>
					<line style="fill:none;stroke:#000000;stroke-miterlimit:10;" x1="335.57" y1="202.907" x2="335.57" y2="360.84"/>
					<line style="fill:none;stroke:#000000;stroke-miterlimit:10;" x1="346.078" y1="202.907" x2="346.078" y2="360.84"/>
					<rect x="294.995" y="202.907" style="fill:none;stroke:#000000;stroke-miterlimit:10;" width="60.132" height="157.932"/>
					<line style="fill:none;stroke:#000000;stroke-miterlimit:10;" x1="355.127" y1="223.853" x2="294.995" y2="223.853"/>
					<line style="fill:none;stroke:#000000;stroke-miterlimit:10;" x1="294.995" y1="237.154" x2="355.127" y2="237.154"/>
					<line style="fill:none;stroke:#000000;stroke-miterlimit:10;" x1="355.127" y1="258.099" x2="294.995" y2="258.099"/>
					<line style="fill:none;stroke:#000000;stroke-miterlimit:10;" x1="294.995" y1="271.401" x2="355.127" y2="271.401"/>
					<line style="fill:none;stroke:#000000;stroke-miterlimit:10;" x1="355.127" y1="292.346" x2="294.995" y2="292.346"/>
					<line style="fill:none;stroke:#000000;stroke-miterlimit:10;" x1="294.995" y1="305.648" x2="355.127" y2="305.648"/>
					<line style="fill:none;stroke:#000000;stroke-miterlimit:10;" x1="355.127" y1="326.593" x2="294.995" y2="326.593"/>
					<line style="fill:none;stroke:#000000;stroke-miterlimit:10;" x1="294.995" y1="339.894" x2="355.127" y2="339.894"/>
				</g>
				<g style="opacity:0.1;">
					<polygon style="fill:#FFFFFF;" points="355.126,238.063 355.126,258.683 294.996,355.653 294.996,335.023 					"/>
					<polygon style="fill:#FFFFFF;" points="355.126,277.083 355.126,283.103 306.926,360.843 303.186,360.843 					"/>
				</g>
				<g style="opacity:0.1;">
					<polygon style="fill:#FFFFFF;" points="355.126,318.743 355.126,339.363 341.806,360.843 329.026,360.843 					"/>
					<polygon style="fill:#FFFFFF;" points="355.126,357.763 355.126,360.843 353.216,360.843 					"/>
				</g>
			</g>
			<g>
				<rect x="155.906" y="202.903" style="fill:#407BFF;" width="60.13" height="157.94"/>
				<rect x="155.906" y="202.903" style="opacity:0.5;fill:#FFFFFF;enable-background:new    ;" width="60.13" height="157.94"/>
				<g style="opacity:0.1;enable-background:new    ;">
					<line style="fill:none;stroke:#000000;stroke-miterlimit:10;" x1="164.956" y1="202.907" x2="164.956" y2="360.84"/>
					<line style="fill:none;stroke:#000000;stroke-miterlimit:10;" x1="175.465" y1="202.907" x2="175.465" y2="360.84"/>
					<line style="fill:none;stroke:#000000;stroke-miterlimit:10;" x1="185.973" y1="202.907" x2="185.973" y2="360.84"/>
					<line style="fill:none;stroke:#000000;stroke-miterlimit:10;" x1="196.482" y1="202.907" x2="196.482" y2="360.84"/>
					<line style="fill:none;stroke:#000000;stroke-miterlimit:10;" x1="206.991" y1="202.907" x2="206.991" y2="360.84"/>
					<rect x="155.907" y="202.907" style="fill:none;stroke:#000000;stroke-miterlimit:10;" width="60.132" height="157.932"/>
					<line style="fill:none;stroke:#000000;stroke-miterlimit:10;" x1="216.039" y1="223.853" x2="155.907" y2="223.853"/>
					<line style="fill:none;stroke:#000000;stroke-miterlimit:10;" x1="155.907" y1="237.154" x2="216.039" y2="237.154"/>
					<line style="fill:none;stroke:#000000;stroke-miterlimit:10;" x1="216.039" y1="258.099" x2="155.907" y2="258.099"/>
					<line style="fill:none;stroke:#000000;stroke-miterlimit:10;" x1="155.907" y1="271.401" x2="216.039" y2="271.401"/>
					<line style="fill:none;stroke:#000000;stroke-miterlimit:10;" x1="216.039" y1="292.346" x2="155.907" y2="292.346"/>
					<line style="fill:none;stroke:#000000;stroke-miterlimit:10;" x1="155.907" y1="305.648" x2="216.039" y2="305.648"/>
					<line style="fill:none;stroke:#000000;stroke-miterlimit:10;" x1="216.039" y1="326.593" x2="155.907" y2="326.593"/>
					<line style="fill:none;stroke:#000000;stroke-miterlimit:10;" x1="155.907" y1="339.894" x2="216.039" y2="339.894"/>
				</g>
				<g style="opacity:0.1;">
					<polygon style="fill:#FFFFFF;" points="183.836,202.903 155.906,247.943 155.906,227.333 171.056,202.903 					"/>
					<polygon style="fill:#FFFFFF;" points="198.986,202.903 155.906,272.373 155.906,266.353 195.246,202.903 					"/>
				</g>
				<g style="opacity:0.1;">
					<polygon style="fill:#FFFFFF;" points="216.036,250.733 216.036,271.343 160.546,360.843 155.906,360.843 155.906,347.693 
											"/>
					<polygon style="fill:#FFFFFF;" points="216.036,289.743 216.036,295.773 175.686,360.843 171.946,360.843 					"/>
				</g>
			</g>
		</g>
		<rect x="221.495" y="189.606" style="opacity:0.7;fill:#FFFFFF;" width="68.044" height="184.535"/>
		<g>
			<polygon style="fill:#407BFF;" points="323.116,366.263 323.116,366.263 320.114,366.263 252.727,366.263 252.726,366.263 
				249.724,366.263 221.495,366.263 221.495,374.141 249.724,374.141 249.724,412.333 252.726,412.333 254.434,412.333 
				257.436,412.333 257.436,374.143 315.404,374.143 315.404,412.333 318.406,412.333 320.114,412.333 323.116,412.333 
				323.116,374.141 323.116,374.141 			"/>
			<polygon style="opacity:0.3;fill:#FFFFFF;enable-background:new    ;" points="323.116,366.263 323.116,412.333 318.406,412.333 
				318.406,374.143 257.436,374.143 257.436,412.333 252.726,412.333 252.726,366.263 			"/>
		</g>
		<g>
			<rect x="228.759" y="258.099" style="fill:#407BFF;" width="13.714" height="102.743"/>
			<rect x="248.771" y="258.099" style="fill:#407BFF;" width="13.714" height="102.743"/>
			<rect x="268.784" y="258.099" style="fill:#407BFF;" width="13.714" height="102.743"/>
			<g style="opacity:0.5;enable-background:new    ;">
				<rect x="228.759" y="258.099" style="fill:#FFFFFF;" width="13.714" height="102.743"/>
				<rect x="248.771" y="258.099" style="fill:#FFFFFF;" width="13.714" height="102.743"/>
				<rect x="268.784" y="258.099" style="fill:#FFFFFF;" width="13.714" height="102.743"/>
			</g>
		</g>
		<g>
			<polygon style="fill:#407BFF;" points="276.146,218.945 274.144,218.945 262.236,218.945 262.236,205.035 262.236,205.035 
				260.234,205.035 251.023,205.035 251.023,205.035 249.021,205.035 249.021,218.945 237.113,218.945 237.113,218.945 
				235.111,218.945 235.111,230.158 237.113,230.158 237.113,230.158 249.021,230.158 249.021,244.068 251.023,244.068 
				251.023,244.068 260.234,244.068 262.236,244.068 262.236,244.068 262.236,230.158 274.144,230.158 276.146,230.158 
				276.146,230.158 276.146,218.945 			"/>
			<rect x="235.106" y="218.947" style="opacity:0.3;" width="2.01" height="11.21"/>
			<rect x="249.026" y="205.038" style="opacity:0.3;" width="2" height="13.91"/>
			<rect x="249.026" y="230.158" style="opacity:0.3;" width="2" height="13.91"/>
		</g>
		<g>
			<g>
				<path style="fill:#407BFF;" d="M230.733,173.601L230.733,173.601L230.733,173.601c-0.018,0-0.035,0.002-0.053,0.002
					c-0.15,0.002-0.298,0.011-0.446,0.02c-0.166-0.01-0.331-0.022-0.502-0.022c-4.165,0-7.237,2.937-7.237,6.911
					c0,3.973,3.071,6.91,7.237,6.91c0.17,0,0.335-0.012,0.502-0.022c0.148,0.008,0.295,0.017,0.446,0.02
					c0.018,0,0.035,0.002,0.053,0.002h0l0,0c4.165,0,7.236-2.917,7.236-6.91C237.969,176.519,234.898,173.601,230.733,173.601z
					 M228.526,184.712c-0.241-0.118-0.468-0.257-0.68-0.413c-0.027-0.02-0.051-0.042-0.077-0.063
					c-0.19-0.146-0.369-0.305-0.532-0.48c-0.046-0.05-0.086-0.106-0.129-0.158c-0.134-0.158-0.264-0.321-0.375-0.498
					c-0.059-0.095-0.105-0.199-0.157-0.299c-0.081-0.152-0.165-0.303-0.229-0.466c-0.061-0.157-0.1-0.326-0.144-0.492
					c-0.034-0.125-0.079-0.245-0.103-0.375c-0.056-0.303-0.087-0.619-0.088-0.946c0-0.004-0.001-0.007-0.001-0.011
					c0-0.004,0.001-0.007,0.001-0.011c0.001-0.327,0.032-0.643,0.088-0.946c0.024-0.13,0.069-0.249,0.103-0.375
					c0.044-0.166,0.084-0.335,0.144-0.492c0.064-0.163,0.148-0.314,0.228-0.466c0.052-0.1,0.098-0.204,0.157-0.299
					c0.112-0.177,0.241-0.34,0.375-0.497c0.044-0.052,0.083-0.108,0.13-0.158c0.163-0.174,0.341-0.333,0.531-0.479
					c0.026-0.021,0.051-0.043,0.078-0.063c0.212-0.156,0.439-0.295,0.68-0.413c0.008-0.004,0.016-0.009,0.024-0.013
					c0.508-0.246,1.074-0.406,1.682-0.464c2.446,0.232,4.221,2.106,4.221,4.676c0,2.569-1.775,4.444-4.221,4.676
					c-0.608-0.058-1.174-0.217-1.683-0.464C228.542,184.721,228.534,184.716,228.526,184.712z"/>
				<path style="fill:#407BFF;" d="M242.253,177.498c0-0.002,0.001-0.004,0.001-0.006c0-0.118,0.014-0.233,0.037-0.344
					c0.01-0.047,0.029-0.09,0.044-0.135c0.02-0.063,0.039-0.127,0.067-0.187c0.027-0.056,0.062-0.108,0.096-0.16
					c0.028-0.044,0.055-0.088,0.089-0.13c0.046-0.057,0.101-0.111,0.158-0.164c0.033-0.031,0.066-0.061,0.102-0.09
					c0.069-0.055,0.146-0.106,0.229-0.155c0.035-0.02,0.071-0.04,0.107-0.059c0.095-0.049,0.196-0.095,0.307-0.135
					c0.033-0.012,0.069-0.023,0.104-0.035c0.124-0.041,0.255-0.078,0.398-0.108c0.026-0.005,0.056-0.009,0.083-0.014
					c0.159-0.03,0.326-0.056,0.509-0.072c1.065,0.07,2.221,0.397,3.292,1.026l0.169-0.418c0.17,0.074,0.336,0.167,0.503,0.253
					c0.109,0.057,0.221,0.102,0.328,0.165l0,0h0l0.787-1.938c-1.171-0.768-2.86-1.191-4.473-1.191l0,0h0
					c-0.049,0-0.089,0.008-0.137,0.009c-0.121,0.007-0.24,0.017-0.362,0.023c-0.167-0.009-0.336-0.032-0.502-0.032
					c-3.686,0-5.413,1.843-5.413,4.012c0,4.991,7.985,3.091,7.985,5.989c0,0.914-0.753,1.611-2.484,1.724c0,0,0,0,0,0
					c-0.358-0.026-0.715-0.082-1.065-0.159c-0.023-0.005-0.047-0.01-0.071-0.015c-0.335-0.076-0.661-0.175-0.975-0.29
					c-0.034-0.013-0.068-0.026-0.103-0.039c-0.305-0.117-0.597-0.25-0.869-0.398c-0.029-0.016-0.056-0.034-0.085-0.05
					c-0.275-0.155-0.533-0.322-0.758-0.503l0,0h0l-0.079,0.178l-0.149,0.334c-0.28-0.158-0.543-0.328-0.772-0.512l-0.864,1.939
					c1.113,0.959,3.206,1.612,5.298,1.612c0.133,0,0.244-0.019,0.372-0.024c0.209,0.013,0.419,0.024,0.629,0.024l0,0h0
					c3.686,0,5.433-1.843,5.433-3.993C250.219,178.496,242.253,180.358,242.253,177.498z"/>
				<path style="fill:#407BFF;" d="M258.226,173.793L258.226,173.793h-1.001h-4.527h0h-1.001v13.437h1.001h0h1.495h1.001h0v-3.877
					h2.032h1.001h0c3.532,0,5.72-1.824,5.72-4.78C263.946,175.598,261.758,173.793,258.226,173.793z M255.193,181.241v-5.336h1.917
					c2.188,0,3.321,0.979,3.321,2.668c0,1.689-1.133,2.668-3.321,2.668H255.193z"/>
				<path style="fill:#407BFF;" d="M290.058,173.793h-1.001h-1.456h0H286.6l-6.047,13.437h1.001h0h1.571h1.001h0l1.325-3.11h5.717
					l1.344,3.11h1.001h0h1.61h1.001h0L290.058,173.793L290.058,173.793z M286.296,182.163l1.235-2.885l0.781-1.825l2.031,4.71
					H286.296z"/>
				<polygon style="fill:#407BFF;" points="307.356,185.119 306.355,185.119 300.331,185.119 300.331,173.793 300.33,173.793 
					299.329,173.793 297.835,173.793 297.835,173.793 296.834,173.793 296.834,187.23 297.835,187.23 297.835,187.23 
					306.355,187.23 307.356,187.23 307.356,187.23 307.356,185.119 				"/>
				<polygon style="fill:#407BFF;" points="219.843,173.793 218.349,173.793 218.348,173.793 217.348,173.793 217.348,179.341 
					211.4,179.341 211.4,173.793 211.4,173.793 210.399,173.793 208.904,173.793 208.904,173.793 207.903,173.793 207.903,187.23 
					208.904,187.23 208.904,187.23 210.399,187.23 211.4,187.23 211.4,187.23 211.4,181.471 217.348,181.471 217.348,187.23 
					218.348,187.23 218.349,187.23 219.843,187.23 220.844,187.23 220.844,187.23 220.844,173.793 220.844,173.793 				"/>
				<polygon style="fill:#407BFF;" points="267.939,173.793 266.444,173.793 266.444,173.793 265.443,173.793 265.443,187.23 
					266.444,187.23 266.444,187.23 267.939,187.23 268.94,187.23 268.94,187.23 268.94,173.793 268.94,173.793 				"/>
				<polygon style="fill:#407BFF;" points="282.243,175.905 282.244,175.905 282.244,173.793 282.243,173.793 281.243,173.793 
					270.841,173.793 270.841,173.793 269.84,173.793 269.84,175.905 270.841,175.905 270.841,175.905 274.294,175.905 
					274.294,187.23 275.295,187.23 275.295,187.23 276.789,187.23 277.79,187.23 277.79,187.23 277.79,175.905 281.243,175.905 				
					"/>
			</g>
			<g style="opacity:0.2;">
				<g>
					<rect x="207.906" y="173.798" width="1" height="13.43"/>
					<rect x="217.346" y="173.798" width="1" height="5.54"/>
					<rect x="217.346" y="181.467" width="1" height="5.76"/>
					<path d="M230.736,175.788c-1,0-1.93,0.28-2.67,0.78c0.62-0.4,1.36-0.65,2.17-0.73c2.44,0.23,4.22,2.1,4.22,4.67
						c0,2.57-1.78,4.45-4.22,4.68c-1.21-0.11-2.25-0.63-3-1.42c0.83,0.92,2.08,1.47,3.5,1.47c2.7,0,4.72-1.98,4.72-4.73
						C235.456,177.767,233.436,175.788,230.736,175.788z M223.496,180.508c0-3.78,2.78-6.63,6.65-6.89
						c-0.14-0.01-0.27-0.02-0.41-0.02c-4.17,0-7.24,2.94-7.24,6.91c0,3.98,3.07,6.91,7.24,6.91c0.17,0,0.32-0.01,0.49-0.02
						C226.316,187.178,223.496,184.327,223.496,180.508z"/>
					<path d="M244.286,175.738c-0.26,0.04-0.5,0.1-0.71,0.16C243.786,175.827,244.016,175.767,244.286,175.738z"/>
					<path d="M239.486,185.807c1.01,0.86,2.8,1.48,4.67,1.59c-0.13,0.01-0.24,0.02-0.37,0.02c-2.09,0-4.19-0.65-5.3-1.61l0.87-1.94
						c0.22,0.19,0.49,0.36,0.77,0.52L239.486,185.807z"/>
					<path d="M247.766,183.598c0,1-0.89,1.75-2.98,1.75c-0.16,0-0.32-0.01-0.48-0.02c1.71-0.12,2.46-0.82,2.46-1.73
						c0-2.89-7.99-0.99-7.99-5.98c0-2.17,1.73-4.02,5.41-4.02c0.08,0,0.17,0.01,0.25,0.02c-3.16,0.25-4.66,1.98-4.66,4
						C239.776,182.607,247.766,180.707,247.766,183.598z"/>
					<path d="M248.045,176.321l-0.169,0.406c-1.07-0.63-2.23-0.95-3.29-1.02c0.18-0.02,0.37-0.03,0.58-0.03
						C246.083,175.678,247.081,175.897,248.045,176.321z"/>
					<path d="M248.466,176.508c-0.139-0.071-0.281-0.124-0.421-0.186l0.001-0.004C248.186,176.378,248.326,176.438,248.466,176.508z
						"/>
					<path d="M258.106,175.908h-1c2.19,0,3.32,0.98,3.32,2.67c0,1.69-1.13,2.66-3.32,2.66h1c2.19,0,3.33-0.97,3.33-2.66
						C261.436,176.887,260.296,175.908,258.106,175.908z M251.696,173.798v13.43h1v-13.43H251.696z"/>
					<rect x="265.446" y="173.798" width="1" height="13.43"/>
					<rect x="269.836" y="173.798" width="1" height="2.11"/>
					<rect x="274.296" y="175.908" width="1" height="11.32"/>
					<path d="M286.596,173.798l-6.04,13.43h1l6.04-13.43H286.596z M288.806,176.288l-2.51,5.88l2.02-4.71l2.03,4.71h1
						L288.806,176.288z M292.167,184.117h-1l1.35,3.11h1L292.167,184.117z"/>
					<rect x="296.836" y="173.798" width="1" height="13.43"/>
				</g>
				<g style="opacity:0.4;enable-background:new    ;">
					<path d="M230.146,173.617c0.03,0.01,0.06,0.01,0.09,0.01c0.08-0.01,0.16-0.01,0.25-0.02
						C230.366,173.607,230.256,173.607,230.146,173.617z"/>
					<path d="M244.476,173.617c0.07,0.01,0.14,0.02,0.21,0.02c0.17-0.01,0.33-0.04,0.5-0.04
						C244.946,173.598,244.706,173.607,244.476,173.617z"/>
				</g>
			</g>
		</g>
	</g>
</g>
<g id="Car">
	<g>
		<g>
			<path style="fill:#263238;" d="M328.034,409.144c-0.558,0-2.631,0-3.19,0c-3.047,0-5.517,2.922-5.517,6.527
				c0,3.605,2.47,6.527,5.517,6.527c0.558,0,2.631,0,3.19,0c3.047,0,5.517-2.922,5.517-6.527
				C333.551,412.066,331.081,409.144,328.034,409.144z"/>
			<path style="opacity:0.2;fill:#FFFFFF;enable-background:new    ;" d="M333.551,415.671c0,3.605-2.47,6.527-5.517,6.527
				c-3.047,0-5.517-2.922-5.517-6.527c0-3.605,2.47-6.527,5.517-6.527C331.081,409.144,333.551,412.066,333.551,415.671z"/>
			<path style="opacity:0.2;" d="M328.034,419.808c-1.694,0-3.126-1.894-3.126-4.137c0-2.241,1.432-4.135,3.126-4.135
				c1.694,0,3.126,1.894,3.126,4.135C331.16,417.913,329.728,419.808,328.034,419.808z"/>
		</g>
		<g>
			<path style="fill:#263238;" d="M374.065,409.144c-0.558,0-2.631,0-3.19,0c-3.047,0-5.517,2.922-5.517,6.527
				c0,3.605,2.47,6.527,5.517,6.527c0.558,0,2.631,0,3.19,0c3.047,0,5.517-2.922,5.517-6.527
				C379.582,412.066,377.112,409.144,374.065,409.144z"/>
			<path style="opacity:0.2;fill:#FFFFFF;enable-background:new    ;" d="M379.582,415.671c0,3.605-2.47,6.527-5.517,6.527
				s-5.517-2.922-5.517-6.527c0-3.605,2.47-6.527,5.517-6.527S379.582,412.066,379.582,415.671z"/>
			<path style="opacity:0.2;" d="M374.065,419.808c-1.694,0-3.126-1.894-3.126-4.137c0-2.241,1.432-4.135,3.126-4.135
				c1.694,0,3.126,1.894,3.126,4.135C377.191,417.913,375.759,419.808,374.065,419.808z"/>
		</g>
		<path style="fill:#263238;" d="M325.526,396.487v17.853c0,1.542,1.262,2.804,2.804,2.804h76.743c1.542,0,2.804-1.262,2.804-2.804
			v-17.853H325.526z"/>
		<g>
			<path style="fill:#263238;" d="M354.041,409.144c-0.558,0-2.631,0-3.19,0c-3.047,0-5.517,2.922-5.517,6.527
				c0,3.605,2.47,6.527,5.517,6.527c0.558,0,2.631,0,3.19,0c3.047,0,5.517-2.922,5.517-6.527
				C359.559,412.066,357.089,409.144,354.041,409.144z"/>
			<path style="opacity:0.2;fill:#FFFFFF;enable-background:new    ;" d="M359.558,415.671c0,3.605-2.47,6.527-5.517,6.527
				s-5.517-2.922-5.517-6.527c0-3.605,2.47-6.527,5.517-6.527S359.558,412.066,359.558,415.671z"/>
			<path style="opacity:0.2;fill:#FFFFFF;enable-background:new    ;" d="M354.041,419.808c-1.694,0-3.126-1.894-3.126-4.137
				c0-2.241,1.432-4.135,3.126-4.135c1.694,0,3.126,1.894,3.126,4.135C357.168,417.913,355.736,419.808,354.041,419.808z"/>
		</g>
		<g>
			<path style="fill:#263238;" d="M400.072,409.144c-0.558,0-2.631,0-3.189,0c-3.047,0-5.517,2.922-5.517,6.527
				c0,3.605,2.47,6.527,5.517,6.527c0.558,0,2.631,0,3.189,0c3.047,0,5.517-2.922,5.517-6.527
				C405.589,412.066,403.119,409.144,400.072,409.144z"/>
			<path style="opacity:0.2;fill:#FFFFFF;enable-background:new    ;" d="M405.589,415.671c0,3.605-2.47,6.527-5.517,6.527
				c-3.047,0-5.517-2.922-5.517-6.527c0-3.605,2.47-6.527,5.517-6.527C403.119,409.144,405.589,412.066,405.589,415.671z"/>
			<path style="opacity:0.2;fill:#FFFFFF;enable-background:new    ;" d="M400.072,419.808c-1.694,0-3.126-1.894-3.126-4.137
				c0-2.241,1.432-4.135,3.126-4.135c1.694,0,3.126,1.894,3.126,4.135C403.198,417.913,401.767,419.808,400.072,419.808z"/>
		</g>
		<g>
			<path style="fill:#407BFF;" d="M367.445,373.13c0,1.02-0.83,1.86-1.85,1.86h-19.54c-1.02,0-1.86-0.84-1.86-1.86
				c0-1.02,0.84-1.85,1.86-1.85h19.54C366.615,371.28,367.445,372.11,367.445,373.13z"/>
			<path style="fill:#263238;" d="M367.445,373.13c0,1.02-0.83,1.86-1.85,1.86h-11.53c-1.02,0-1.86-0.84-1.86-1.86
				c0-1.02,0.84-1.85,1.86-1.85h11.53C366.615,371.28,367.445,372.11,367.445,373.13z"/>
			<path style="fill:#407BFF;" d="M367.445,373.13c0,1.02-0.83,1.86-1.85,1.86h-8.53c-1.02,0-1.86-0.84-1.86-1.86
				c0-1.02,0.84-1.85,1.86-1.85h8.53C366.615,371.28,367.445,372.11,367.445,373.13z"/>
			<path style="fill:#407BFF;" d="M411.632,397.81v15.74c0,1.09-0.89,1.98-1.98,1.98l-3.07,0.01c-0.05-4.09-2.96-7.4-6.51-7.4
				c-3.56,0-6.47,3.32-6.52,7.42l-32.99,0.06c-0.02-4.13-2.94-7.48-6.52-7.48c-3.58,0-6.51,3.37-6.52,7.51l-5.96,0.01
				c-0.08,0-0.16-0.01-0.23-0.01c-0.08-0.01-0.16-0.02-0.23-0.04h-0.09l-24.45,0.05c-1.52,0-2.72-1.28-2.58-2.8
				c0.18-1.94,0.43-4.58,0.65-6.96c0.08-0.77,0.15-1.51,0.21-2.18c0.17-1.79,0.89-3.46,2.05-4.81v-0.02
				c0.3-0.35,0.64-0.68,0.99-0.98l6.45-5.44l9.93-15.11c1.59-2.41,4.28-3.86,7.16-3.86h62.47c0.65,0,1.27,0.12,1.85,0.34
				c0.43,0.17,0.83,0.39,1.2,0.66c0.24,0.18,0.47,0.38,0.68,0.6c0.43,0.44,0.77,0.96,1.01,1.53c0.06,0.13,0.11,0.27,0.16,0.41
				c0.1,0.3,0.17,0.62,0.21,0.95L411.632,397.81z"/>
			<path style="opacity:0.7;fill:#FFFFFF;enable-background:new    ;" d="M411.632,397.81v15.74c0,1.09-0.89,1.98-1.98,1.98
				l-3.07,0.01c-0.05-4.09-2.96-7.4-6.51-7.4c-3.56,0-6.47,3.32-6.52,7.42l-32.99,0.06c-0.02-4.13-2.94-7.48-6.52-7.48
				c-3.58,0-6.51,3.37-6.52,7.51l-5.96,0.01c-0.08,0-0.16-0.01-0.23-0.01c-0.08-0.01-0.16-0.02-0.23-0.04h-0.09l-24.45,0.05
				c-1.52,0-2.72-1.28-2.58-2.8c0.18-1.94,0.43-4.58,0.65-6.96c0.08-0.77,0.15-1.51,0.21-2.18c0.17-1.79,0.89-3.46,2.05-4.81v-0.02
				c0.3-0.35,0.64-0.68,0.99-0.98l6.45-5.44l9.93-15.11c1.59-2.41,4.28-3.86,7.16-3.86h62.47c0.65,0,1.27,0.12,1.85,0.34
				c0.43,0.17,0.83,0.39,1.2,0.66c0.24,0.18,0.47,0.38,0.68,0.6c0.43,0.44,0.77,0.96,1.01,1.53c0.06,0.13,0.11,0.27,0.16,0.41
				c0.1,0.3,0.17,0.62,0.21,0.95L411.632,397.81z"/>
			<path style="opacity:0.3;fill:#FFFFFF;enable-background:new    ;" d="M411.635,397.81v15.74c0,1.09-0.89,1.98-1.98,1.98
				l-3.07,0.01c-0.05-4.09-2.96-7.4-6.51-7.4c-3.56,0-6.47,3.32-6.52,7.42l-32.99,0.07v-0.01c-0.02-4.13-2.94-7.48-6.52-7.48
				c-3.58,0-6.51,3.37-6.52,7.51v0.01l-5.95,0.01c-0.08,0-0.16,0-0.24-0.02c-0.11,0-0.22-0.02-0.32-0.04
				c-1.24-0.27-2.13-1.43-2.02-2.75c0.16-1.83,0.4-4.3,0.62-6.57c0.08-0.9,0.17-1.78,0.24-2.57c0.22-2.26,1.31-4.34,3.05-5.81
				l1.64-1.39l4.8-4.05l8.05-15.3c0.45-0.86,1.07-1.6,1.81-2.18c1.19-0.95,2.68-1.49,4.25-1.49h40.44c0.65,0,1.27,0.12,1.85,0.34
				c0.43,0.17,0.83,0.39,1.2,0.66c0.24,0.18,0.47,0.38,0.68,0.6c0.43,0.44,0.77,0.96,1.01,1.53c0.06,0.13,0.11,0.27,0.16,0.41
				c0.1,0.3,0.18,0.62,0.22,0.95l2.38,18l0.13,1L411.635,397.81z"/>
			<polygon style="fill:#263238;" points="325.526,391.877 348.184,391.877 354.918,379.482 333.765,379.482 			"/>
			<path style="opacity:0.6;fill:#FFFFFF;enable-background:new    ;" d="M316.708,405.967c0,0-1.187,0.487-2.074-0.062
				c0.075-0.775,0.15-1.512,0.212-2.187c0.162-1.787,0.887-3.461,2.049-4.811c0.188,0.325,0.45,0.875,0.55,1.537
				C317.62,401.518,316.708,405.967,316.708,405.967z"/>
			<path style="opacity:0.2;" d="M318.028,400.776h17.88c0,0-2.225,4.532-1.895,5.85c0,0-4.12,1.978-9.311,1.978
				c-5.191,0-7.234-2.437-7.234-2.437S318.193,401.517,318.028,400.776z"/>
			<path style="fill:#FFFFFF;enable-background:new    ;" d="M337.555,411.64c0,0.871-0.535,1.577-1.195,1.577
				s-1.195-0.706-1.195-1.577c0-0.871,0.535-1.577,1.195-1.577S337.555,410.769,337.555,411.64z"/>
			<ellipse style="fill:#FFFFFF;enable-background:new    ;" cx="316.051" cy="411.535" rx="1.195" ry="1.577"/>
			<ellipse style="fill:#FFFFFF;enable-background:new    ;" cx="332.65" cy="412.376" rx="0.637" ry="0.841"/>
			<ellipse style="fill:#FFFFFF;enable-background:new    ;" cx="318.568" cy="412.376" rx="0.637" ry="0.841"/>
			<path style="fill:#263238;" d="M350.978,392.468l7.066-12.986h9.268v12.395c0,0-7.566-0.082-9.268,3.378h-7.066V392.468z"/>
			<rect x="368.639" y="379.482" style="fill:#263238;" width="11.267" height="12.395"/>
			<g>
				<path style="fill:#407BFF;" d="M340.6,396.063h-0.416l3.23-2.606h0.392l-1.3,2.606h-0.41l0.313-0.603h-1.071L340.6,396.063z
					 M342.605,395.08l0.588-1.139l-1.393,1.139H342.605z"/>
				<path style="fill:#407BFF;" d="M337.565,396.063l2.267-2.606h0.327l-0.665,1.727l2.351-1.727h0.327l-2.263,2.606h-0.379
					l1.481-1.705l-1.926,1.407h-0.177l0.538-1.429l-1.503,1.727H337.565z"/>
				<path style="fill:#407BFF;" d="M336.644,394.708c-0.071-0.108-0.01-0.305,0.222-0.573c0.359-0.413,0.864-0.678,1.378-0.678
					h1.003l-2.264,2.606h-1.064c-0.551,0-0.612-0.26-0.224-0.707C335.99,395.017,336.336,394.798,336.644,394.708z M336.273,395.684
					h0.642l0.653-0.752h-0.642c-0.3,0-0.562,0.115-0.788,0.376C335.912,395.568,335.974,395.684,336.273,395.684z M337.956,393.837
					c-0.275,0-0.535,0.119-0.745,0.361c-0.207,0.238-0.154,0.357,0.121,0.357h0.563l0.624-0.718H337.956z"/>
				<path style="fill:#407BFF;" d="M333.699,396.101c-0.584,0-0.577-0.413,0.082-1.173l1.277-1.471h0.392l-1.262,1.452
					c-0.466,0.536-0.47,0.766-0.124,0.766c0.346,0,0.744-0.23,1.21-0.766l1.262-1.452h0.398l-1.277,1.471
					C334.997,395.688,334.286,396.101,333.699,396.101z"/>
				<path style="fill:#407BFF;" d="M332.235,396.063h-1.517l0.356-0.41h1.12l1.908-2.196h0.398L332.235,396.063z"/>
				<path style="fill:#407BFF;" d="M328.783,396.063h-0.416l3.23-2.606h0.391l-1.3,2.606h-0.41l0.313-0.603h-1.071L328.783,396.063z
					 M330.787,395.08l0.588-1.139l-1.393,1.139H330.787z"/>
				<path style="fill:#407BFF;" d="M328.847,393.457l-1.533,1.765l2.714-1.765h0.327l-2.263,2.606h-0.395l1.533-1.765l-2.714,1.765
					h-0.328l2.264-2.606H328.847z"/>
				<path style="fill:#407BFF;" d="M324.586,396.101c-0.352,0-0.519-0.153-0.472-0.436l0.515-0.298
					c-0.025,0.209,0.081,0.309,0.304,0.309c0.444,0,1.094-0.379,1.56-0.915c0.466-0.536,0.474-0.915,0.03-0.915
					c-0.223,0-0.503,0.1-0.837,0.305l-0.001-0.294c0.445-0.283,0.876-0.435,1.225-0.435c0.658,0,0.659,0.562-0.017,1.34
					C326.219,395.538,325.241,396.101,324.586,396.101z"/>
				<path style="fill:#407BFF;" d="M323.338,395.657l0.624-0.718h-1.034l0.346-0.399h1.034l0.588-0.677h-1.166l0.353-0.406h1.563
					l-2.264,2.606h-1.605l0.352-0.406H323.338z"/>
			</g>
			<rect x="394.257" y="380.55" style="fill:#407BFF;" width="2.69" height="11.327"/>
			
				<rect x="394.256" y="380.55" transform="matrix(-1.836970e-16 1 -1 -1.836970e-16 781.8148 -9.3879)" style="fill:#407BFF;" width="2.69" height="11.327"/>
			<g>
				<path style="fill:#407BFF;" d="M411.525,396.99h-35.43c-4.59,0-9.04,1.32-12.88,3.83l-2.27,1.47h-17.92v-1h17.63l2.01-1.31
					c4.01-2.61,8.65-3.99,13.43-3.99h35.3L411.525,396.99z"/>
			</g>
			<path style="fill:#FFFFFF;enable-background:new    ;" d="M334.672,406.296c0.271-1.842,1.747-5.511,3.131-6.756
				c1.373-1.235,6.344-3.344,6.742-3.02c2.121,1.731-3.296,8.78-4.936,9.772C337.967,407.285,334.502,407.449,334.672,406.296z"/>
		</g>
	</g>
</g>
</svg>
