<?xml version="1.0" encoding="utf-8"?>
<!-- Generator: Adobe Illustrator 27.5.0, SVG Export Plug-In . SVG Version: 6.00 Build 0)  -->
<svg version="1.1" xmlns="http://www.w3.org/2000/svg" xmlns:xlink="http://www.w3.org/1999/xlink" x="0px" y="0px"
	 viewBox="0 0 500 500" style="enable-background:new 0 0 500 500;" xml:space="preserve">
<g id="BACKGROUND">
	<rect style="fill:#FFFFFF;" width="500" height="500"/>
</g>
<g id="OBJECTS">
	<g>
		<defs>
			<rect id="SVGID_1_" transform="matrix(-1 -4.489266e-11 4.489266e-11 -1 500 500)" width="500" height="500"/>
		</defs>
		<clipPath id="SVGID_00000037679212983030480000000013620012601499609249_">
			<use xlink:href="#SVGID_1_"  style="overflow:visible;"/>
		</clipPath>
		
			<rect x="0" y="1.215" transform="matrix(-1 -6.734625e-11 6.734625e-11 -1 500 502.4299)" style="clip-path:url(#SVGID_00000037679212983030480000000013620012601499609249_);fill:#CFD5EE;" width="500" height="500"/>
		
			<rect style="clip-path:url(#SVGID_00000037679212983030480000000013620012601499609249_);fill:#EEF2FA;" width="500" height="369.167"/>
		<g style="clip-path:url(#SVGID_00000037679212983030480000000013620012601499609249_);">
			<rect x="200.543" y="94.342" style="fill:#CFD5EE;" width="71.137" height="90.192"/>
			<rect x="205.535" y="100.671" style="fill:#E8ECF7;" width="61.154" height="77.535"/>
			<rect x="390.856" y="94.342" style="fill:#CFD5EE;" width="110.559" height="119.685"/>
			<rect x="395.847" y="100.671" style="fill:#E8ECF7;" width="105.567" height="107.028"/>
			<rect x="280.506" y="94.342" style="fill:#CFD5EE;" width="38.064" height="39.19"/>
			<rect x="284.471" y="98.424" style="fill:#E8ECF7;" width="30.135" height="31.027"/>
			<rect x="280.943" y="138.128" style="fill:#CFD5EE;" width="47.218" height="56.399"/>
			<rect x="285.174" y="143.182" style="fill:#E8ECF7;" width="38.754" height="46.29"/>
			<rect x="210.004" y="107.024" style="fill:#CFD5EE;" width="17.167" height="15.171"/>
			<g>
				<rect x="210.004" y="146.143" style="fill:#CFD5EE;" width="4.404" height="3.892"/>
				<rect x="216.154" y="146.143" style="fill:#CFD5EE;" width="47.129" height="3.892"/>
			</g>
			<g>
				<rect x="210.004" y="152.757" style="fill:#CFD5EE;" width="4.404" height="3.892"/>
				<rect x="216.154" y="152.757" style="fill:#CFD5EE;" width="47.129" height="3.892"/>
			</g>
			<g>
				<rect x="210.004" y="159.371" style="fill:#CFD5EE;" width="4.404" height="3.892"/>
				<rect x="216.154" y="159.371" style="fill:#CFD5EE;" width="47.129" height="3.892"/>
			</g>
			<g>
				<rect x="210.004" y="165.985" style="fill:#CFD5EE;" width="4.404" height="3.892"/>
				<rect x="216.154" y="165.985" style="fill:#CFD5EE;" width="47.129" height="3.892"/>
			</g>
			<rect x="210.004" y="127.974" style="fill:#CFD5EE;" width="28.062" height="15.171"/>
			<rect x="241.084" y="127.974" style="fill:#CFD5EE;" width="22.226" height="15.171"/>
			<rect x="229.526" y="107.024" style="fill:#CFD5EE;" width="34.772" height="2.193"/>
			<rect x="229.526" y="110.667" style="fill:#CFD5EE;" width="34.772" height="2.193"/>
			<rect x="229.526" y="114.31" style="fill:#CFD5EE;" width="21.573" height="2.193"/>
			<rect x="229.526" y="117.953" style="fill:#CFD5EE;" width="21.573" height="2.193"/>
			<rect x="289.12" y="147.955" style="fill:#CFD5EE;" width="13.692" height="12.099"/>
			<rect x="304.689" y="147.955" style="fill:#CFD5EE;" width="15.545" height="1.749"/>
			<rect x="304.689" y="150.86" style="fill:#CFD5EE;" width="15.545" height="1.749"/>
			<rect x="304.689" y="153.766" style="fill:#CFD5EE;" width="9.644" height="1.749"/>
			<rect x="304.689" y="156.671" style="fill:#CFD5EE;" width="9.644" height="1.749"/>
			<rect x="289.12" y="163.678" style="fill:#CFD5EE;" width="13.692" height="12.1"/>
			<rect x="289.12" y="178.21" style="fill:#CFD5EE;" width="31.392" height="7.8"/>
			<rect x="304.689" y="163.678" style="fill:#CFD5EE;" width="15.545" height="1.749"/>
			<rect x="304.689" y="166.584" style="fill:#CFD5EE;" width="15.545" height="1.749"/>
			<rect x="304.689" y="169.489" style="fill:#CFD5EE;" width="9.644" height="1.749"/>
			<rect x="304.689" y="172.394" style="fill:#CFD5EE;" width="9.644" height="1.749"/>
			<rect x="296.31" y="101.226" style="fill:#CFD5EE;" width="6.456" height="6.456"/>
			<g>
				<rect x="287.761" y="111.15" style="fill:#CFD5EE;" width="4.726" height="4.726"/>
				<rect x="296.923" y="111.15" style="fill:#CFD5EE;" width="4.726" height="4.726"/>
				<rect x="306.589" y="111.15" style="fill:#CFD5EE;" width="4.726" height="4.726"/>
			</g>
			<g>
				<rect x="287.761" y="120.059" style="fill:#CFD5EE;" width="4.726" height="4.726"/>
				<rect x="296.923" y="120.059" style="fill:#CFD5EE;" width="4.726" height="4.726"/>
				<rect x="306.589" y="120.059" style="fill:#CFD5EE;" width="4.726" height="4.726"/>
			</g>
			<g>
				<g>
					<path style="fill:#CFD5EE;" d="M299.02,107.624c0.007,1.243-0.03,2.524,0.264,3.74c0.044,0.18,0.325,0.141,0.322-0.044
						c-0.017-1.235-0.249-2.463-0.313-3.697C299.284,107.45,299.019,107.447,299.02,107.624L299.02,107.624z"/>
				</g>
			</g>
			<g>
				<g>
					<path style="fill:#CFD5EE;" d="M290.764,111.704c-1.187-2.829,3.841-2.508,5.026-2.496c1.635,0.016,3.271,0.058,4.906,0.085
						c1.472,0.025,2.944,0.046,4.415,0.066c0.905,0.012,2.318-0.014,2.871,0.945c0.246,0.426,0.218,1.357,0.405,1.873
						c0.062,0.172,0.372,0.164,0.345-0.047c-0.165-1.303-0.086-2.806-1.556-3.232c-1.053-0.305-2.449-0.082-3.537-0.104
						c-1.799-0.035-3.598-0.066-5.397-0.095c-1.885-0.031-9.755-0.95-7.893,3.18C290.454,112.11,290.863,111.941,290.764,111.704
						L290.764,111.704z"/>
				</g>
			</g>
			<g>
				<g>
					<path style="fill:#CFD5EE;" d="M289.758,115.471c0.018,1.868,0.026,3.79,0.335,5.636c0.034,0.202,0.356,0.151,0.353-0.048
						c-0.026-1.864-0.208-3.722-0.219-5.589C290.225,115.169,289.755,115.168,289.758,115.471L289.758,115.471z"/>
				</g>
			</g>
			<g>
				<g>
					<path style="fill:#CFD5EE;" d="M290.063,117.788c1.466-0.112,2.923-0.213,4.393-0.116c0.627,0.041,1.461,0.02,2.054,0.259
						c1.458,0.59,1.234,1.647,1.608,2.748c0.078,0.229,0.489,0.211,0.453-0.061c-0.191-1.447-0.356-2.737-1.921-3.192
						c-2.02-0.587-4.594-0.329-6.632,0.024C289.827,117.484,289.869,117.803,290.063,117.788L290.063,117.788z"/>
				</g>
			</g>
			<g>
				<g>
					<path style="fill:#CFD5EE;" d="M309.008,115.379c-0.155,1.769-0.393,3.641-0.201,5.412c0.033,0.307,0.441,0.305,0.477,0
						c0.209-1.781,0.115-3.619,0.224-5.412C309.528,115.056,309.036,115.063,309.008,115.379L309.008,115.379z"/>
				</g>
			</g>
			
				<rect x="437.239" y="139.8" transform="matrix(0.9858 -0.1681 0.1681 0.9858 -18.6266 77.2464)" style="fill:#98C4F9;" width="19.419" height="17.685"/>
			
				<rect x="473.551" y="181.165" transform="matrix(0.9787 0.2054 -0.2054 0.9787 49.0519 -94.9201)" style="fill:#FFFFFF;" width="16.298" height="15.258"/>
			<rect x="407.566" y="127.664" style="fill:#FFFFFF;" width="16.298" height="15.258"/>
			
				<rect x="439.893" y="168.681" transform="matrix(0.972 0.2352 -0.2352 0.972 53.9479 -101.0999)" style="fill:#F5A860;" width="21.846" height="13.871"/>
			<rect x="468.102" y="128.704" style="fill:#D09479;" width="15.258" height="15.605"/>
			<path style="fill:#F5A860;" d="M417.295,127.783c0,0.882-0.715,1.598-1.597,1.598c-0.882,0-1.598-0.715-1.598-1.598
				c0-0.882,0.715-1.598,1.598-1.598C416.58,126.185,417.295,126.9,417.295,127.783z"/>
		</g>
		<g style="clip-path:url(#SVGID_00000037679212983030480000000013620012601499609249_);">
			<g>
				<path style="fill:#CFD5EE;" d="M408.464,115.69c0.05,0,0.05-0.078,0-0.078C408.414,115.612,408.414,115.69,408.464,115.69
					L408.464,115.69z"/>
			</g>
		</g>
		
			<rect x="-176.867" y="351.427" style="clip-path:url(#SVGID_00000037679212983030480000000013620012601499609249_);fill:#EEF2FA;" width="761.534" height="18.955"/>
		<g style="clip-path:url(#SVGID_00000037679212983030480000000013620012601499609249_);">
			<g>
				<g>
					<g style="opacity:0.45;">
						<polygon style="fill:#ABB6D8;" points="-99.961,370.382 8.543,370.382 77.459,370.382 77.459,30.477 -99.961,30.477 						"/>
					</g>
					<g>
						<polygon style="fill:#90AADE;" points="-87.005,370.382 8.07,370.382 68.457,370.382 68.457,40.301 -87.005,40.301 						"/>
					</g>
					<g>
						<defs>
							<polygon id="SVGID_00000182486957645192395210000004272184308427016859_" points="-87.005,370.382 8.07,370.382 
								68.457,370.382 68.457,40.301 -87.005,40.301 							"/>
						</defs>
						<clipPath id="SVGID_00000155844733266650006120000004340191181941707167_">
							<use xlink:href="#SVGID_00000182486957645192395210000004272184308427016859_"  style="overflow:visible;"/>
						</clipPath>
					</g>
					<g>
						<g>
							<path style="fill:#90AADE;" d="M70.491,368.447c0-37.165,0-74.331,0-111.496c0-58.768,0-117.537,0-176.305
								c0-13.448,0-26.896,0-40.344c0-1.1-0.932-2.035-2.035-2.035c-45.395,0-90.789,0-136.184,0c-6.426,0-12.851,0-19.277,0
								c-1.1,0-2.035,0.932-2.035,2.035c0,37.165,0,74.331,0,111.496c0,58.768,0,117.537,0,176.305c0,13.448,0,26.896,0,40.344
								c0,2.619,4.07,2.623,4.07,0c0-37.165,0-74.331,0-111.496c0-58.768,0-117.537,0-176.305c0-13.448,0-26.896,0-40.344
								c-0.678,0.678-1.357,1.357-2.035,2.035c45.395,0,90.789,0,136.184,0c6.426,0,12.851,0,19.277,0
								c-0.678-0.678-1.357-1.357-2.035-2.035c0,37.165,0,74.331,0,111.496c0,58.768,0,117.537,0,176.305
								c0,13.448,0,26.896,0,40.344C66.422,371.065,70.491,371.07,70.491,368.447L70.491,368.447z"/>
						</g>
					</g>
					
						<rect x="-87.005" y="40.301" transform="matrix(-1 -1.224647e-16 1.224647e-16 -1 -18.5481 410.6832)" style="opacity:0.19;fill:none;stroke:#FFFFFF;stroke-width:0.8164;stroke-miterlimit:10;" width="155.461" height="330.081"/>
					
						<rect x="-70.672" y="56.785" transform="matrix(-1 -1.224647e-16 1.224647e-16 -1 -17.0357 426.6088)" style="fill:#D6E6F9;" width="124.308" height="313.039"/>
					<rect x="-70.672" y="56.785" style="fill:#8197D0;" width="6.805" height="313.039"/>
					<g>
						<polygon style="fill:#546A9B;" points="-63.8,56.801 53.533,56.968 53.533,370.636 -63.8,370.718 						"/>
					</g>
					<g>
						<g>
							<path style="fill:#627EAF;" d="M38.28,78.494c-26.436-0.302-52.873-0.605-79.309-0.907c-0.391-0.004-0.724,0.335-0.724,0.724
								c0,29.577,0,59.155,0,88.732c0,47.182,0,94.364,0,141.546c0,10.882,0,21.764,0,32.646c0,0.393,0.332,0.722,0.724,0.724
								c26.436,0.161,52.873,0.323,79.309,0.484c0.391,0.002,0.724-0.334,0.724-0.724c0-29.653,0-59.306,0-88.96
								c0-47.046,0-94.092,0-141.138c0-10.801,0-21.601,0-32.402c0-0.932-1.448-0.933-1.448,0c0,44.749,0,89.499,0,134.248
								c0,30.186,0,60.371,0,90.557c0,9.535,0,19.07,0,28.605c0,2.388-0.259,4.942,0,7.318c0.053,0.485,0.025,1.037,0,1.527
								c0.002-0.034,1.167-0.158-0.067-0.483c-3.874-1.02-9.351-0.057-13.329-0.081c-7.679-0.047-15.358-0.094-23.036-0.141
								c-13.299-0.081-26.597-0.162-39.896-0.243c-0.544-0.003-1.131-0.069-1.672-0.01c-0.998,0.109-0.151-0.405,0.14,0.715
								c-0.058-0.223-0.061-0.758,0-0.962c0.515-1.731,0-4.424,0-6.216c0-8.949,0-17.897,0-26.846c0-60.751,0-121.503,0-182.254
								c0-10.762,0-21.523,0-32.285c0-4.457-0.802-9.767,0-14.175c-0.088,0.486-1.155,0.221,0.067,0.553
								c1.496,0.406,3.635,0.042,5.177,0.059c6.493,0.074,12.986,0.149,19.478,0.223c15.162,0.173,30.324,0.347,45.487,0.52
								c2.792,0.032,5.584,0.064,8.377,0.096C39.213,79.952,39.213,78.504,38.28,78.494z"/>
						</g>
					</g>
					<g>
						<defs>
							<polygon id="SVGID_00000140005418915064481320000007168812729316371088_" points="12.351,85.821 -46.741,78.31 
								-46.741,341.234 12.351,338.671 							"/>
						</defs>
						<clipPath id="SVGID_00000147910224474413530090000007320721755535783097_">
							<use xlink:href="#SVGID_00000140005418915064481320000007168812729316371088_"  style="overflow:visible;"/>
						</clipPath>
					</g>
					<g>
						<polygon style="fill:#627EAF;" points="27.421,94.968 -25.901,94.697 -25.901,150.753 27.421,151.468 						"/>
					</g>
				</g>
				
					<line style="opacity:0.19;fill:none;stroke:#E0EEF7;stroke-width:0.8164;stroke-miterlimit:10;" x1="68.457" y1="40.301" x2="53.636" y2="56.785"/>
				
					<line style="opacity:0.19;fill:#73A3EF;stroke:#FFFFFF;stroke-width:0.8164;stroke-miterlimit:10;" x1="-87.005" y1="40.301" x2="-70.672" y2="56.785"/>
			</g>
		</g>
		<g style="clip-path:url(#SVGID_00000037679212983030480000000013620012601499609249_);">
			<defs>
				
					<rect id="SVGID_00000008139275201700897550000009864791043074117536_" x="-93" y="370.051" transform="matrix(-1 -4.489754e-11 4.489754e-11 -1 564 871.266)" width="750" height="131.164"/>
			</defs>
			<clipPath id="SVGID_00000121966847788489088830000007098115610775586948_">
				<use xlink:href="#SVGID_00000008139275201700897550000009864791043074117536_"  style="overflow:visible;"/>
			</clipPath>
			<g style="clip-path:url(#SVGID_00000121966847788489088830000007098115610775586948_);">
				<g>
					
						<line style="fill:none;stroke:#E1E6F3;stroke-width:0.9891;stroke-miterlimit:10;" x1="198.039" y1="355.698" x2="61.947" y2="649.914"/>
					
						<line style="fill:none;stroke:#E1E6F3;stroke-width:0.9891;stroke-miterlimit:10;" x1="291.328" y1="355.698" x2="232.062" y2="658.505"/>
					
						<line style="fill:none;stroke:#E1E6F3;stroke-width:0.9891;stroke-miterlimit:10;" x1="392.3" y1="355.698" x2="387.91" y2="668.169"/>
					
						<line style="fill:none;stroke:#E1E6F3;stroke-width:0.9891;stroke-miterlimit:10;" x1="494.369" y1="355.698" x2="567.903" y2="668.169"/>
					
						<line style="fill:none;stroke:#E1E6F3;stroke-width:0.9891;stroke-miterlimit:10;" x1="601.926" y1="362.14" x2="736.921" y2="653.136"/>
					
						<line style="fill:none;stroke:#E1E6F3;stroke-width:0.9891;stroke-miterlimit:10;" x1="80.605" y1="370.731" x2="-85.121" y2="643.472"/>
					
						<line style="fill:none;stroke:#E1E6F3;stroke-width:0.9891;stroke-miterlimit:10;" x1="-43.415" y1="352.476" x2="-225.603" y2="621.996"/>
				</g>
				
					<line style="fill:none;stroke:#E1E6F3;stroke-width:0.9891;stroke-miterlimit:10;" x1="667.777" y1="429.789" x2="-103.778" y2="429.789"/>
				
					<line style="fill:none;stroke:#E1E6F3;stroke-width:0.9891;stroke-miterlimit:10;" x1="667.777" y1="479.77" x2="-103.778" y2="479.77"/>
			</g>
		</g>
		<g style="clip-path:url(#SVGID_00000037679212983030480000000013620012601499609249_);">
			<g>
				<g>
					<path style="fill:#4B742A;" d="M413.987,284.457c-0.04-3.707,1.122-7.903,3.307-10.897c0.898-1.23,1.826-2.49,3.113-3.304
						c0.564-0.357,1.188-0.621,1.715-1.03c0.762-0.59,1.277-1.441,1.969-2.112c0.841-0.815,1.948-1.351,3.108-1.504
						c-1.07,0.486-1.755,1.551-2.238,2.623c-0.483,1.071-0.833,2.218-1.519,3.173c-3.746,5.215-5.707,11.412-6.264,17.827"/>
				</g>
				<g>
					<path style="fill:#568336;" d="M411.205,289.069c0.284-2.689,0.555-5.382,0.676-8.084c0.105-2.322,0.692-5.035-0.44-7.153
						c-0.608-1.138-1.428-2.179-1.805-3.413c-0.631-2.063,0.009-4.537-1.285-6.264c1.625,1.583,3.25,3.166,4.875,4.748
						c0.614,0.598,1.235,1.205,1.677,1.939c0.309,0.513,0.524,1.077,0.737,1.638c2,5.265,4.324,11.481,1.866,17.03"/>
				</g>
				<g>
					<path style="fill:#74AA51;" d="M414.802,300.136c-3.021,3.357-9.476-1.418-11.795-4.06c-2.411-2.747-3.746-6.472-6.727-8.586
						c-2.405-1.706-5.481-2.07-8.413-2.381c4.359-1.744,6.827-1.039,11.305,0.374c4.478,1.412,15.084,8.88,14.008,14.007"/>
				</g>
				<g>
					<g>
						<path style="fill:#90CC6A;" d="M412.852,272.608c1.893,4.638,2.754,9.695,2.428,14.7c-0.277,4.248-1.676,8.308-0.563,12.548
							c0.042,0.162,0.278,0.092,0.248-0.068c-0.924-4.846,0.656-9.411,0.696-14.251c0.038-4.508-0.957-8.816-2.693-12.96
							C412.939,272.507,412.823,272.536,412.852,272.608L412.852,272.608z"/>
					</g>
				</g>
				<g>
					<g>
						<path style="fill:#90CC6A;" d="M420.781,272.528c-2.301,3.355-2.673,7.374-3.16,11.312
							c-0.635,5.127-0.893,10.331-2.421,15.294c-0.041,0.134,0.159,0.184,0.206,0.057c3.169-8.473,0.626-18.705,5.478-26.602
							C420.926,272.522,420.824,272.465,420.781,272.528L420.781,272.528z"/>
					</g>
				</g>
				<g>
					<path style="fill:#74AA51;" d="M413.584,294.652c-1.633-1.27-2.59-3.946-3.162-5.934c-1.094-3.804-1.076-7.708-4.405-10.442
						c-0.75-0.616-1.6-1.131-2.199-1.895c-1.291-1.649-1.215-4.204-2.84-5.527c1.199,0.976,2.088,1.789,3.669,2.125
						c1.365,0.29,2.318,0.666,3.54,1.387c2.601,1.535,4.667,3.958,5.856,6.727c1.925,4.483,1.761,9.635,0.55,14.361"/>
				</g>
				<g>
					<path style="fill:#4B742A;" d="M412.077,300.459c-0.141-4.638,2.305-9.16,3.988-13.31c1.843-4.545,3.536-9.004,8.378-11.166
						c0.679-0.303,1.389-0.541,2.035-0.907c1.055-0.598,1.893-1.508,2.852-2.25c0.959-0.742,2.152-1.337,3.347-1.131
						c-1.945,0.663-2.57,3.067-3.964,4.577c-0.592,0.641-1.332,1.123-1.977,1.71c-3.328,3.034-3.621,7.497-4.754,11.546
						c-1.617,5.779-2.542,9.381-8.34,10.928"/>
				</g>
				<g>
					<g>
						<path style="fill:#90CC6A;" d="M414.893,299.852c2.994-4.333,3.889-8.659,4.867-13.732c0.592-3.074,2.249-5.676,4.664-7.658
							c0.808-0.663,1.729-1.102,2.558-1.722c1.026-0.767,1.703-2.241,2.788-2.856c0.111-0.063,0.013-0.225-0.099-0.17
							c-0.746,0.366-1.034,0.763-1.548,1.401c-0.935,1.16-2.071,1.78-3.247,2.635c-1.955,1.422-3.72,3.577-4.643,5.819
							c-0.936,2.273-0.974,4.83-1.54,7.203c-0.767,3.218-2.116,6.242-3.904,9.018C414.747,299.857,414.849,299.914,414.893,299.852
							L414.893,299.852z"/>
					</g>
				</g>
				<g>
					<g>
						<path style="fill:#90CC6A;" d="M407.609,276.142c4.705,3.088,4.755,8.971,4.985,14.016c0.137,3.018-0.613,7.613,1.47,10.115
							c0.062,0.074,0.188-0.023,0.134-0.104c-1.504-2.256-1.135-5.442-1.253-8.045c-0.118-2.615-0.119-5.274-0.503-7.868
							c-0.493-3.333-1.815-6.413-4.769-8.226C407.603,275.988,407.54,276.097,407.609,276.142L407.609,276.142z"/>
					</g>
				</g>
				<g>
					<path style="fill:#699D46;" d="M414.363,300.103c2.446-0.274,4.804-1.29,6.684-2.88c3.983-3.367,5.582-8.945,9.608-12.261
						c1.584-1.304,3.499-2.201,5.515-2.583c-1.618-1.214-3.818-1.313-5.819-1.021c-7.609,1.11-13.808,7.108-17.139,14.039"/>
				</g>
				<g>
					<path style="fill:#4B742A;" d="M411.874,299.243c-1.772-2.726-3.425-5.529-5.155-8.282c-1.094-1.74-2.256-3.438-3.351-5.177
						c-0.901-1.431-1.993-2.641-2.832-4.142c-0.665-1.189-1.545-2.414-2.865-2.748c-1.008-0.255-2.1,0.064-3.099-0.223
						c-1.127-0.323-1.959-1.473-1.912-2.645c0.181,0.616,0.91,0.916,1.55,0.878c0.64-0.037,1.237-0.319,1.857-0.487
						c2.676-0.727,5.417,0.688,7.829,2.056c1.344,0.762,2.725,1.556,3.664,2.782c0.631,0.824,1.027,1.799,1.416,2.761
						c1.886,4.669,4.382,8.871,5.483,13.899"/>
				</g>
				<g>
					<g>
						<path style="fill:#90CC6A;" d="M393.284,285.22c4.896,0.564,7.736,4.768,10.846,8.069c2.707,2.873,6.135,5.193,9.552,7.132
							c0.132,0.075,0.247-0.123,0.119-0.203c-4.309-2.716-8.036-5.563-11.46-9.339c-2.427-2.676-5.317-5.367-9.057-5.779
							C393.207,285.091,393.208,285.211,393.284,285.22L393.284,285.22z"/>
					</g>
				</g>
				<g>
					<g>
						<path style="fill:#90CC6A;" d="M396.084,277.418c2.12,0.068,3.772,0.058,5.386,1.738c0.695,0.723,1.171,1.525,1.993,2.166
							c1.031,0.803,2.191,1.407,3.074,2.394c1.182,1.321,1.83,3.122,2.232,4.824c0.987,4.182,1.256,9.1,4.926,11.86
							c0.084,0.064,0.193-0.077,0.113-0.147c-2.487-2.161-3.607-5.714-4.272-8.923c-0.522-2.52-0.721-5.04-2.3-7.2
							c-0.649-0.888-1.44-1.503-2.308-2.148c-1.373-1.02-2.385-1.958-3.478-3.241c-1.455-1.708-3.263-1.388-5.365-1.446
							C396.005,277.292,396.005,277.415,396.084,277.418L396.084,277.418z"/>
					</g>
				</g>
				<g>
					<g>
						<path style="fill:#90CC6A;" d="M415.183,299.963c2.954-2.149,2.403-6.448,4.837-8.98c0.664-0.691,1.548-1.139,2.271-1.763
							c0.896-0.772,1.563-1.742,2.349-2.616c2.092-2.326,4.924-2.921,7.831-3.639c0.117-0.029,0.065-0.193-0.049-0.176
							c-2.277,0.342-4.666,0.86-6.567,2.237c-1.932,1.4-3.321,3.509-5.196,5.026c-3.159,2.555-2.543,7.196-5.553,9.811
							C415.052,299.91,415.125,300.006,415.183,299.963L415.183,299.963z"/>
					</g>
				</g>
				<g>
					<polygon style="fill:#FCFBFC;" points="413.284,297.564 425.89,297.564 422.848,317.915 413.284,317.915 403.719,317.915 
						400.677,297.564 					"/>
				</g>
			</g>
			<g>
				<g>
					<g>
						<g>
							<g>
								<path style="fill:#EBC0B3;" d="M488.316,426.235l-1.465-78.301h5.209l-1.465,78.301c-0.017,0.794-0.527,1.438-1.14,1.438
									C488.843,427.673,488.333,427.029,488.316,426.235z"/>
							</g>
						</g>
					</g>
					<g>
						<g>
							<g>
								<path style="fill:#EBC0B3;" d="M530.986,423.186l-30.252-72.236l4.841-1.922l27.529,73.316
									c0.277,0.745,0.04,1.531-0.529,1.757C532.007,424.328,531.295,423.918,530.986,423.186z"/>
							</g>
						</g>
					</g>
					<g>
						<g>
							<g>
								<path style="fill:#EBC0B3;" d="M447.925,423.186l30.252-72.236l-4.841-1.922l-27.529,73.316
									c-0.277,0.745-0.04,1.531,0.529,1.757C446.904,424.328,447.616,423.918,447.925,423.186z"/>
							</g>
						</g>
					</g>
				</g>
				<g>
					<path style="fill:#5C87C7;" d="M469.18,326.154c-1.635-21.918,0.043-44.292,6.382-65.428
						c5.197-17.329,23.468-21.658,38.6-12.649c14.571,8.675,22.771,25.689,27.422,41.165c4.478,14.898,7.394,32.041,3.088,47.317
						c-4.678,16.595-20.587,22.627-36.283,24.209c-20.673,2.084-42,1.366-62.214-3.703c-6.287-1.577-13.013-6.918-5.551-12.49
						c6.17-4.607,16.011-6.339,23.601-6.46"/>
				</g>
			</g>
			<g>
				<rect x="392.331" y="321.69" style="fill:#EEF2FA;" width="239.384" height="106.31"/>
				<g>
					<rect x="390.699" y="317.238" style="fill:#534E7A;" width="3.265" height="118.598"/>
					<rect x="630.083" y="317.238" style="fill:#534E7A;" width="3.265" height="118.598"/>
				</g>
				<rect x="384.081" y="317.238" style="fill:#F1C8B9;" width="255.885" height="8.904"/>
			</g>
			<g>
				<path style="fill:#FFFFFF;" d="M453.737,318.949h71.638l-14.439-41.269c-0.45-1.285-1.663-2.146-3.024-2.146h-66.039
					c-1.625,0-2.764,1.605-2.227,3.139L453.737,318.949z"/>
				
					<rect x="515.44" y="315.522" transform="matrix(-1 -1.224647e-16 1.224647e-16 -1 1069.8671 634.4719)" style="fill:#FFFFFF;" width="38.987" height="3.427"/>
			</g>
		</g>
		<g style="clip-path:url(#SVGID_00000037679212983030480000000013620012601499609249_);">
			<g>
				<path style="fill:#4B742A;" d="M162.228,208.832c-0.995,0.48-3.598-0.491-4.723-0.647c-1.485-0.206-3.014-0.237-4.51-0.195
					c-3.07,0.087-6.129,0.608-9.061,1.52c-5.82,1.809-11.268,5.204-14.983,10.092c-4.66,6.131-4.946,12.461-5.028,19.783
					c-0.021,1.85,0.077,3.704,0.358,5.533c0.085,0.555,0.678,4.755,1.218,4.833c0.262,0.038,0.497-0.152,0.687-0.336
					c2.802-2.722,3.813-6.637,5.787-9.903c1.14-1.886,2.697-3.539,3.966-5.366c3.035-4.369,6.114-8.707,9.19-13.047
					c1.441-2.033,2.883-4.066,4.328-6.097C149.457,215.002,162.228,208.832,162.228,208.832z"/>
				<g>
					<path style="fill:#90CC6A;" d="M126.032,294.436v38.255h0.863v-38.255c0-30.422,6.579-54.214,20.844-71.213l-0.299,0.176
						C133.039,240.571,126.032,263.806,126.032,294.436z"/>
				</g>
				<g>
					<path style="fill:#568336;" d="M119.659,309.622c2.604,4.28,3.928,9.193,3.928,14.617v8.438h0.101
						c0.245,0,0.489,0.007,0.741,0.007h0.022v-8.445c0-0.985-0.043-1.949-0.129-2.899c-0.144-1.626-0.41-3.201-0.806-4.726
						c-0.669-2.647-1.719-5.136-3.122-7.438L119.659,309.622z"/>
				</g>
				<path style="fill:#699D46;" d="M129.218,265.577c0.032-1.808,1.034-3.987,1.511-5.768c0.55-2.054,1.087-4.112,1.612-6.172
					c0.929-3.647,2.216-6.679,3.844-10.074c1.229-2.566,2.819-4.868,4.048-7.426c0.57-1.185,1.14-2.372,1.818-3.499
					c1.215-2.021,2.638-3.711,3.672-5.825c1.056-2.158,2.496-4.128,4.236-5.785c1.904-1.812,3.815-3.593,5.458-5.613
					c2.001-2.459,4.318-4.631,6.81-6.584c-0.99,0.775-4.117,0.777-5.395,1.081c-1.883,0.448-3.75,0.967-5.59,1.568
					c-1.291,0.421-2.563,0.576-3.769,1.257c-1.217,0.687-2.264,1.645-3.406,2.443c-2.162,1.51-4.648,2.474-6.996,3.674
					c-2.928,1.496-6.613,4.287-7.667,7.434c-1.173,3.504-3.674,6.135-4.44,9.834c-0.799,3.856-0.673,7.83-0.131,11.712
					c0.267,1.909,0.534,3.817,0.8,5.726c0.298,2.133,0.673,4.184,1.389,6.218C127.565,261.325,129.246,263.988,129.218,265.577z"/>
				<g>
					<path style="fill:#568336;" d="M64.132,306.779c0.396-1.779,2.454-3.851,3.605-5.249c1.44-1.75,3.06-3.371,4.973-4.604
						c1.545-0.995,3.246-1.718,4.858-2.599c3.46-1.892,6.645-4.568,10.534-5.224c2.289-0.386,4.631-0.028,6.925,0.329
						c3.901,0.608,7.838,1.225,11.518,2.653c3.681,1.429,7.135,3.755,9.21,7.114c3.093,5.009,5.726,10.39,7.339,16.075
						c-3.802-5.678-20.822-12.601-20.822-12.601l-12.515-0.463l-10.178,1.745c0,0-6.007,1.282-6.007,1.282
						c-1.398,0.298-2.827,0.494-4.235,0.74C67.766,306.252,65.683,306.981,64.132,306.779z"/>
					<path style="fill:#699D46;" d="M123.094,315.274c-0.381-0.598-0.51-1.572-0.782-2.235c-0.693-1.686-1.552-3.014-2.646-4.423
						c-2.428-3.128-4.555-6.095-7.743-8.549c-1.171-0.902-2.412-1.728-3.765-2.322c-1.152-0.506-2.371-0.837-3.585-1.167
						c-3.625-0.985-7.328-1.979-11.078-1.757c-1.364,0.081-2.715,0.322-4.079,0.402c-1.108,0.065-2.221,0.023-3.325,0.135
						c-2.027,0.205-3.962,0.922-5.871,1.632c-1.88,0.7-3.761,1.399-5.641,2.099c-1.187,0.442-2.393,0.893-3.408,1.651
						c-2.503,1.869-4.514,4.302-7.08,6.155c0.607-0.438,2.878-0.328,3.685-0.458c1.569-0.253,3.14-0.494,4.721-0.653
						c3.22-0.325,6.509-0.345,9.664,0.466c1.064,0.273,2.112,0.64,3.203,0.766c1.356,0.157,2.723-0.061,4.075-0.241
						c5.67-0.752,11.465-0.826,17.082,0.255c3.065,0.59,6.07,1.53,8.899,2.853C118.043,311.111,121.495,312.765,123.094,315.274z"/>
				</g>
				<path style="fill:#4B742A;" d="M162.13,247.63c-0.01,0.21-0.03,0.42-0.04,0.62l-0.03,0.36c-0.18,2.27-0.54,4.41-1.14,6.62
					c-0.4,1.42-0.51,2.96-0.6,4.5c-1.22,5.08-3.22,10.8-6.51,16.23c-2.18,2.27-4.63,4.32-6.59,6.79c-0.8,1.01-1.51,2.09-2.31,3.1
					c-1.16,1.46-2.44,2.67-3.83,3.71c-2.02,1.37-4.24,2.62-6.67,3.71c-0.34,0.15-0.7,0.3-1.05,0.45
					c0.461-0.198-0.406-5.426-0.442-6.007c-0.134-2.125-0.106-4.276,0.333-6.368c0.284-1.354,0.736-2.666,1.071-4.008
					c0.977-3.906,1.014-8.173,3.148-11.588c1.395-2.233,3.573-3.887,5.006-6.096c0.402-0.619,0.741-1.276,1.143-1.895
					c0.6-0.925,1.373-1.703,2.222-2.398c0.708-0.58,1.327-1.247,2.022-1.821c0.894-0.74,2.106-1.197,3.089-1.823
					c1.036-0.66,2.031-1.39,2.922-2.238c0.603-0.575,1.157-1.202,1.793-1.739c0.97-0.819,2.105-1.405,3.255-1.927
					c0.518-0.236,0.956-0.473,1.427-0.775c0.483-0.309,1.536-0.616,1.87-1.067C161.82,244.51,162.17,246.95,162.13,247.63z"/>
				<g>
					<path style="fill:#90CC6A;" d="M129.262,332.677c0.295,0,0.583-0.007,0.863-0.015c0.036-2,0.079-3.971,0.122-5.884
						c0.194-8.352,0.468-15.631,0.863-19.739c1.877-19.545,14.74-38.838,27.753-56.923l-0.698-0.503
						c-13.085,18.178-26.019,37.586-27.918,57.347c-0.396,4.122-0.669,11.43-0.863,19.804
						C129.341,328.685,129.298,330.663,129.262,332.677z"/>
				</g>
				<path style="fill:#699D46;" d="M162.13,247.62v0.01c-0.01,0.21-0.03,0.42-0.04,0.62l-0.03,0.36c-0.18,2.27-0.54,4.41-1.14,6.62
					c-0.4,1.42-0.51,2.96-0.6,4.5c-0.07,1.46-0.14,2.92-0.4,4.31c-0.54,2.86-1.45,5.68-3.03,8.14c-0.88,1.38-1.94,2.61-3.08,3.78
					c-2.18,2.27-4.63,4.32-6.59,6.79c-0.8,1.01-1.51,2.09-2.31,3.1c-1.16,1.46-2.44,2.67-3.82,3.7c0,0.01-0.01,0.01-0.01,0.01
					c-2.02,1.52-4.26,2.67-6.67,3.71c-0.34,0.15-0.7,0.3-1.05,0.45c5.23-17.65,28.86-49.75,28.86-49.75
					C161.82,244.51,162.17,246.95,162.13,247.62z"/>
				<path style="fill:#4B742A;" d="M120.305,280.489c-35.409-14.721-33.89-58.411-33.89-58.411c2.465,1.378,4.578,3.288,7.142,4.581
					c2.598,1.31,5.438,2.352,7.44,4.463c0.925,0.975,1.628,2.138,2.478,3.18c2.883,3.533,7.374,5.584,9.871,9.399
					c2.068,3.159,2.487,7.106,4.037,10.549c0.716,1.59,1.675,3.077,2.202,4.738c0.54,1.7,0.605,3.509,0.665,5.291
					C120.436,269.707,120.253,275.065,120.305,280.489z"/>
				<g>
					<path style="fill:#90CC6A;" d="M98.884,243.182c11.121,15.459,22.12,31.946,23.724,48.664
						c0.475,4.971,0.755,14.768,0.906,24.768c0.057,3.424,0.094,6.87,0.129,10.15c0.014,2.05,0.029,4.036,0.043,5.913
						c0.245,0,0.489,0.007,0.741,0.007c-0.014-1.885-0.029-3.87-0.05-5.927c-0.014-1.77-0.036-3.582-0.057-5.417
						c-0.137-11.539-0.417-23.796-0.978-29.566c-1.626-16.898-12.675-33.479-23.861-49.017c-0.122-0.166-0.352-0.209-0.518-0.086
						C98.797,242.793,98.761,243.023,98.884,243.182z"/>
				</g>
				<path style="fill:#699D46;" d="M120.305,280.489c-1.346-0.56-2.742-0.991-4.064-1.554c-1.25-0.533-2.239-1.558-3.38-2.273
					c-1.431-0.897-3.101-1.357-4.539-2.243c-1.381-0.851-2.496-2.061-3.593-3.255c-1.531-1.667-3.061-3.334-4.592-5.001
					c-1.259-1.371-2.524-2.749-3.543-4.307c-1.138-1.74-2.191-3.838-2.668-5.873c-0.462-1.97-1.367-3.576-2.249-5.425
					c-1.142-2.393-1.582-4.819-2.138-7.415c-0.265-1.237-0.531-2.476-0.902-3.685c-0.333-1.082-0.749-2.137-1.106-3.212
					c-0.9-2.71-1.575-5.593-1.273-8.455c0.163-1.543,1.178-4.327,0.157-5.715C86.488,222.177,114.165,259.802,120.305,280.489z"/>
			</g>
			<g>
				<polygon style="fill:#FFFFFF;" points="126.467,329.797 151.949,329.797 145.801,370.935 126.467,370.935 107.132,370.935 
					100.984,329.797 				"/>
			</g>
		</g>
		<g style="clip-path:url(#SVGID_00000037679212983030480000000013620012601499609249_);">
			<g>
				<g>
					<rect x="161.703" y="1.215" style="fill:#CFD5EE;" width="3.072" height="60.003"/>
				</g>
			</g>
			<g>
				<g>
					<path style="fill:#FFFFFF;" d="M152.657,74.647l21.785,0.173c-1.595,4.512-5.908,7.724-10.958,7.684
						C158.442,82.463,154.18,79.184,152.657,74.647z"/>
					<path style="fill:#CFD5EE;" d="M183.76,75.741l-40.893-0.168c-1.44-0.006-2.371-1.524-1.732-2.814
						c4.054-8.193,12.504-13.803,22.256-13.762c9.736,0.04,18.138,5.719,22.124,13.945C186.144,74.237,185.2,75.747,183.76,75.741z"
						/>
				</g>
				
					<linearGradient id="SVGID_00000179623997111498041060000007500769559921274798_" gradientUnits="userSpaceOnUse" x1="134.0433" y1="488.4291" x2="226.8563" y2="630.4148" gradientTransform="matrix(0.9066 0.4221 -0.4221 0.9066 212.1711 -425.0072)">
					<stop  offset="0" style="stop-color:#FFFFFF"/>
					<stop  offset="1" style="stop-color:#FFFFFF;stop-opacity:0"/>
				</linearGradient>
				<polygon style="opacity:0.3;fill:url(#SVGID_00000179623997111498041060000007500769559921274798_);" points="142.461,76.056 
					2.867,319.051 322.867,319.718 183.282,73.624 				"/>
			</g>
		</g>
	</g>
	<g>
		
			<rect x="102.197" y="334.247" transform="matrix(-1 -4.489354e-11 4.489354e-11 -1 464.4375 695.4675)" style="fill:#ABB6D8;" width="260.043" height="26.973"/>
		<g>
			
				<rect x="360.467" y="329.411" transform="matrix(-1 -4.410928e-11 4.410928e-11 -1 724.4808 787.6555)" style="fill:#534E7A;" width="3.546" height="128.833"/>
			
				<rect x="100.424" y="329.411" transform="matrix(-1 -4.410706e-11 4.410706e-11 -1 204.394 787.6555)" style="fill:#534E7A;" width="3.547" height="128.833"/>
		</g>
		<path style="fill:#F1C8B9;" d="M94.2,337.973c3.649,3.107,13.942,1.11,18.635,1.11c14.341,0,28.682,0,43.023,0
			c33.491,0,66.983,0,100.474,0c29.429,0,58.859,0,88.288,0c7.774,0,27.848,3.172,31.008-5.88c1.377-3.946-1.648-8.326-5.486-9.979
			s-8.2-1.316-12.368-1.017c-37.774,2.71-75.69-0.188-113.528-1.776c-32.823-1.378-65.679-1.77-98.529-2.162
			c-12.941-0.154-25.989-0.3-38.694,2.169c-4.74,0.921-9.739,2.408-12.77,6.168C91.949,329.463,91.048,335.289,94.2,337.973z"/>
	</g>
	<g>
		<g>
			<path style="fill:#191C26;" d="M167.326,290.507c-6.574,7.231-11.555,15.902-14.49,25.224c-0.858,2.726-0.132,6.963,0.68,9.673
				c1.826,6.098,4.803,10.387,10.513,11.707c2.609,0.603,5.303,0.513,7.967,0.42c6.451-0.225,16.397-7.737,23.462-7.715
				c10.375,0.033,17.975,7.534,27.372,6.166c3.753-0.546,4.67-3.247,7.144-6.402c2.961-3.776,5.132-10.755,3.961-15.573
				c-2.759-11.361-18.06-18.711-19.603-27.958"/>
		</g>
		<g>
			<path style="fill:#191C26;" d="M205,172.75c0,0,1.666,12.11-3.112,14.596c-3.802,1.978-1.883-12.444-1.883-12.444"/>
			<path style="fill:#FE9C70;" d="M176.167,212.167c0,0,3.207,3.082,4.492,6.046c5.96,1.329,9.333,1.462,13.541,0.181
				c2.442-0.75,7.035-3.737,7.364-5.581c-0.921-1.735-3.984-2.094-5.271-2.563c-0.448-0.078-0.988-0.142-1.159-0.272l-0.044-0.041
				c-0.197-0.138-0.341-0.26-0.381-0.413c-0.263-0.865-0.356-1.255-0.374-1.707c-0.027-0.365-0.011-0.762-0.013-1.475
				c-0.054-1.776-0.067-3.744-0.067-3.744l-3.387-1.683l-13.646-10.702l0.261,4.054c0,0,1.55,11.685,0.681,16.898
				C178.083,211.621,176.533,211.868,176.167,212.167z"/>
			<path style="fill:#D79580;" d="M184.531,199.479c0,0,1.555,5.625,9.803,8.337c-0.027-0.365-0.011-0.762-0.013-1.475
				c-0.054-1.776-0.067-3.744-0.067-3.744l-3.387-1.683L184.531,199.479z"/>
			<path style="fill:#FE9C70;" d="M203.575,190.8c-0.008,0.176-0.014,0.356-0.024,0.539c-0.163,3.334-0.48,8.2-2.57,10.573
				c-2.328,2.651-4.585,2.371-8.074,1.847c-2.758-0.413-5.869-1.511-8.536-3.059c-1.99-1.16-3.735-2.583-4.898-4.161
				c-1.259-1.713-3.432-2.08-4.282-4.005c-2.516-5.669-0.443-10.732,3.79-15.274c3.911-4.203,15.718-9.781,21.405-7.685
				C203.967,170.9,203.827,185.429,203.575,190.8z"/>
			<path style="fill:#191C26;" d="M200.555,176.535c-0.022,0.009-0.044,0.018-0.066,0.027c-3.1,1.26-6.423,1.897-9.767,1.923
				c-1.243,0.01-2.488,0.255-3.717,0.155c-0.734-0.059-2.044-0.711-2.719-0.217c-0.846,0.618-0.208,4.394-0.261,5.371
				c-0.135,2.265-0.494,4.649-1.298,6.057c-0.742,1.301-0.594-4.705-3.85-5.327c-2.013-0.382-0.483,8.438-1.558,9.033
				c0.484,2.539,1.116,8.426,1.078,11.58c-1.663,1.262-1.819-7.305-3.216-8.858c-1.395-1.548-8.954-10.49-9.766-15.504
				c-0.892-5.513,1.376-9.624,6.406-10.332c-1.407-3.439,1.353-6.868,4.451-8.246c3.034-1.35,7.546-2.486,12.573,0.012
				c0.341,0.169,2.768-0.966,3.262-1.088c1.184-0.293,2.394-0.493,3.612-0.582c2.321-0.168,4.786,0.025,6.911,1.046
				c4.846,2.328,5.031,9.455,1.224,12.995C202.912,175.457,201.745,176.047,200.555,176.535z"/>
			<g>
				<path style="fill:#EF8359;" d="M196.884,185.358c0.631,1.49,1.067,2.962,1.551,4.433c0.058,0.182,0.11,0.385,0.164,0.515
					c0.066,0.168,0.16,0.357,0.227,0.587c0.032,0.118,0.064,0.244,0.068,0.418c0.005,0.187-0.057,0.39-0.167,0.539
					c-0.227,0.299-0.468,0.366-0.616,0.447c-0.63,0.345-1.267,0.801-1.898,1.3c0.308-0.759,0.813-1.414,1.478-1.958
					c0.178-0.13,0.307-0.241,0.305-0.272c0.001-0.014-0.007-0.009-0.013-0.018c-0.006-0.023-0.025-0.088-0.055-0.156l-0.226-0.5
					c-0.103-0.231-0.152-0.409-0.219-0.599C197.015,188.57,196.735,186.973,196.884,185.358z"/>
			</g>
			<g>
				<g>
					<path style="fill:#191C26;" d="M190.223,184.245c-0.252,0.362-0.128,0.701-0.092,1.112c0.016,0.186,0.027,0.375,0.01,0.561
						c0,0.07-0.009,0.14-0.029,0.208c0.232-0.147,0.275-0.186,0.128-0.118c0.187,0.049,0.374,0.099,0.562,0.148
						c-0.088-0.099-0.075-0.47-0.066-0.582c0.02-0.25,0.115-0.45,0.248-0.66c-0.267,0.07-0.534,0.14-0.8,0.21
						c0.03,0.025,0.06,0.051,0.091,0.076c0.369,0.415,1.116-0.021,0.939-0.547c-0.089-0.266-0.184-0.418-0.439-0.54
						c-0.278-0.134-0.639-0.086-0.8,0.21c-0.47,0.861-0.458,1.742-0.046,2.6c0.089,0.184,0.351,0.341,0.557,0.319
						c0.693-0.073,0.978-0.586,1.058-1.232c0.078-0.628,0.128-1.654-0.552-1.968C190.698,183.907,190.41,183.975,190.223,184.245
						L190.223,184.245z"/>
				</g>
			</g>
			<g>
				<g>
					<path style="fill:#191C26;" d="M199.725,184.887c-0.073,0.271,0.031,0.488,0.079,0.752c0.027,0.15,0.037,0.325,0.026,0.475
						c-0.007,0.102-0.133,0.352,0.025,0.304c0.129,0.017,0.257,0.034,0.386,0.051c-0.17-0.077-0.096-0.39-0.062-0.513
						c0.018-0.09,0.052-0.173,0.1-0.251c0.104-0.117,0.102-0.132-0.008-0.043c-0.166-0.022-0.332-0.043-0.498-0.065
						c-0.103-0.19-0.118-0.183-0.044,0.021c0.03,0.101,0.043,0.205,0.04,0.311c-0.001,0.055-0.003,0.109-0.004,0.164
						c-0.102,0.327,0.111,0.35,0.641,0.069c0.022-0.143-0.061-0.244-0.02-0.402c0.049-0.19,0.171-0.352,0.225-0.545
						c0.131-0.474-0.441-0.992-0.884-0.679c-0.566,0.401-0.709,1.159-0.58,1.818c0.124,0.635,0.718,1.289,1.404,0.885
						c1.063-0.625,0.482-3.579-0.879-2.715c-0.536,0.34-0.703,1.123-0.593,1.704c0.096,0.508,0.392,1.273,1.042,1.155
						c1.1-0.201,1.007-2.614-0.118-2.71C199.88,184.664,199.756,184.772,199.725,184.887L199.725,184.887z"/>
				</g>
			</g>
			<g>
				<g>
					<path style="fill:#191C26;" d="M191.941,180.927c-0.873-1.041-2.009-1.117-3.312-1.097c-1.322,0.02-2.832,0.106-3.864,1.017
						c-0.25,0.221,0.015,0.636,0.319,0.548c1.76-0.506,4.865-1.484,6.502-0.115C191.835,181.488,192.149,181.175,191.941,180.927
						L191.941,180.927z"/>
				</g>
			</g>
			<g>
				<g>
					<path style="fill:#191C26;" d="M198.972,181.216c0.852-0.282,1.615-0.63,2.541-0.583c0.825,0.042,1.494,0.514,2.295,0.585
						c0.142,0.013,0.198-0.152,0.148-0.259c-0.794-1.688-4.157-1.342-5.208-0.129C198.608,180.993,198.738,181.294,198.972,181.216
						L198.972,181.216z"/>
				</g>
			</g>
			<g>
				<path style="fill:none;stroke:#FFFFFF;stroke-width:0.5613;stroke-miterlimit:10;" d="M180.376,185.982
					c0,0,2.756,6.799,6.966,7.114"/>
				<path style="fill:none;stroke:#FFFFFF;stroke-width:0.5613;stroke-miterlimit:10;" d="M177.448,193.543
					c0,0,2.935,5.452,8.051,7.374"/>
				<path style="fill:#FFFFFF;" d="M203.644,189.605c0.001,2.788-0.066,9.364-2.663,12.307c-2.335,2.646-4.585,2.371-8.074,1.847
					c-2.758-0.413-5.869-1.511-8.536-3.059c0.758-1.652,1.753-4.65,1.159-8.139c0,0,5.027-0.987,8.273-1.866
					c3.244-0.884,4.541-1.2,5.846-1.374C200.955,189.152,202.689,189.587,203.644,189.605z"/>
			</g>
			<path style="fill:#FE9C70;" d="M181.44,187.084c-0.193-0.451-0.623-1.401-1.475-2.061c-0.898-0.696-3.508-1.201-4.775,1.461
				c-1.391,2.923,2.025,11.23,5.177,7.852C182.855,191.671,182.181,188.812,181.44,187.084z"/>
			<path style="fill:#FE9C70;" d="M176.779,187.142c0,0,0.987-1.573,2.559-0.327c1.276,1.012,1.552,5.001,0.009,5.738
				c-1.577,0.753-2.855-1.176-1.945-2.776c0.179-0.315,0.425-0.506,0.694-0.581c1.335-0.374,1.147-1.754,0.538-2.195
				C178.248,186.722,177.449,186.669,176.779,187.142z"/>
		</g>
		<g>
			<g>
				<g>
					<path style="fill:#FE9C70;" d="M218.347,417.433c-0.536,2.966-2.884,7.111-2.884,7.111l0.183,6.281l3.355,1.496l9.49-8.246
						c0,0,0.574-4.769,0.402-4.665L218.347,417.433z"/>
					<path style="fill:#191C26;" d="M245.281,442.465c-1.481,1.243-8.258,1.535-12.635,0.789c-4.378-0.735-8.517-3.664-10.301-4.691
						c-1.794-1.038-9.133-1.675-9.803-2.745c-0.443-0.724-0.216-1.373-0.022-1.729c0.108-0.184,0.205-0.292,0.205-0.292
						c-0.151-3.815,1.567-9.479,2.27-9.674c0.703-0.184,0.713,2.281,1.146,3.145c0.422,0.875,1.956,2.064,4.042,1.178
						c2.097-0.886,2.908-3.729,5.296-4.226c2.399-0.497,3.383-0.032,3.383-0.032c2.497,1.6,6.269,7.199,8.96,9.468
						c2.691,2.259,6.745,3.978,7.469,4.691c0.735,0.713,0.357,2.302,0.357,2.302s0.022,0.011,0.054,0.032
						C245.897,440.811,246.556,441.384,245.281,442.465z"/>
				</g>
				<path style="fill:#191C26;" d="M249.245,324.301c-0.047-13.827-23.084-22.637-23.084-22.637l-20.878,12.368
					c0,0-0.945,17.448,6.934,20.408c2.889,1.085,5.227,2.334,7.042,3.482c-0.25,1.766-0.445,3.543-0.608,5.313
					c-1.647,17.888-1.236,35.932,0.46,53.831c-0.057,3.745-0.118,7.354-0.222,10.568c-0.184,5.687-1.389,12.606-1.389,12.606
					c6.091,3.417,11.239,1.616,11.239,1.616s17.39-58.369,17.39-75.075c0-0.015-0.001-0.041-0.001-0.057
					C247.881,338.362,249.264,330.052,249.245,324.301z"/>
			</g>
			<path style="fill:#FFFFFF;" d="M245.281,442.465c-1.481,1.243-8.258,1.535-12.635,0.789c-4.378-0.735-8.517-3.664-10.301-4.691
				c-1.794-1.038-9.133-1.675-9.803-2.745c-0.443-0.724-0.216-1.373-0.022-1.729c1.989,0.173,4.096,0.735,4.939,0.811
				c1.167,0.097,2.378,0.054,3.47,0.486c0.854,0.346,1.557,0.973,2.27,1.546c5.793,4.561,13.803,6.139,20.882,4.118
				c0.53-0.151,1.081-0.335,1.621-0.368C245.897,440.811,246.556,441.384,245.281,442.465z"/>
		</g>
		<g>
			<g>
				<path style="fill:#EEF2FA;" d="M214.595,295.19c7.791,5.148,15.729,9.592,22.708,15.912c3.346,3.03,6.403,6.515,7.827,10.883
					c1.099,3.371,0.291,6.967-0.318,10.365c-1.509,8.416-2.527,16.912-3.974,25.341c-1.651,9.612-3.538,19.182-5.539,28.727
					c-2.275,10.852-4.691,21.673-7.045,32.508c-0.072,0.329,0.432,0.471,0.507,0.14c4.592-20.322,9.174-40.66,12.729-61.194
					c1.537-8.876,2.74-17.8,4.242-26.679c0.476-2.814,1.068-5.831,0.312-8.641c-0.983-3.651-3.21-6.917-5.798-9.624
					c-3.365-3.52-7.318-6.562-11.279-9.379c-4.467-3.178-9.2-6.373-14.195-8.661C214.569,294.795,214.404,295.064,214.595,295.19
					L214.595,295.19z"/>
			</g>
		</g>
		<g>
			<path style="fill:#FFFFFF;" d="M221.429,291.285c0.165,0.674,0.233,1.368,0.279,2.159c0.023,0.401-0.146,4.59-0.151,4.588
				c-8.35-2.911-17.627-3.095-26.086-0.518c-5.137,1.565-10.787,1.687-16.047,0.577c-2.678-0.565-5.288-1.455-7.749-2.653
				c-0.824-0.401-6.736-3.301-6.574-4.254c0.658-3.873,1.84-7.651,2.911-11.425c0.802-2.827,1.452-5.669,1.967-8.487
				c3.007-16.201,1.856-31.575,2.244-38.658c0.894-16.181,4.275-20.655,4.387-20.796l1.666,0.719
				c6.577,2.832,14.131,2.186,20.126-1.725c0,0,0.806,0.928,2.065,3.949c0.398,0.957,0.84,2.128,1.321,3.546
				c1.025,3.056,2.21,7.262,3.439,12.995c2.876,13.446,4.94,35.311,7.238,41.757c1.578,4.43,3.856,8.638,6.127,12.744
				c0.728,1.316,1.56,2.593,2.252,3.927C221.119,290.261,221.302,290.767,221.429,291.285z"/>
			<path style="fill:#7A86DE;" d="M172.224,232.615c-0.457,8.316,1.21,28.054-4.212,47.145c-0.67,2.371-1.248,4.294-1.749,5.868
				c-1.117,3.522-1.831,5.256-2.254,6.101c-0.758,0.364-1.477,0.729-2.152,1.088c-1.06,0.564-3.681,2.867-4.946,2.3
				c-0.378-0.169-0.648-0.511-0.876-0.857c-1.268-1.921-0.535-3.954-0.196-6.058c0.102-0.636,0.204-1.292,0.306-1.967
				c0.311-2.011,0.622-4.197,0.923-6.5c1.04-8.103,1.885-17.614,1.569-25.664c-0.403-10.094-2.643-17.056-4.348-21.904
				c-1.38-3.925-2.409-6.466-1.831-8.195c0.083-0.238,0.262-0.495,0.549-0.792c1.622-1.71,6.349-4.105,11.396-6.344
				c4.459-1.982,9.167-3.847,12.198-5.013C176.499,211.96,173.118,216.434,172.224,232.615z"/>
			<path style="fill:#7A86DE;" d="M223.565,292.194c0.232,2.88-0.174,5.669-2.764,7.482c-1.41-0.607-2.499-1.807-3.25-3.146
				c-0.75-1.339-1.197-2.823-1.628-4.296c-1.096-3.745-1.375-7.593-2.112-11.427c-1.513-7.869-3.214-15.658-4.393-23.59
				c-1.286-8.648-2.361-17.356-4.19-25.912c-1.797-8.389-3.502-13.514-4.761-16.541c-1.219-2.929-2.016-3.891-2.06-3.945
				c2.235,0.831,6.126,2.322,10.143,4.071c5.271,2.293,10.76,5.023,13.019,7.282c0.335,0.335,0.622,0.67,0.855,1.006
				c1.506,2.147,1.02,4.285,0.015,7.029c-1.117,3.065-2.876,6.888-3.23,12.339c-0.121,1.856-0.087,4.479,0.058,7.564
				c0.165,3.532,0.471,7.666,0.85,11.936c0.369,4.192,0.802,8.516,1.234,12.533c0.194,1.895,0.398,3.721,0.588,5.431
				c0.039,0.364,0.078,0.719,0.117,1.069c0.194,1.715,0.379,3.289,0.544,4.688C222.826,287.69,223.386,289.969,223.565,292.194z"/>
			<g>
				<path style="fill:#FE9C70;" d="M231.585,296.811c0,0,1.064,7.041-4.283,14.315c-1.345,3.969-0.348,6.759-4.084,9.001
					c-1.013,2.076-1.477,3.936-2.922,3.222c-1.278,1.445-2.59,2.458-3.388-0.564c-1.411,1.412-3.487-0.73-2.941-11.109
					c0.049-4.434,2.349-8.693,9.882-16.603C228.608,293.403,231.585,296.811,231.585,296.811z"/>
				<path style="fill:#FE9C70;" d="M214.413,308.542c0,0-4.031,3.93-2.752,5.309c1.04,0.533,2.247-0.699,2.247-0.699
					S223.254,304.451,214.413,308.542z"/>
				<g>
					<path style="fill:#EF8054;" d="M216.909,322.784c-0.599-1.691-0.86-3.424-1.011-5.169c-0.059-0.874-0.093-1.751-0.047-2.634
						c0.06-0.87,0.087-1.797,0.505-2.622c0.021,0.879,0.228,1.723,0.321,2.587c0.121,0.859,0.2,1.722,0.277,2.587
						C217.067,319.268,217.14,321.006,216.909,322.784z"/>
				</g>
				<g>
					<path style="fill:#EF8054;" d="M220.296,323.348c-0.584-1.775-0.818-3.592-0.941-5.417c-0.04-0.914-0.06-1.831,0.005-2.751
						c0.068-0.914,0.17-1.857,0.52-2.734l0.306,2.718c0.102,0.901,0.167,1.803,0.225,2.707
						C220.498,319.682,220.544,321.497,220.296,323.348z"/>
				</g>
				<g>
					<path style="fill:#EF8054;" d="M223.218,320.126c-0.274-0.766-0.414-1.552-0.501-2.34c-0.093-0.789-0.1-1.584-0.064-2.38
						c0.053-0.794,0.15-1.592,0.371-2.371c0.213-0.772,0.512-1.558,1.048-2.18c-0.13,0.799-0.176,1.555-0.234,2.319l-0.129,2.292
						C223.604,317.001,223.533,318.541,223.218,320.126z"/>
				</g>
			</g>
			<path style="fill:#7A86DE;" d="M234.889,289.476c-0.049,0.194-0.092,0.384-0.141,0.573c-2.463,10.031-3.711,13.223-3.711,13.223
				c-1.744,0-11.008-3.974-11.008-3.974l0.928-9.375l0.219-2.191l0.763-7.724l1.117-11.299c0,0-1.18-2.759-2.939-6.665
				c-3.561-7.928-9.502-20.563-12.757-24.313l12.072-11.663l2.992-2.89c7.019,8.924,14.054,25.324,15.555,42.253
				C238.571,272.163,236.755,281.795,234.889,289.476z"/>
			<g>
				<path style="fill:#FE9C70;" d="M157.489,295.889c0,0,2.611,6.126,10.438,9.291c3.019,2.499,3.596,5.209,7.67,5.159
					c1.825,1.155,3.109,2.407,3.908,1.13c1.727,0.522,3.269,0.685,2.419-2.113c1.817,0.431,2.417-2.294-3.114-10.286
					c-2.216-3.505-6.138-5.766-16.019-8.362C158.185,291.714,157.489,295.889,157.489,295.889z"/>
				<path style="fill:#FE9C70;" d="M176.918,296.794c0,0,5.139,1.149,4.798,2.874c-0.566,0.935-2.132,0.547-2.132,0.547
					S167.872,297.879,176.918,296.794z"/>
				<g>
					<path style="fill:#EF8054;" d="M181.925,309.356c-1.081-1.29-1.882-2.706-2.643-4.141c-0.363-0.726-0.723-1.452-1.043-2.198
						c-0.346-0.736-0.588-1.511-0.992-2.23c0.749,0.442,1.233,1.166,1.713,1.826c0.475,0.678,0.88,1.393,1.263,2.117
						C180.958,306.193,181.596,307.704,181.925,309.356z"/>
				</g>
				<g>
					<path style="fill:#EF8054;" d="M179.506,311.468c-1.13-1.34-1.99-2.803-2.811-4.286c-0.397-0.748-0.787-1.498-1.143-2.268
						l-1.068-2.328c0.72,0.517,1.271,1.215,1.779,1.907c0.509,0.698,0.945,1.437,1.362,2.184
						C178.422,308.192,179.123,309.756,179.506,311.468z"/>
				</g>
				<g>
					<path style="fill:#EF8054;" d="M175.598,310.339c-1.053-1.094-1.87-2.28-2.707-3.448l-1.221-1.763
						c-0.416-0.582-0.818-1.165-1.305-1.749c0.74,0.22,1.371,0.695,1.925,1.203c0.564,0.509,1.035,1.097,1.468,1.703
						c0.419,0.617,0.803,1.254,1.112,1.932C175.184,308.889,175.452,309.588,175.598,310.339z"/>
				</g>
			</g>
			<path style="fill:#7A86DE;" d="M167.93,292.201c0,0-2.312,0.554-4.591,1.822c-1.836,1.02-3.643,2.497-4.207,4.523
				c0,0-0.894-1.049-2.171-2.745c-0.583-0.782-1.253-1.695-1.948-2.711c-1.671-2.419-3.517-5.407-4.853-8.399
				c-4.032-9.035-5.426-10.877-5.586-17.804c-0.185-7.884,0.389-15.72,1.554-23.516c1.006-6.718,2.541-13.655,6.33-19.397
				c0.17-0.262,0.345-0.52,0.53-0.772c0.005-0.01,0.01-0.015,0.015-0.024l0.005,0.005l3.42,4.547l9.035,12.004
				c1.695,5.698-3.43,29.234-3.43,29.234l3.561,14.015l0.432,1.71l0.238,0.938L167.93,292.201z"/>
			<g>
				<g>
					<path style="fill:#DBE3DF;" d="M177.265,214.061c5.626,4.368,13.742,3.394,19.532,0.037c0.076-0.044-0.102-0.204-0.169-0.165
						c-5.699,3.304-13.738,4.35-19.294,0.037C177.22,213.881,177.15,213.972,177.265,214.061L177.265,214.061z"/>
				</g>
			</g>
			<path style="fill:none;stroke:#DBE3DF;stroke-width:0.4858;stroke-miterlimit:10;" d="M210.86,271.567
				c0,0-4.058-3.156-10.458-1.975"/>
		</g>
		<g>
			<g>
				<g>
					<path style="fill:#FE9C70;" d="M200.063,422.805l-0.429-4.1l-9.102,0.203l0.009,6.126l1.657,6.448c0,0,7.246,0.074,7.305-0.071
						c0.059-0.145,1.738-7.2,1.738-7.2L200.063,422.805z"/>
					<path style="fill:#191C26;" d="M202.803,433.31c-1.156,4.767-5.534,4.161-4.777,8.636c0.227,1.351,0.119,2.313-0.195,3.037
						c0.151,1.546-0.778,1.913-0.778,1.913c-7.566,2.886-14.613-0.605-14.786-1.654c-0.119-0.692,0.032-0.843,0.119-1.61
						c-0.011-0.043-0.011-0.076-0.011-0.119c-0.076-0.497-0.054-1.124,0.086-1.783c0.432-2.064,4.042-5.999,4.842-9.025
						c0.789-3.026,1.47-5.815,2.389-7.015c0.919-1.189,4.042-1.762,6.626-0.994c2.583,0.767,3.07,2.432,3.891,1.2
						c0.821-1.243-0.141-3.091-0.141-3.091c1.329-0.335,2.702,3.707,2.464,8.074c0,0.065-0.011,0.141-0.011,0.205
						C202.792,431.689,203.019,432.413,202.803,433.31z"/>
				</g>
				<path style="fill:#191C26;" d="M199.673,402.7c-0.38-7.565-1.033-15.75-1.92-23.304c-0.93-7.911-2.062-15.798-3.396-23.651
					c-0.879-5.171-1.865-10.374-3.689-15.309c-0.078-0.211-0.166-0.421-0.247-0.632c-1.026-5.044-2.381-10.055-4.981-14.331
					c-2.957-4.861-7.83-8.664-13.138-8.594c-1.776,0.023-3.62,0.519-4.947,1.821c-1.234,1.211-14.809,1.993-14.427,3.758
					c3.05,14.057,9.304,26.222,14.406,38.06c4.032,11.144,8.091,22.278,12.209,33.391c3.462,9.341,6.314,18.989,10.421,28.045
					c1.995-0.066,3.94,0.007,5.869-0.298c0.291-0.046,5.294-0.494,5.266-1.039C201.098,420.564,200.204,413.262,199.673,402.7z"/>
			</g>
			<path style="fill:#FFFFFF;" d="M202.803,433.31c-1.156,4.767-5.534,4.161-4.777,8.636c0.227,1.351,0.119,2.313-0.195,3.037
				c0.151,1.546-0.778,1.913-0.778,1.913c-7.566,2.886-14.613-0.605-14.786-1.654c-0.119-0.692,0.032-0.843,0.119-1.61
				c-0.011-0.043-0.011-0.076-0.011-0.119c0.919,0.54,1.989,0.767,3.037,0.962c2.886,0.53,5.858,0.843,8.798,0.551
				c1.902-0.184,2.097-0.086,2.064-1.946c-0.043-2.356,0.195-5.426,2.378-6.842c0.357-0.238,0.746-0.411,1.102-0.648
				c1.535-1.016,2.194-2.908,2.756-4.669c0-0.011,0.011-0.032,0.022-0.043c0,0.065-0.011,0.141-0.011,0.205
				C202.792,431.689,203.019,432.413,202.803,433.31z"/>
		</g>
		<path style="opacity:0.5;fill:#BED3E3;" d="M175.691,457.766c0.087,3.023,24.662,4.53,43.111,4.001
			c18.448-0.529,25.868-3.216,23.697-5.917c-3.29-4.093-15.063-3.315-33.511-2.786C190.539,453.594,175.605,454.743,175.691,457.766
			z"/>
		<g>
			<g>
				<path style="fill:#596BC1;" d="M169.152,246.146c1.759,0,1.761-2.733,0-2.733C167.394,243.413,167.391,246.146,169.152,246.146
					L169.152,246.146z"/>
			</g>
		</g>
		<g>
			<g>
				<path style="fill:#596BC1;" d="M168.882,256.474c1.488,0,1.49-2.312,0-2.312C167.394,254.161,167.392,256.474,168.882,256.474
					L168.882,256.474z"/>
			</g>
		</g>
		<g>
			<g>
				<path style="fill:#596BC1;" d="M154.011,223.19c2.356,1.655,4.068,4.042,4.953,6.779c0.05,0.154,0.282,0.091,0.243-0.067
					c-0.726-2.95-2.481-5.345-5.03-6.997C153.998,222.789,153.84,223.07,154.011,223.19L154.011,223.19z"/>
			</g>
		</g>
		<g>
			<g>
				<path style="fill:#596BC1;" d="M220.183,262.512c-0.003-3.199-0.241-6.38-0.168-9.587c0.071-3.142,0.232-6.284,0.185-9.428
					c-0.077-5.1-0.512-10.741-2.965-15.316c-0.142-0.265-0.597-0.084-0.493,0.208c1.98,5.558,2.798,10.933,2.786,16.841
					c-0.011,5.659-0.839,11.746,0.381,17.318C219.941,262.705,220.183,262.668,220.183,262.512L220.183,262.512z"/>
			</g>
		</g>
		<g>
			<g>
				<path style="fill:#596BC1;" d="M161.22,268.246c-2.326-1.378-5.014-2.245-7.739-2.125c-0.265,0.012-0.356,0.439-0.066,0.489
					c2.649,0.451,5.148,0.989,7.638,2.033C161.284,268.741,161.426,268.368,161.22,268.246L161.22,268.246z"/>
			</g>
		</g>
		<g>
			<g>
				<path style="fill:#596BC1;" d="M161.006,266.81c-0.891-2.427-2.254-5.152-5.153-5.397c-0.134-0.011-0.26,0.126-0.255,0.255
					c0.056,1.439,1.132,3.228,2.745,3.22c0.142-0.001,0.206-0.204,0.074-0.274c-1.259-0.672-2.264-1.355-2.31-2.945
					c-0.085,0.085-0.17,0.17-0.255,0.255c2.691,0.245,3.843,2.872,4.82,5.028C160.758,267.137,161.077,267.004,161.006,266.81
					L161.006,266.81z"/>
			</g>
		</g>
		<g>
			<g>
				<path style="fill:#596BC1;" d="M211.688,262.708c0.907-0.271,2.038-0.615,2.709-1.313c0.092-0.096,0.026-0.263-0.109-0.263
					c-0.969-0.004-2.003,0.568-2.83,1.032C211.166,262.327,211.362,262.805,211.688,262.708L211.688,262.708z"/>
			</g>
		</g>
		<g>
			<g>
				<path style="fill:#596BC1;" d="M209.144,248.032c0.319,0.041,0.561-0.008,0.87-0.064c0.214-0.039,0.214-0.394,0-0.432
					c-0.309-0.056-0.548-0.106-0.87-0.064C208.784,247.518,208.784,247.985,209.144,248.032L209.144,248.032z"/>
			</g>
		</g>
		<g>
			<g>
				<path style="fill:#596BC1;" d="M220.173,299.298c0.358-3.491,0.658-6.989,1.021-10.48c0.362-3.476,1.053-6.932,1.333-10.41
					c0.019-0.242-0.349-0.278-0.413-0.056c-0.924,3.206-1.133,6.745-1.478,10.056c-0.377,3.626-0.65,7.249-0.75,10.89
					C219.881,299.486,220.154,299.478,220.173,299.298L220.173,299.298z"/>
			</g>
		</g>
		<g>
			<g>
				<path style="fill:#596BC1;" d="M223.337,269.225c1.348-1.319,2.797-4.809,5.085-4.406c-0.071-0.093-0.142-0.186-0.213-0.279
					c-0.051,0.327-0.214,0.537-0.489,0.63c-0.124,0.062-0.083,0.245,0.037,0.282c0.634,0.195,1.023-0.309,1.031-0.911
					c0.002-0.12-0.091-0.254-0.213-0.279c-1.075-0.223-1.957,0.254-2.723,0.994c-1.068,1.032-2.13,2.428-2.857,3.708
					C222.874,269.176,223.159,269.399,223.337,269.225L223.337,269.225z"/>
			</g>
		</g>
		<g>
			<g>
				<path style="fill:#596BC1;" d="M223.305,269.815c1.576-1.105,3.172-1.135,5.003-0.873c0.214,0.031,0.359-0.237,0.154-0.365
					c-1.724-1.077-4.035-0.429-5.429,0.886C222.851,269.634,223.093,269.964,223.305,269.815L223.305,269.815z"/>
			</g>
		</g>
		<g>
			<g>
				<path style="fill:#596BC1;" d="M221.394,222.377c-0.333-0.157-0.753-0.175-1.078,0.006c-0.112,0.062-0.112,0.234,0,0.296
					c0.325,0.181,0.746,0.163,1.078,0.006C221.51,222.631,221.51,222.432,221.394,222.377L221.394,222.377z"/>
			</g>
		</g>
		<g>
			<g>
				<path style="fill:#596BC1;" d="M154.651,222.752c0.518,0.027,1.009,0.175,1.459,0.433c0.442,0.253,0.703,0.624,1.071,0.953
					c0.149,0.133,0.442,0.007,0.363-0.211c-0.397-1.102-1.814-1.655-2.893-1.651C154.342,222.277,154.346,222.736,154.651,222.752
					L154.651,222.752z"/>
			</g>
		</g>
		<g>
			<g>
				<path style="fill:#596BC1;" d="M168.109,292.151c-1.095-4.193-1.991-8.447-3.214-12.605c-1.398-4.754-2.617-9.228-2.245-14.241
					c0.652-8.777,4.623-17.337,3.565-26.238c-0.038-0.318-0.524-0.337-0.512,0c0.337,9.298-3.252,17.908-3.785,27.097
					c-0.26,4.483,0.763,8.523,2.079,12.769c1.365,4.404,2.211,8.97,3.754,13.317C167.83,292.473,168.17,292.386,168.109,292.151
					L168.109,292.151z"/>
			</g>
		</g>
		<g>
			<g>
				<path style="fill:#3F3F3F;" d="M185.7,326.434c0.716,1.825,1.438,3.782,2.523,5.421c0.084,0.127,0.289,0.049,0.25-0.105
					c-0.481-1.902-1.446-3.76-2.312-5.51C186.036,325.987,185.595,326.166,185.7,326.434L185.7,326.434z"/>
			</g>
		</g>
		<g>
			<g>
				<path style="fill:#3F3F3F;" d="M219.597,338.602c0.224-0.992,0.35-2.004,0.582-2.995c0.232-0.993,0.565-1.966,0.745-2.969
					c0.044-0.242-0.291-0.425-0.423-0.178c-0.933,1.756-1.388,4.095-1.372,6.079C219.131,338.801,219.536,338.87,219.597,338.602
					L219.597,338.602z"/>
			</g>
		</g>
		<g>
			<g>
				<path style="fill:#EEF2FA;" d="M163.387,304.186c-3.491,6.352-6.336,12.74-4.713,20.122c0.88,4.005,2.516,7.843,3.936,11.678
					c1.394,3.762,2.788,7.525,4.19,11.284c5.799,15.549,11.535,31.121,16.936,46.814c3.012,8.753,5.87,17.554,8.564,26.409
					c0.105,0.344,0.642,0.199,0.541-0.149c-8.771-30.061-20.155-59.314-31.1-88.629c-1.659-4.442-3.413-9.064-3.089-13.892
					c0.325-4.834,2.787-9.282,5.002-13.481C163.746,304.167,163.483,304.012,163.387,304.186L163.387,304.186z"/>
			</g>
		</g>
	</g>
	<g>
		<path style="opacity:0.5;fill:#BED3E3;" d="M254.697,453.419c0.199,6.953,35.119,11.039,61.291,10.288
			c26.171-0.75,36.635-6.74,33.484-13.006c-4.773-9.492-21.463-8.001-47.634-7.251C275.667,444.201,254.498,446.466,254.697,453.419
			z"/>
		<g>
			<g>
				<g>
					<path style="fill:#2E2F44;" d="M216.25,242.815c0.218,1.13,0.028,4.472-1.922,3.666c-1.434-0.593-1.732-2.76-1.284-4.044
						c0.781-2.238,2.592,0.337,2.466,1.711c-0.032,0.346-0.246,1.18-0.61,1.376c-0.718,0.388-1.183-0.469-1.239-1.033
						c-0.039-0.39-0.041-0.663,0.332-0.815c0.403-0.206,0.522,0.018,0.357,0.673c-0.604,0.082-0.378,0.032,0.676-0.15
						c0.344-0.597-0.222-1.269-0.864-1.124c-0.264,0.06-0.529,0.12-0.793,0.18c-0.945,0.214-0.53,1.585,0.394,1.431
						c0.268-0.045,0.537-0.09,0.805-0.135c-0.288-0.375-0.576-0.749-0.864-1.124c-0.398,0.606-0.611,1.656,0.175,2.08
						c0.798,0.431,1.623-0.325,1.7-1.113c0.199-2.04-2.746-2.216-3.18-0.329c-0.467,2.034,2.282,2.624,3.412,1.294
						c1.325-1.559-0.581-4.225-2.488-3.584c-1.994,0.67-1.771,3.71-0.479,4.92c1.752,1.64,3.848,0.016,4.267-1.927
						c0.431-1.994-0.782-4.843-3.054-5.055c-2.152-0.201-3.154,2.222-3.091,4.023c0.074,2.136,1.76,4.902,4.253,4.396
						c2.408-0.488,2.83-3.714,2.183-5.636C217.157,241.762,216.104,242.06,216.25,242.815L216.25,242.815z"/>
				</g>
			</g>
			<g>
				<path style="fill:#FE9C70;" d="M233.957,244.201c-2.574-2.105-8.883-6.07-11.008-6.161c-1.673-0.072-3.294,0.583-4.72,1.403
					c-1.315,0.756-2.855,1.682-3.611,3.047c-0.103,0.187-0.173,0.439-0.038,0.604c0.115,0.14,0.32,0.145,0.497,0.132
					c1.168-0.085,2.294-0.454,3.432-0.734c2.406-0.594,4.903-0.799,7.373-0.607"/>
			</g>
			<g>
				<path style="fill:#FE9C70;" d="M225.041,242.722c-6.366-0.998-6.234,1.037-6.41,2.043c-0.176,1.006,0.655,2.066,1.545,2.528
					c-0.279,1.711,0.003,2.1,1.362,3.137c-0.694,1.953,2.318,2.603,4.003,2.762c0.688,0.065,2.115-0.117,2.729-0.439
					c0.615-0.322,0.721-0.765,0.471-1.428c1.324,1.504,4.66,1.679,6.022,0.222c0.246-0.263,0.473-0.578,0.81-0.694
					c0.257-0.088,0.732-0.853,1-0.809c1.544,0.253,1.442-0.49,2.986-0.238"/>
			</g>
			<g style="opacity:0.2;">
				<g>
					<path style="fill:#49161A;" d="M221.059,247.446c1.067,0.21,5.693,0.922,5.163-1.334c-0.018-0.078-0.136-0.059-0.137,0.019
						c-0.026,1.794-3.855,1.33-4.982,1.154C220.999,247.269,220.952,247.425,221.059,247.446L221.059,247.446z"/>
				</g>
			</g>
			<g style="opacity:0.2;">
				<g>
					<path style="fill:#49161A;" d="M222.091,250.631c1.398,0.357,3.226,0.376,4.417-0.578c0.745-0.597,1.034-1.776,0.147-2.373
						c-0.079-0.053-0.169,0.066-0.101,0.131c1.143,1.091-0.268,2.186-1.266,2.518c-1.031,0.344-2.09,0.349-3.144,0.113
						C222.021,250.416,221.969,250.6,222.091,250.631L222.091,250.631z"/>
				</g>
			</g>
			<g style="opacity:0.2;">
				<g>
					<path style="fill:#49161A;" d="M227.191,249.993c0.363,0.101,0.653,0.286,0.905,0.568c0.232,0.261,0.295,0.582,0.494,0.854
						c0.079,0.108,0.294,0.123,0.322-0.042c0.154-0.899-0.916-1.581-1.683-1.662C227.065,249.693,227.038,249.951,227.191,249.993
						L227.191,249.993z"/>
				</g>
			</g>
			<path style="fill:#FFFFFF;" d="M289.212,341.237c0,0,28.789,4.806,38.997,2.134c10.209-2.673-14.464-38.449-14.464-38.449
				s-11.788-1.782-12.987-1.816c-1.2-0.034-11.546,38.994-11.546,38.994"/>
			<g>
				<g>
					<path style="fill:#FE9C70;" d="M301.033,424.776c0.599,3.314,3.223,7.946,3.223,7.946l-0.204,7.018l-3.749,1.672l-10.605-9.215
						c0,0-0.642-5.329-0.449-5.214L301.033,424.776z"/>
					<path style="fill:#2E2F44;" d="M307.52,445.311c-0.746,1.2-8.939,1.924-10.949,3.08c-2,1.146-6.626,4.41-11.522,5.242
						c-4.885,0.832-12.451,0.497-14.105-0.886c-1.643-1.394-0.422-2.021-0.422-2.021s-0.108-0.486-0.097-1.059
						c0.011-0.53,0.108-1.135,0.508-1.524c0.8-0.789,5.329-2.713,8.344-5.242c3.005-2.529,7.209-8.798,10.009-10.582
						c0,0,1.102-0.519,3.772,0.043c2.67,0.551,3.589,3.74,5.923,4.723c2.335,0.994,4.042-0.335,4.518-1.319
						c0.486-0.962,0.497-3.729,1.286-3.524c0.778,0.227,2.702,6.55,2.529,10.819c0,0,0.173,0.195,0.314,0.519
						C307.822,443.993,307.941,444.63,307.52,445.311z"/>
				</g>
				<g>
					<path style="fill:#FE9C70;" d="M313.616,434.723l0.434-4.148l9.207,0.206l-0.009,6.196l-1.676,6.522
						c0,0-7.33,0.075-7.389-0.072c-0.06-0.147-1.758-7.283-1.758-7.283L313.616,434.723z"/>
					<path style="fill:#2E2F44;" d="M331.623,457.417c-0.097,0.562-2.118,1.805-5.123,2.432c-0.303,0.065-0.605,0.119-0.908,0.162
						c-0.303,0.054-0.605,0.086-0.919,0.119c-0.303,0.032-0.605,0.054-0.919,0.076c-0.324,0.022-0.648,0.022-0.973,0.022
						c-0.249,0-0.508-0.011-0.757-0.022c-0.087,0-0.173,0-0.259-0.011c-0.357-0.022-0.724-0.054-1.092-0.097
						c-0.281-0.032-0.562-0.076-0.843-0.13c-0.249-0.043-0.497-0.097-0.746-0.151c-0.281-0.043-0.562-0.119-0.832-0.205
						c-0.53-0.141-1.059-0.313-1.6-0.519c0,0-0.93-0.367-0.778-1.935c-0.324-0.735-0.432-1.697-0.195-3.08
						c0.757-4.518-3.664-3.913-4.831-8.723c-0.227-0.908,0-1.643,0.281-2.259c-0.011-0.184-0.022-0.368-0.032-0.551
						c-0.14-4.28,1.2-8.15,2.518-7.825c0,0-0.984,1.881-0.151,3.124c0.832,1.254,1.329-0.432,3.945-1.211
						c2.605-0.767,5.761-0.195,6.69,1.016c0.94,1.211,1.621,4.021,2.421,7.09c0.8,3.059,4.453,7.047,4.896,9.122
						c0.119,0.584,0.151,1.146,0.119,1.621c-0.011,0.108-0.032,0.216-0.043,0.313c0.011,0.108,0.022,0.205,0.032,0.292
						C331.623,456.628,331.72,456.822,331.623,457.417z"/>
				</g>
				<path style="fill:#75AAF5;" d="M338.729,302.264c-0.303,10.493-4.207,46.905-5.419,56.332
					c-0.606,16.958-9.208,74.898-9.208,74.898c-7.688,1.617-10.726-0.688-10.726-0.688s0.381-7.396-0.454-18.056
					c-1.43-18.26-4.02-45.345-0.802-55.809c0.453-2.171-0.091-4.58-0.597-7.169c-3.049-15.591-4.617-40.581-4.617-40.581
					c-2.054,6.706-7.825,22.618-11.683,30.909c-2.593,5.573-1.281,8.874-1.281,8.874s4.038,12.465,4.775,17.415
					c1.527,10.303,1.254,31.284,1.71,45.436c0.205,6.355,1.552,14.087,1.552,14.087c-6.807,3.818-12.559,1.806-12.559,1.806
					s-19.432-65.226-19.432-83.894c0-1.777,0.79-11.968,0.79-12.007c2.765-23.475,10.031-52.816,11.282-56.923
					c2.351,0.722,12.382,2.241,21.993,2.567c10.528,0.357,26.079-0.832,34.036-2.567C341.309,283.655,338.9,296.524,338.729,302.264
					z"/>
				<path style="fill:#FFFFFF;" d="M307.52,445.311c-0.746,1.2-8.939,1.924-10.949,3.08c-2,1.146-6.626,4.41-11.522,5.242
					c-4.885,0.832-12.451,0.497-14.105-0.886c-1.643-1.394-0.422-2.021-0.422-2.021s-0.108-0.486-0.097-1.059
					c0.356,0.151,0.746,0.411,1.297,0.648c1.816,0.789,3.718,0.778,5.685,0.789c2.875,0.022,5.783,0.043,8.56-0.692
					c2.497-0.659,4.777-1.902,7.134-2.951c4.485-2,9.285-3.297,14.17-3.848c0.119-0.011,0.238-0.032,0.357-0.032
					C307.822,443.993,307.941,444.63,307.52,445.311z"/>
				<path style="fill:#FFFFFF;" d="M331.623,457.417c-0.097,0.562-2.118,1.805-5.123,2.432c-0.303,0.065-0.605,0.119-0.908,0.162
					c-0.303,0.054-0.605,0.086-0.919,0.119c-0.303,0.032-0.605,0.054-0.919,0.076c-0.324,0.022-0.648,0.022-0.973,0.022
					c-0.249,0-0.508-0.011-0.757-0.022c-0.087,0-0.173,0-0.259-0.011c-0.357-0.022-0.724-0.054-1.092-0.097
					c-0.281-0.032-0.562-0.076-0.843-0.13c-0.249-0.043-0.497-0.097-0.746-0.151c-0.281-0.043-0.562-0.119-0.832-0.205
					c-0.53-0.141-1.059-0.313-1.6-0.519c0,0-0.93-0.367-0.778-1.935c-0.324-0.735-0.432-1.697-0.195-3.08
					c0.757-4.518-3.664-3.913-4.831-8.723c-0.227-0.908,0-1.643,0.281-2.259c-0.011-0.184-0.022-0.368-0.032-0.551
					c0.876,1.913,0.8,3.361,2.972,4.853c1.589,1.103,3.459,2.248,3.826,4.151c0.368,1.881-0.724,4.367,0.854,5.447
					c2.021,1.384,5.058,0.94,7.307,0.551c1.967-0.357,3.74-1.146,5.48-2.064c-0.011,0.108-0.032,0.216-0.043,0.313
					c0.011,0.108,0.022,0.205,0.032,0.292C331.623,456.628,331.72,456.822,331.623,457.417z"/>
				<g>
					<g>
						<path style="fill:#FFFFFF;" d="M320.578,445.856c0.831-0.523,1.599-1.045,2.577-1.262c1.003-0.222,1.868,0.071,2.854,0.09
							c0.384,0.007,0.45-0.473,0.181-0.669c-1.697-1.236-4.927-0.185-5.976,1.477C320.072,445.716,320.354,445.997,320.578,445.856
							L320.578,445.856z"/>
					</g>
				</g>
				<g>
					<g>
						<path style="fill:#FFFFFF;" d="M322.471,448.66c1.297-0.984,2.75-1.234,4.302-0.801c0.551,0.154,0.723-0.622,0.229-0.831
							c-1.674-0.705-3.713-0.174-4.879,1.18C321.927,448.438,322.194,448.87,322.471,448.66L322.471,448.66z"/>
					</g>
				</g>
				<g>
					<g>
						<path style="fill:#FFFFFF;" d="M280.208,441.913c1.076,0.104,1.842,0.153,2.708,0.897c0.509,0.437,0.908,1.234,1.618,1.274
							c0.138,0.008,0.222-0.115,0.236-0.236c0.104-0.884-1.281-1.891-1.961-2.286c-0.786-0.456-1.958-0.813-2.754-0.215
							C279.81,441.531,279.896,441.883,280.208,441.913L280.208,441.913z"/>
					</g>
				</g>
				<g>
					<g>
						<path style="fill:#FFFFFF;" d="M282.498,438.591c0.958,0.318,1.899,0.597,2.702,1.242c0.708,0.569,1.054,1.475,1.74,2.009
							c0.228,0.177,0.574,0.078,0.584-0.242c0.03-0.988-1.016-1.963-1.747-2.515c-0.903-0.682-2.043-1.204-3.197-1.107
							C282.234,438.007,282.153,438.476,282.498,438.591L282.498,438.591z"/>
					</g>
				</g>
			</g>
			<path style="fill:#FFFFFF;" d="M262.381,243.517l8.344,15.446c1.017,0.194,1.968,0.202,2.863,0.065
				c5.628-0.809,8.863-7.073,9.092-7.583c0.991-2.205,2.499-5.426,4.231-9.068c5.706-12.026,13.847-28.67,13.847-28.67
				l-21.643-22.506c0,0-5.117,4.681-7.476,16.013c-0.411,2.033-2.245,10.076-4.255,18.755c-0.528,2.226-1.146,4.581-1.768,6.813
				c-0.176,0.601-0.34,1.202-0.508,1.78C263.681,239.532,262.381,243.517,262.381,243.517z"/>
			<path style="fill:#FFFFFF;" d="M310.969,288.097c0,0,2.647,52.457,2.649,52.488c0.04,0.791,10.553,2.719,11.341,2.89
				c4.046,0.879,8.123,1.62,12.222,2.204c4.233,0.603,8.598,2.038,12.871,1.259c-1.132,0.206-2.138-24.495-2.176-26.675
				c-0.162-9.244-0.323-18.625-2.722-27.616c-1.873-7.022-5.277-9.187-12.17-10.982c-3.635-0.946-7.421-1.57-11.17-1.84
				l-10.853,7.388L310.969,288.097z"/>
			<path style="fill:#FFFFFF;" d="M269.092,259.206c-8.015,0.441-16.846-2.034-24.194-3.554c-7.348-1.52-11.462-3.13-11.462-3.13
				s1.304-1.13,1.768-4.703c0.462-3.471-0.528-5.463-0.528-5.463s21.262-0.922,29.757-2.288l12.899,17.559
				C275.13,258.542,272.297,259.031,269.092,259.206z"/>
			<path style="fill:#FFFFFF;" d="M277.58,233.449c0.182,2.337,0.375,4.698,0.568,7.054c0.249,3.017,0.503,6.034,0.755,9.009
				c1.125,13.372-0.815,19.811-1.355,35.772c2.105,0.122,4.209,0.243,6.314,0.365c11.044,0.638,22.089,1.276,33.133,1.913
				c2.134,0.123,27.814,0.106,27.995,2.811c-0.428-6.405-0.856-12.811-1.284-19.216c-0.682-10.203-1.364-20.436-0.802-30.647
				c0.433-7.868,1.573-15.694,1.67-23.58c0.078-6.305,0.011-15.268-3.613-20.688c-4.013-6.001-16.971-11.126-19.144-11.563
				c-17.819-3.573-34.237-0.173-42.743,6.533C275.253,195.614,276.053,213.808,277.58,233.449z"/>
			<g>
				<path style="fill:#C5C8D3;" d="M321.668,187.22c0.349,1.649,0.642,3.31,0.906,4.976c0.281,1.664,0.522,3.334,0.74,5.006
					l0.022,0.169l-0.13,0.139c-1.484,1.587-3.007,3.137-4.543,4.675l-0.061-0.522l2.685,1.887c0.885,0.644,1.772,1.286,2.637,1.962
					c-0.971-0.512-1.92-1.058-2.87-1.601l-2.822-1.675l-0.35-0.208l0.288-0.315c1.467-1.603,2.946-3.196,4.464-4.749l-0.108,0.308
					c-0.2-1.667-0.375-3.335-0.512-5.01C321.861,190.588,321.737,188.909,321.668,187.22z"/>
			</g>
			<g>
				<g>
					<path style="fill:#C5C8D3;" d="M318.985,310.373c2.384,0.006,4.768,0.034,7.151,0.091c2.328,0.056,4.84,0.416,7.148,0.122
						c0.132-0.017,0.192-0.222,0.035-0.256c-2.183-0.472-4.613-0.295-6.842-0.337c-2.497-0.047-4.994-0.059-7.492-0.048
						C318.71,309.946,318.709,310.372,318.985,310.373L318.985,310.373z"/>
				</g>
			</g>
			<g>
				<g>
					<path style="fill:#C5C8D3;" d="M318.659,310.751c0.2,1.75,0.294,4.488,1.893,5.636c0.75,0.538,1.714,0.625,2.605,0.681
						c1.568,0.099,3.167,0.084,4.738,0.08c1.726-0.003,3.778-0.116,4.961-1.572c1.225-1.509,0.879-3.732,0.407-5.456
						c-0.065-0.239-0.399-0.134-0.363,0.1c0.3,1.929,0.82,4.273-1.086,5.613c-1.267,0.891-3.025,0.79-4.498,0.774
						c-1.548-0.017-3.151,0.091-4.691-0.075c-3.021-0.326-3.235-3.371-3.531-5.78C319.06,310.478,318.628,310.472,318.659,310.751
						L318.659,310.751z"/>
				</g>
			</g>
			<g>
				<g>
					<path style="fill:#C5C8D3;" d="M318.243,311.156c0.16,4.833,0.359,9.696,0.886,14.505c0.12,1.098,0.278,2.169,1.172,2.915
						c1.297,1.082,3.388,1.146,4.977,1.035c2.641-0.184,6.833-0.589,8.369-3.135c0.771-1.278,0.784-2.861,0.721-4.303
						c-0.098-2.283-0.233-4.587-0.47-6.859c-0.027-0.261-0.42-0.274-0.417,0c0.033,3.007,0.858,6.511,0.169,9.474
						c-0.809,3.482-5.402,3.979-8.373,4.173c-2.042,0.133-4.787-0.005-5.395-2.422c-0.399-1.585-0.351-3.397-0.496-5.018
						c-0.308-3.451-0.564-6.908-0.773-10.366C318.599,310.92,318.235,310.916,318.243,311.156L318.243,311.156z"/>
				</g>
			</g>
			<g>
				<g>
					<path style="fill:#C5C8D3;" d="M279.334,256.093c0.764-7.839-0.225-15.535-1.242-23.313c-0.486-3.715-0.96-7.436-1.212-11.176
						c-0.273-4.043,0.056-8.051-0.062-12.086c-0.004-0.128-0.194-0.161-0.227-0.031c-1.841,7.203-0.249,15.583,0.691,22.827
						c1.022,7.872,2.177,15.819,1.895,23.779C279.173,256.196,279.324,256.192,279.334,256.093L279.334,256.093z"/>
				</g>
			</g>
			<g>
				<g>
					<path style="fill:#C5C8D3;" d="M275.668,222.309c-0.777-1.977-2.012-4.301-3.964-5.346c-0.135-0.073-0.327,0.083-0.226,0.226
						c0.601,0.858,1.397,1.546,2.04,2.374c0.693,0.892,1.382,1.852,1.938,2.835C275.519,222.509,275.717,222.434,275.668,222.309
						L275.668,222.309z"/>
				</g>
			</g>
			<g>
				<path style="fill:#C5C8D3;" d="M294.594,185.656c-1.506,1.711-2.924,3.495-4.199,5.372c-1.284,1.866-2.44,3.832-3.228,5.929
					l-0.058-0.327c1.135,1.24,2.234,2.512,3.353,3.767l0.277,0.31l-0.351,0.233l-5.762,3.824l0.173-0.421
					c0.459,2.17,0.871,4.344,1.28,6.521c0.399,2.178,0.81,4.355,1.136,6.546c0.338,2.189,0.652,4.382,0.913,6.583
					c0.229,2.203,0.463,4.411,0.492,6.626c-0.215-2.203-0.527-4.391-0.892-6.571c-0.337-2.184-0.724-4.36-1.136-6.531l-1.242-6.513
					l-1.338-6.492l-0.056-0.273l0.229-0.148l5.805-3.759l-0.074,0.543c-1.095-1.275-2.21-2.533-3.289-3.822l-0.13-0.155l0.072-0.172
					c0.892-2.148,2.135-4.096,3.494-5.936C291.459,188.976,292.949,187.238,294.594,185.656z"/>
			</g>
			<path style="fill:#75AAF5;" d="M310.969,288.097c0,0-6.639,0.67-13.508,0c-3.231-0.315-6.861-1.175-6.861-1.175
				s1.949-48.638,2.319-69.927c0.253-13.871,1.993-23.477,4.105-28.749c0.748-1.913,1.565-3.244,2.381-4.027
				c0.189-0.197,0.391-0.363,0.59-0.47l0.047-0.042c5.526-3.312,18.546,0.389,18.546,0.389s-1.593,3.213-2.565,6.447
				c-0.148,0.51-0.282,1.021-0.399,1.518c-1.51,6.641-1.618,9.287-3.392,28.198C310.473,239.186,310.969,288.097,310.969,288.097z"
				/>
			<path style="fill:#FE9C70;" d="M318.588,184.101c0,0-1.594,3.209-2.568,6.441c-6.025,2.102-9.509,2.65-14.032,1.83
				c-2.625-0.482-4.402-2.247-4.967-4.121c0.745-1.912,1.571-3.248,2.391-4.026c0.225-0.165,0.425-0.318,0.586-0.474l0.041-0.048
				c0.187-0.167,0.323-0.311,0.345-0.475c0.168-0.93,0.217-1.346,0.181-1.818c-0.016-0.382-0.081-0.792-0.165-1.533
				c-0.16-1.85-0.385-3.894-0.385-3.894l3.311-2.157l12.865-12.764l0.221,4.24c0,0-0.191,12.316,1.344,17.622
				C317.893,183.388,318.172,183.835,318.588,184.101z"/>
			<path style="fill:#F28A61;" d="M309.727,171.567c0,0-0.932,6.027-9.163,9.843c-0.016-0.382-0.081-0.792-0.165-1.533
				c-0.16-1.85-0.385-3.894-0.385-3.894l3.311-2.157L309.727,171.567z"/>
			<path style="fill:#E0E0E0;" d="M279.002,224.252c0,0-3.039,0.313-1.924,7.918c0.927,6.322,1.559,7.566,3.851,8.421
				c2.292,0.854,5.611-2.373,5.585-2.529c-0.026-0.156-0.348-6.613-0.58-7.361c-0.231-0.748-1.307-2.39-1.749-2.798
				c-0.443-0.408-3.289-2.675-3.289-2.675l-0.814-0.562C280.082,224.664,279.393,224.401,279.002,224.252z"/>
			<path style="fill:#FE9C70;" d="M303.309,231.534l-2.808,17.143c-9.966-5.019-20.445-11.408-27.478-15.655
				c-4.93-2.961-9.394-5.549-9.394-5.549s-0.6-0.725,0.701-4.091c0.782-2.064,2.273-1.937,2.273-1.937s17.487,4.521,32.318,8.763
				C300.588,230.681,302.027,231.132,303.309,231.534z"/>
			<path style="fill:#FFFFFF;" d="M342.341,202.903c0.568,3.954-0.023,8.562-0.134,11.77c-0.074,2.144-0.24,4.303-0.821,6.369
				c-0.997,3.538-3.156,6.617-5.279,9.618c-2.673,3.781-5.532,7.448-8.256,11.136c-2.121,2.871-3.764,7.71-6.968,9.632
				c-3.527,2.513-7.091,4.338-16.071,0.856c-9.101-3.513-23.883-11.694-23.883-11.694c2.128-0.939,2.452-7.431,1.433-11.422
				c-1.148-4.493-3.284-4.851-3.359-4.916c0,0,28.023,7.096,28.053,7.104c0,0,7.127-12.306,7.79-13.375
				c3.153-5.074,6.305-10.148,9.458-15.222c3.302-5.314,8.879-11.472,15.172-6.039C341.164,198.179,341.983,200.411,342.341,202.903
				z"/>
			<g>
				<path style="fill:#191C26;" d="M295.006,154.72c0.376,2.246-0.435,4.549-1.66,6.47c-0.866,1.358-1.874-0.196-3.459-0.486
					c-2.451-0.449-2.716-3.697-2.843-10.74c-1.138-2.988-0.817-7.374-0.534-7.812c1.017-1.575,3.426-2.049,5.294-1.841"/>
			</g>
			<g>
				<path style="fill:#F28A61;" d="M300.12,178.313c1.171,0.016,3.732-0.747,4.308-0.958c2.545-0.933,6.745-3.738,7.348-6.002
					c-2.577,1.408-7.327,3.896-11.741,4.304C300.049,176.427,300.093,177.577,300.12,178.313z"/>
			</g>
			<g>
				<path style="fill:#FE9C70;" d="M314.205,171.225c-1.038,0.962-2.702,1.924-4.637,2.799c-4.291,1.924-9.944,3.394-13.284,3.264
					c-3.21-0.13-5.458-5.793-7.328-12.051c-0.27-0.919-0.497-1.881-0.67-2.853c-1.589-8.971,1.048-19.596,4.94-23.552
					c3.869-3.945,8.744-6.69,14.386-7.317c8.582-0.951,10.992,8.031,11.457,14.829C319.588,153.834,320.204,165.701,314.205,171.225
					z"/>
			</g>
			<g>
				<path style="fill:#EF8359;" d="M294.296,157.421c0.149,1.615-0.131,3.211-0.598,4.735c-0.067,0.19-0.117,0.368-0.219,0.599
					l-0.226,0.5c-0.03,0.068-0.049,0.134-0.055,0.156c-0.006,0.009-0.014,0.005-0.013,0.018c-0.002,0.031,0.127,0.142,0.305,0.272
					c0.665,0.544,1.169,1.199,1.478,1.958c-0.63-0.5-1.268-0.955-1.898-1.3c-0.148-0.08-0.39-0.147-0.616-0.447
					c-0.109-0.149-0.172-0.353-0.167-0.539c0.003-0.174,0.036-0.3,0.068-0.418c0.067-0.23,0.161-0.419,0.227-0.587
					c0.055-0.129,0.107-0.333,0.164-0.515C293.23,160.383,293.666,158.911,294.296,157.421z"/>
			</g>
			<g>
				<path style="fill:#191C26;" d="M315.109,144.943c-1.969,1.987-16.302,2.348-21.168,1.031c-4.29-1.161-7.463-3.089-9.58-7.101
					c-0.711-1.348-1.383-2.791-1.356-4.315s0.964-3.137,2.457-3.447c-0.577,0.72,0.123,1.873,1.022,2.079
					c0.899,0.205,1.812-0.203,2.646-0.596c4.305-2.024,8.792-3.916,13.538-4.235c5.541-0.373,16.981,3.48,15.089,11"/>
			</g>
			<g>
				<path style="fill:#191C26;" d="M311.351,142.152c-1.307,1.254-1.786,3.13-2.047,4.922c-0.393,2.698-0.407,5.538,0.647,8.053
					c0.3,0.715,0.278,4.132,0.845,3.991c0.18-0.045,0.371-2.678,0.952-4.058c0.899-2.139,4.266-2.698,5.632-1.188
					c2.181,2.412,0.567,4.98-0.355,6.584c-0.556,0.968-1.395,2.039-1.61,3.096c-0.276,1.354-0.737,6.324,0.056,7.565
					c0.663,1.037,1.85-3.601,2.598-4.472c5.568-6.482,11.828-23.654,3.624-28.175c-1.246-0.687-5.223-1.324-6.496-0.687"/>
			</g>
			<path style="fill:none;stroke:#FFFFFF;stroke-width:0.6182;stroke-miterlimit:10;" d="M308.843,161.138
				c0,0,1.727-0.655,2.8-4.224"/>
			<path style="fill:none;stroke:#FFFFFF;stroke-width:0.6182;stroke-miterlimit:10;" d="M315.637,161.667
				c0,0-0.482,7.959-3.816,10.192"/>
			<path style="fill:#FFFFFF;" d="M312.346,171.83c0,0-0.94,1.027-2.778,2.194c-2.626,1.675-7.09,3.642-13.284,3.264
				c-3.21-0.13-5.458-5.793-7.328-12.051c-0.27-0.919,2.083-3.814,5.877-3.987c4.021-0.173,7.75,3.75,14.292-0.564
				C309.125,160.686,309.925,168.468,312.346,171.83z"/>
			<g>
				<g>
					<path style="fill:#2E2F44;" d="M302.928,196.185c0.428,11.254-4.104,23.469-16.137,26.387
						c-6.736,1.634-12.124-0.54-18.295-3.03c-3.899-1.574-8.245-2.321-12.297-3.441c-8.019-2.216-15.123,0.955-20.302,7.312
						c-2.73,3.35-4.227,7.406-6.554,11.013c-3.498,5.422-8.09,7.984-14.442,8.554c-0.615,0.055-0.621,0.912,0,0.961
						c10.254,0.811,14.927-6.879,19.273-14.875c2.809-5.167,7.318-10.137,13.157-11.866c3.586-1.061,7.031,0.006,10.477,0.991
						c2.765,0.79,5.629,1.256,8.369,2.11c5.236,1.631,9.523,4.328,15.202,4.282c4.273-0.034,8.531-1.217,12.117-3.563
						c8.259-5.402,10.708-15.508,10.156-24.835C303.625,195.722,302.91,195.716,302.928,196.185L302.928,196.185z"/>
				</g>
			</g>
			<path style="fill:#FFFFFF;" d="M277.992,276.893c0,0-5.688,45.27-9.244,67.843l15.657-3.205c0,0,5.095-33.101,6.231-55.491
				C291.189,275.128,277.992,276.893,277.992,276.893z"/>
			<path style="fill:#FE9C70;" d="M270.676,222.553c0,0-4.124-1.852-6.221-3.759c-2.097-1.908-4.256-4.011-4.971-4.297
				c-0.715-0.286-3.556-0.978-4.032-0.964c-0.477,0.015-0.358,1.59,0.62,2.112c1.544,0.825,1.936,1.099,2.363,1.477
				c0.591,0.541-0.575,0.39-2.576-0.328c-1.362-0.489-5.272-3.437-6.94-3.532c-1.668-0.095-0.238,1.859,0.858,2.812
				c1.096,0.953,4.211,3.137,4.211,3.137s0.376,1.951,0.681,2.41c0.304,0.459-0.077,1.348,0.018,2.143
				c0.095,0.794,0.381,1.366,0.445,1.748c0.064,0.381,0.127,1.78,0.763,2.193c0.636,0.413,8.772,0.315,9.649,0.827
				C266.419,229.043,270.676,222.553,270.676,222.553z"/>
			<g>
				<g>
					<path style="fill:#2E2F44;" d="M314.498,157.63c-1.054-0.296-1.382,0.94-1.359,1.741c0.024,0.846,0.844,1.305,1.526,0.717
						c0.613-0.529,0.671-1.906,0.164-2.529c-0.179-0.22-0.447-0.336-0.73-0.256c-0.44,0.125-0.579,0.626-0.665,1.016
						c-0.174,0.795-0.067,1.965,1.001,1.984c1.114,0.02,0.871-1.369,0.652-2.041c-0.116-0.356-0.273-0.893-0.63-1.086
						c-0.367-0.198-0.753,0.027-0.966,0.335c-0.451,0.655-0.753,2.165-0.001,2.72c0.677,0.5,1.65-0.069,1.867-0.792
						c0.213-0.71-0.188-2.39-1.057-2.525c-0.959-0.15-1.201,1.48-1.209,2.122c-0.012,0.874,0.561,1.754,1.52,1.724
						c1.083-0.034,1.132-1.197,1.02-2.018c-0.119-0.871-1.009-2.019-1.962-1.28c-0.643,0.498-0.599,1.742-0.237,2.395
						c0.493,0.888,1.471,0.496,1.855-0.248c0.378-0.732,0.627-2.072-0.233-2.578c-1.03-0.607-1.954,0.605-1.899,1.549
						c0.042,0.719,0.763,2.796,1.736,1.622c0.741-0.895,0.397-2.316-0.316-3.096c-0.139-0.151-0.432-0.16-0.568,0
						c-0.515,0.603-0.77,1.389-0.569,2.177c0.143,0.563,0.659,1.203,1.313,1.046c0.62-0.149,0.858-0.976,0.852-1.535
						c-0.007-0.622-0.301-1.184-0.929-1.35c-0.223-0.059-0.422,0.075-0.497,0.282c-0.21,0.582-0.056,1.177,0.393,1.599
						c0.194,0.183,0.494,0.143,0.636-0.082c0.229-0.362,0.441-0.8,0.245-1.226c-0.156-0.34-0.533-0.571-0.906-0.47
						c-0.889,0.242-0.692,1.592-0.352,2.179c0.167,0.289,0.523,0.233,0.701,0c0.394-0.515,0.539-1.187,0.357-1.817
						c-0.134-0.462-0.57-0.986-1.109-0.793c-0.517,0.186-0.639,0.894-0.588,1.369c0.062,0.57,0.369,1.022,0.826,1.352
						c0.163,0.118,0.478,0.043,0.558-0.146c0.341-0.805,0.9-3.136-0.658-3.069c-1.274,0.055-1.471,2.026-0.577,2.686
						c1.002,0.74,2.03-1.065,1.292-1.805c-0.308-0.309-0.979-0.349-1.161,0.111c-0.188,0.474,0.242,0.899,0.69,0.902
						c0.369,0.002,0.463-0.573,0.089-0.656c-0.001-0.011-0.003-0.021-0.004-0.032c-0.094,0.094-0.187,0.187-0.281,0.281
						c0.096-0.079,0.119-0.031,0.069,0.141c0.038,0.29-0.074,0.335-0.335,0.135c-0.162-0.156-0.141-0.981,0.196-0.939
						c0.598,0.075,0.098,1.545-0.024,1.833c0.186-0.049,0.372-0.098,0.558-0.146c-0.207-0.149-0.348-0.358-0.408-0.606
						c-0.015-0.061-0.054-0.545,0.013-0.533c0.115,0.021,0.122,0.482,0.119,0.551c-0.015,0.301-0.146,0.54-0.323,0.772
						c0.234,0,0.468,0,0.701,0c-0.126-0.217-0.119-0.364-0.184-0.6c0.009-0.076,0.017-0.153,0.026-0.23
						c-0.082,0.113-0.158,0.228-0.23,0.347c0.212-0.027,0.424-0.055,0.636-0.082c-0.253-0.237-0.303-0.486-0.186-0.812
						c-0.166,0.094-0.331,0.188-0.497,0.282c0.418,0.111,0.498,1.107,0.08,1.202c-0.327,0.074-0.372-0.53-0.362-0.767
						c0.015-0.367,0.163-0.705,0.4-0.982c-0.189,0-0.379,0-0.568,0c0.354,0.387,0.529,0.879,0.468,1.405
						c-0.01,0.09-0.075,0.587-0.198,0.56c-0.104-0.023-0.271-0.747-0.293-0.857c-0.052-0.26-0.08-0.565,0.069-0.799
						c0.172-0.271,0.578-0.471,0.753-0.083c0.141,0.313-0.007,0.826-0.117,1.121c-0.072,0.194-0.166,0.492-0.406,0.487
						c-0.243-0.005-0.241-0.256-0.27-0.474c-0.025-0.189-0.069-0.491,0-0.672c0.125-0.33,0.461-0.404,0.691-0.074
						c0.18,0.259,0.412,1.364,0.098,1.642c-0.496,0.439-0.947-0.455-0.965-0.8c-0.012-0.234,0.077-1.458,0.452-1.348
						c0.105,0.031,0.299,0.619,0.314,0.667c0.106,0.32,0.188,0.727-0.048,1.014c-0.097,0.118-0.323,0.271-0.488,0.254
						c-0.391-0.04-0.34-0.5-0.312-0.768c0.02-0.195,0.049-0.502,0.143-0.69c0.017-0.212,0.144-0.33,0.383-0.354
						c0.086,0.167,0.157,0.341,0.215,0.519c0.076,0.226,0.187,0.525,0.171,0.768c-0.033,0.512-0.492,0.679-0.692,0.113
						c-0.095-0.27-0.038-0.758,0.082-1.023c0.099-0.218,0.282-0.56,0.442-0.167c0.162,0.397,0.152,1.221-0.17,1.532
						c-0.215,0.219-0.421,0.192-0.618-0.081c-0.022-0.156-0.025-0.311-0.008-0.467c0.02-0.337,0.088-1.094,0.659-0.978
						C314.681,158.184,314.816,157.719,314.498,157.63L314.498,157.63z"/>
				</g>
			</g>
			<g>
				<g>
					<path style="fill:#2E2F44;" d="M314.723,159.156c3.037,0.325,4.948,0.459,5.969,3.884c0.474,1.591,0.378,3.482,0.524,5.131
						c0.302,3.413,0.687,6.878,0.496,10.311c-0.405,7.284-3.366,14.294-10.956,16.386c-6.61,1.822-14.755,0.775-18.767-5.377
						c-4.111-6.304-2.583-13.402-2.711-20.424c-0.006-0.343-0.516-0.425-0.606-0.082c-2.051,7.843-1.988,18.431,4.528,24.286
						c5.416,4.867,14.849,5.009,21.111,1.75c7.691-4.003,9.119-13.482,8.795-21.276c-0.252-6.056,0.898-17.69-8.476-15.279
						C314.22,158.57,314.349,159.116,314.723,159.156L314.723,159.156z"/>
				</g>
			</g>
			<g>
				<g>
					<path style="fill:#2E2F44;" d="M305.331,197.19c0.12,0,0.12-0.187,0-0.187C305.211,197.003,305.211,197.19,305.331,197.19
						L305.331,197.19z"/>
				</g>
			</g>
			<g>
				<g>
					<path style="fill:#C5C8D3;" d="M307.048,231.497c0.76,1.276,1.692,2.437,2.388,3.753c0.681,1.289,0.934,2.572,1.27,3.967
						c0.065,0.271,0.429,0.183,0.455-0.062c0.307-2.961-1.794-5.919-3.697-7.979C307.258,230.955,306.895,231.24,307.048,231.497
						L307.048,231.497z"/>
				</g>
			</g>
			<g>
				<g>
					<path style="fill:#C5C8D3;" d="M308.481,230.039c1.053,0.744,5.469,3.094,4.189,4.791c0.142-0.018,0.283-0.037,0.425-0.055
						c-0.342-0.277-0.596-0.624-0.89-0.948c-0.106-0.117-0.264,0.011-0.242,0.141c0.089,0.529,0.348,0.83,0.749,1.19
						c0.101,0.091,0.285,0.117,0.383,0c1.814-2.168-2.853-4.921-4.347-5.576C308.438,229.446,308.199,229.84,308.481,230.039
						L308.481,230.039z"/>
				</g>
			</g>
			<g>
				<g>
					<path style="fill:#C5C8D3;" d="M314.087,255.833c0.202,6.878,0.866,13.743,1.131,20.621c0.266,6.896,0.256,13.798,0.19,20.698
						c-0.133,13.801-0.41,27.617,1.166,41.355c0.021,0.183,0.311,0.185,0.289,0c-1.574-13.731-1.304-27.56-1.178-41.355
						c0.125-13.742,0.011-27.629-1.324-41.318C314.344,255.662,314.082,255.654,314.087,255.833L314.087,255.833z"/>
				</g>
			</g>
			<g>
				<g>
					<path style="fill:#C5C8D3;" d="M288.998,246.995c-0.018,15.161,0.881,30.288-1.099,45.363
						c-2.017,15.358-4.037,30.722-6.133,46.069c-0.031,0.23,0.286,0.276,0.317,0.043c1.986-15.218,4.111-30.419,6.107-45.635
						c1.995-15.205,1.344-30.543,0.949-45.839C289.136,246.905,288.998,246.905,288.998,246.995L288.998,246.995z"/>
				</g>
			</g>
			<g>
				<g>
					<path style="fill:#C5C8D3;" d="M262.845,240.502c2.435,0.114,4.788,0.58,7.123,1.257c0.12,0.035,0.161-0.139,0.051-0.183
						c-2.306-0.923-4.699-1.312-7.174-1.321C262.684,240.254,262.686,240.495,262.845,240.502L262.845,240.502z"/>
				</g>
			</g>
			<g>
				<g>
					<path style="fill:#C5C8D3;" d="M310.659,254.747c6.135,2.148,12.282-3.258,15.403-7.96c2.291-3.451,4.258-7.103,6.595-10.53
						c2.735-4.011,5.778-7.779,8.785-11.586c0.09-0.114-0.058-0.274-0.164-0.164c-5.041,5.274-9.274,11.38-13.025,17.622
						c-1.873,3.117-3.647,6.438-6.436,8.854c-2.851,2.469-7.245,4.534-11.007,3.214
						C310.464,254.075,310.315,254.626,310.659,254.747L310.659,254.747z"/>
				</g>
			</g>
			<g>
				<g>
					<path style="fill:#C5C8D3;" d="M329.022,197.908c2.838-2.939,6.206-3.51,10.102-3.253c0.285,0.019,0.317-0.398,0.065-0.479
						c-3.716-1.206-7.993,0.646-10.506,3.393C328.475,197.796,328.806,198.131,329.022,197.908L329.022,197.908z"/>
				</g>
			</g>
			<g>
				<g>
					<path style="fill:#C5C8D3;" d="M326.553,199.135c-0.968,0.455-1.496,1.308-1.492,2.37c0.001,0.256,0.362,0.297,0.439,0.059
						c0.241-0.752,0.771-1.502,1.389-1.994C327.151,199.361,326.817,199.011,326.553,199.135L326.553,199.135z"/>
				</g>
			</g>
			<g>
				<g>
					<path style="fill:#C5C8D3;" d="M311.629,222.712c2.09-2.166,3.453-4.704,4.804-7.372c1.58-3.121,3.268-5.671,5.548-8.323
						c0.176-0.205-0.051-0.562-0.306-0.396c-5.269,3.417-6.347,11.193-10.339,15.799
						C311.164,222.619,311.443,222.906,311.629,222.712L311.629,222.712z"/>
				</g>
			</g>
			<g>
				<path style="fill:#FE9C70;" d="M234.941,244.297c-0.922-0.156-1.948-0.856-2.721-1.266c-0.963-0.511-1.907-1.058-2.875-1.56
					c-3.136-1.629-7.067-1.51-10.092,0.305c-0.246,0.148-0.511,0.343-0.545,0.634c-0.065,0.549,0.66,0.779,1.198,0.802
					c1.298,0.054,2.566,0.259,3.871,0.338c0.196,1.57,1.18,2.959,2.426,3.894c1.246,0.935,2.738,1.463,4.238,1.832
					c1.389,0.342,2.808,0.558,4.233,0.648c0.573-1.359,0.678-2.814,0.73-4.288c0.003-0.092-0.112-1.302-0.206-1.301
					C235.081,244.334,235.065,244.317,234.941,244.297z"/>
			</g>
			<g style="opacity:0.2;">
				<g>
					<path style="fill:#49161A;" d="M221.261,243.581c1.414,0.166,2.88,0.209,3.991,1.218c0.772,0.701,1.316,1.7,2.061,2.442
						c0.888,0.884,1.896,1.612,3.17,1.709c0.19,0.014,0.197-0.251,0.042-0.31c-2.443-0.932-3.359-2.684-5.146-4.38
						c-1.164-1.104-2.601-0.875-4.118-0.856C221.144,243.406,221.151,243.568,221.261,243.581L221.261,243.581z"/>
				</g>
			</g>
			<g style="opacity:0.2;">
				<g>
					<path style="fill:#49161A;" d="M219.884,241.48c1.831-0.975,4.509-1.257,6.555-0.887c0.13,0.024,0.178-0.15,0.054-0.197
						c-0.861-0.325-2.07-0.141-2.958-0.055c-1.287,0.123-2.579,0.387-3.698,1.059C219.786,241.431,219.832,241.508,219.884,241.48
						L219.884,241.48z"/>
				</g>
			</g>
			<g>
				<g>
					<path style="fill:#C5C8D3;" d="M264.855,239.299c0.641-0.17,1.295-0.319,1.961-0.3c0.623,0.018,1.182,0.25,1.792,0.325
						c0.261,0.032,0.418-0.366,0.219-0.529c-1.096-0.905-3.052-0.727-4.183,0.006C264.39,238.965,264.548,239.38,264.855,239.299
						L264.855,239.299z"/>
				</g>
			</g>
			<g>
				<g>
					<path style="fill:#191C26;" d="M300.298,155.931c-0.815,0.243-0.826,1.307-0.757,2.016c0.073,0.745,0.33,1.398,1.157,1.485
						c0.221,0.023,0.504-0.145,0.598-0.343c0.441-0.922,0.459-1.87-0.05-2.794c-0.124-0.226-0.457-0.382-0.71-0.289
						c-0.407,0.15-0.595,0.371-0.644,0.804c-0.06,0.528,0.696,0.787,1.031,0.427c0.022-0.043,0.054-0.07,0.097-0.082
						c-0.287-0.075-0.573-0.15-0.86-0.226c0.142,0.221,0.246,0.438,0.268,0.703c0.012,0.15,0.028,0.52-0.072,0.632
						c0.201-0.053,0.402-0.106,0.603-0.16c-0.158-0.074-0.112-0.032,0.137,0.127c-0.027-0.092-0.038-0.187-0.035-0.283
						c-0.014-0.211,0.004-0.423,0.024-0.634c0.047-0.481,0.156-0.836-0.203-1.227C300.744,155.932,300.496,155.872,300.298,155.931
						L300.298,155.931z"/>
				</g>
			</g>
			<g>
				<g>
					<path style="fill:#191C26;" d="M290.941,156.962c-1.131,0.191-1.045,2.909,0.157,2.872c0.641-0.019,0.84-0.824,0.91-1.329
						c0.079-0.575-0.104-1.378-0.641-1.704c-1.445-0.877-1.917,2.218-0.848,2.866c0.703,0.426,1.298-0.275,1.415-0.917
						c0.126-0.693-0.028-1.514-0.623-1.937c-0.452-0.321-1.056,0.209-0.913,0.702c0.054,0.185,0.16,0.339,0.223,0.518
						c0.053,0.148-0.003,0.311,0.034,0.44c-0.089,0.277,0.143,0.331,0.697,0.161c-0.031-0.111-0.046-0.224-0.043-0.34
						c-0.004-0.114,0.004-0.227,0.023-0.339c0.075-0.212,0.053-0.226-0.068-0.044c-0.172,0.022-0.343,0.045-0.514,0.067
						c-0.154-0.042-0.047-0.056,0.013,0.086c0.044,0.103,0.088,0.195,0.114,0.306c0.037,0.156,0.03,0.464-0.039,0.5
						c0.133-0.017,0.266-0.035,0.399-0.052c0.178,0.051,0.029-0.17,0.016-0.28c-0.02-0.171-0.012-0.362,0.004-0.533
						c0.028-0.292,0.141-0.541,0.052-0.834C291.258,157.005,291.104,156.935,290.941,156.962L290.941,156.962z"/>
				</g>
			</g>
			<g>
				<g>
					<path style="fill:#191C26;" d="M299.593,153.344c1.913-1.646,4.517-0.543,6.502,0.115c0.308,0.102,0.56-0.331,0.319-0.548
						c-1.806-1.632-5.529-1.922-7.175,0.08C299.036,153.238,299.346,153.556,299.593,153.344L299.593,153.344z"/>
				</g>
			</g>
			<g>
				<g>
					<path style="fill:#191C26;" d="M292.432,152.894c-1.049-1.211-4.413-1.56-5.208,0.129c-0.05,0.106,0.007,0.271,0.148,0.259
						c0.803-0.072,1.465-0.543,2.295-0.585c0.922-0.047,1.69,0.302,2.541,0.583C292.442,153.356,292.572,153.055,292.432,152.894
						L292.432,152.894z"/>
				</g>
			</g>
		</g>
		<g>
			<g>
				<path style="fill:#40507F;" d="M299.752,283.064c0.201,3.995,0.781,8.05,1.316,12.015c0.382,2.833,1.719,4.553,3.777,6.466
					c0.347,0.323,0.867-0.192,0.522-0.522c-1.023-0.98-2.136-1.983-2.813-3.247c-0.904-1.687-0.858-3.786-1.084-5.642
					c-0.371-3.043-0.637-6.125-1.217-9.137C300.199,282.715,299.738,282.778,299.752,283.064L299.752,283.064z"/>
			</g>
		</g>
		<g>
			<g>
				<path style="fill:#40507F;" d="M290.741,281.219c1.38,0.624,2.754,0.924,4.243,1.192c1.73,0.311,3.4,0.89,5.142,1.128
					c3.509,0.479,7.107-0.16,10.61-0.418c0.581-0.043,0.592-0.944,0-0.914c-3.472,0.177-6.951,0.844-10.427,0.404
					c-3.069-0.388-6.368-1.102-9.374-1.852C290.67,280.694,290.472,281.097,290.741,281.219L290.741,281.219z"/>
			</g>
		</g>
		<g>
			<g>
				<path style="fill:#40507F;" d="M304.138,284.376c-0.318,5.132,0.565,10.538,1.103,15.638c0.276,2.621,0.575,5.239,0.887,7.856
					c0.23,1.93,0.108,4.378,1.022,6.118c0.054,0.103,0.222,0.079,0.249-0.033c0.497-2.091-0.323-4.763-0.573-6.888
					c-0.309-2.63-0.602-5.262-0.873-7.896c-0.506-4.923-0.586-9.974-1.329-14.861C304.58,284.02,304.154,284.113,304.138,284.376
					L304.138,284.376z"/>
			</g>
		</g>
	</g>
</g>
</svg>
